Ubuntu-CondensedLight.ufo
<glyph name="exclam" format="2">
  <advance width="261"/>
  <unicode hex="0021"/>
  <outline>
    <contour>
      <point x="108" y="203" type="curve"/>
      <point x="154" y="203" type="line"/>
      <point x="163" y="325"/>
      <point x="168" y="372"/>
      <point x="168" y="502" type="curve" smooth="yes"/>
      <point x="168" y="693" type="line"/>
      <point x="94" y="693" type="line"/>
      <point x="94" y="502" type="line" smooth="yes"/>
      <point x="94" y="372"/>
      <point x="100" y="325"/>
    </contour>
    <contour>
      <point x="130" y="-10" type="curve" smooth="yes"/>
      <point x="159" y="-10"/>
      <point x="179" y="13"/>
      <point x="179" y="38" type="curve" smooth="yes"/>
      <point x="179" y="65"/>
      <point x="159" y="88"/>
      <point x="130" y="88" type="curve" smooth="yes"/>
      <point x="101" y="88"/>
      <point x="82" y="65"/>
      <point x="82" y="38" type="curve" smooth="yes"/>
      <point x="82" y="13"/>
      <point x="101" y="-10"/>
    </contour>
  </outline>
</glyph>
<glyph name="numbersign" format="2">
  <advance width="554"/>
  <unicode hex="0023"/>
  <outline>
    <contour>
      <point x="105" y="0" type="line"/>
      <point x="156" y="0" type="line"/>
      <point x="182" y="189" type="line"/>
      <point x="328" y="189" type="line"/>
      <point x="302" y="0" type="line"/>
      <point x="353" y="0" type="line"/>
      <point x="379" y="189" type="line"/>
      <point x="509" y="189" type="line"/>
      <point x="509" y="237" type="line"/>
      <point x="386" y="237" type="line"/>
      <point x="416" y="455" type="line"/>
      <point x="509" y="455" type="line"/>
      <point x="509" y="504" type="line"/>
      <point x="423" y="504" type="line"/>
      <point x="449" y="693" type="line"/>
      <point x="397" y="693" type="line"/>
      <point x="371" y="504" type="line"/>
      <point x="226" y="504" type="line"/>
      <point x="252" y="693" type="line"/>
      <point x="200" y="693" type="line"/>
      <point x="174" y="504" type="line"/>
      <point x="45" y="504" type="line"/>
      <point x="45" y="455" type="line"/>
      <point x="168" y="455" type="line"/>
      <point x="138" y="237" type="line"/>
      <point x="45" y="237" type="line"/>
      <point x="45" y="189" type="line"/>
      <point x="131" y="189" type="line"/>
    </contour>
    <contour>
      <point x="189" y="237" type="line"/>
      <point x="219" y="455" type="line"/>
      <point x="364" y="455" type="line"/>
      <point x="334" y="237" type="line"/>
    </contour>
  </outline>
</glyph>
<glyph name="dollar" format="2">
  <advance width="430"/>
  <unicode hex="0024"/>
  <outline>
    <contour>
      <point x="186" y="-109" type="line"/>
      <point x="249" y="-109" type="line"/>
      <point x="249" y="24" type="line"/>
      <point x="329" y="41"/>
      <point x="367" y="106"/>
      <point x="367" y="181" type="curve" smooth="yes"/>
      <point x="367" y="268"/>
      <point x="333" y="315"/>
      <point x="260" y="360" type="curve" smooth="yes"/>
      <point x="183" y="405"/>
      <point x="146" y="435"/>
      <point x="146" y="499" type="curve" smooth="yes"/>
      <point x="146" y="572"/>
      <point x="188" y="605"/>
      <point x="242" y="605" type="curve" smooth="yes"/>
      <point x="257" y="605"/>
      <point x="293" y="598"/>
      <point x="326" y="579" type="curve"/>
      <point x="347" y="635" type="line"/>
      <point x="314" y="651"/>
      <point x="280" y="659"/>
      <point x="249" y="663" type="curve"/>
      <point x="249" y="776" type="line"/>
      <point x="186" y="776" type="line"/>
      <point x="186" y="656" type="line"/>
      <point x="110" y="635"/>
      <point x="73" y="569"/>
      <point x="73" y="500" type="curve" smooth="yes"/>
      <point x="73" y="409"/>
      <point x="116" y="364"/>
      <point x="194" y="318" type="curve" smooth="yes"/>
      <point x="274" y="275"/>
      <point x="294" y="241"/>
      <point x="294" y="180" type="curve" smooth="yes"/>
      <point x="294" y="117"/>
      <point x="256" y="79"/>
      <point x="203" y="79" type="curve" smooth="yes"/>
      <point x="170" y="79"/>
      <point x="121" y="89"/>
      <point x="82" y="114" type="curve"/>
      <point x="61" y="60" type="line"/>
      <point x="100" y="35"/>
      <point x="150" y="23"/>
      <point x="186" y="19" type="curve"/>
    </contour>
  </outline>
</glyph>
<glyph name="percent" format="2">
  <advance width="645"/>
  <unicode hex="0025"/>
  <outline>
    <contour>
      <point x="152" y="0" type="line"/>
      <point x="207" y="0" type="line"/>
      <point x="487" y="693" type="line"/>
      <point x="432" y="693" type="line"/>
    </contour>
    <contour>
      <point x="167" y="348" type="curve" smooth="yes"/>
      <point x="240" y="348"/>
      <point x="276" y="408"/>
      <point x="276" y="527" type="curve" smooth="yes"/>
      <point x="276" y="647"/>
      <point x="240" y="707"/>
      <point x="167" y="707" type="curve" smooth="yes"/>
      <point x="95" y="707"/>
      <point x="59" y="647"/>
      <point x="59" y="527" type="curve" smooth="yes"/>
      <point x="59" y="408"/>
      <point x="95" y="348"/>
    </contour>
    <contour>
      <point x="167" y="394" type="curve" smooth="yes"/>
      <point x="131" y="394"/>
      <point x="113" y="432"/>
      <point x="113" y="527" type="curve" smooth="yes"/>
      <point x="113" y="623"/>
      <point x="131" y="661"/>
      <point x="167" y="661" type="curve" smooth="yes"/>
      <point x="204" y="661"/>
      <point x="221" y="623"/>
      <point x="221" y="527" type="curve" smooth="yes"/>
      <point x="221" y="432"/>
      <point x="204" y="394"/>
    </contour>
    <contour>
      <point x="478" y="-13" type="curve" smooth="yes"/>
      <point x="550" y="-13"/>
      <point x="586" y="47"/>
      <point x="586" y="167" type="curve" smooth="yes"/>
      <point x="586" y="286"/>
      <point x="550" y="346"/>
      <point x="478" y="346" type="curve" smooth="yes"/>
      <point x="405" y="346"/>
      <point x="369" y="286"/>
      <point x="369" y="167" type="curve" smooth="yes"/>
      <point x="369" y="47"/>
      <point x="405" y="-13"/>
    </contour>
    <contour>
      <point x="478" y="33" type="curve" smooth="yes"/>
      <point x="441" y="33"/>
      <point x="424" y="71"/>
      <point x="424" y="167" type="curve" smooth="yes"/>
      <point x="424" y="262"/>
      <point x="441" y="301"/>
      <point x="478" y="301" type="curve" smooth="yes"/>
      <point x="514" y="301"/>
      <point x="532" y="262"/>
      <point x="532" y="167" type="curve" smooth="yes"/>
      <point x="532" y="71"/>
      <point x="514" y="33"/>
    </contour>
  </outline>
</glyph>
<glyph name="ampersand" format="2">
  <advance width="487"/>
  <unicode hex="0026"/>
  <outline>
    <contour>
      <point x="219" y="-9" type="curve" smooth="yes"/>
      <point x="280" y="-9"/>
      <point x="337" y="29"/>
      <point x="381" y="92" type="curve"/>
      <point x="402" y="60"/>
      <point x="422" y="30"/>
      <point x="437" y="0" type="curve"/>
      <point x="484" y="0" type="line"/>
      <point x="463" y="42"/>
      <point x="436" y="85"/>
      <point x="404" y="129" type="curve"/>
      <point x="436" y="188"/>
      <point x="456" y="263"/>
      <point x="462" y="347" type="curve"/>
      <point x="421" y="352" type="line"/>
      <point x="415" y="280"/>
      <point x="400" y="217"/>
      <point x="378" y="166" type="curve"/>
      <point x="229" y="372" type="line"/>
      <point x="297" y="420"/>
      <point x="353" y="478"/>
      <point x="353" y="565" type="curve" smooth="yes"/>
      <point x="353" y="641"/>
      <point x="318" y="706"/>
      <point x="230" y="706" type="curve" smooth="yes"/>
      <point x="151" y="706"/>
      <point x="102" y="646"/>
      <point x="102" y="554" type="curve" smooth="yes"/>
      <point x="102" y="487"/>
      <point x="135" y="431"/>
      <point x="173" y="378" type="curve"/>
      <point x="101" y="328"/>
      <point x="51" y="271"/>
      <point x="51" y="169" type="curve" smooth="yes"/>
      <point x="51" y="86"/>
      <point x="100" y="-9"/>
    </contour>
    <contour>
      <point x="220" y="32" type="curve" smooth="yes"/>
      <point x="141" y="32"/>
      <point x="98" y="94"/>
      <point x="98" y="172" type="curve" smooth="yes"/>
      <point x="98" y="252"/>
      <point x="133" y="302"/>
      <point x="195" y="347" type="curve"/>
      <point x="357" y="126" type="line"/>
      <point x="322" y="67"/>
      <point x="273" y="32"/>
    </contour>
    <contour>
      <point x="206" y="403" type="curve"/>
      <point x="172" y="451"/>
      <point x="146" y="500"/>
      <point x="146" y="554" type="curve" smooth="yes"/>
      <point x="146" y="624"/>
      <point x="174" y="666"/>
      <point x="230" y="666" type="curve" smooth="yes"/>
      <point x="278" y="666"/>
      <point x="309" y="631"/>
      <point x="309" y="564" type="curve" smooth="yes"/>
      <point x="309" y="496"/>
      <point x="265" y="445"/>
    </contour>
  </outline>
</glyph>
<glyph name="quotesingle" format="2">
  <advance width="186"/>
  <unicode hex="0027"/>
  <outline>
    <contour>
      <point x="76" y="511" type="curve"/>
      <point x="111" y="511" type="line"/>
      <point x="121" y="587"/>
      <point x="124" y="643"/>
      <point x="124" y="717" type="curve" smooth="yes"/>
      <point x="124" y="760" type="line"/>
      <point x="62" y="760" type="line"/>
      <point x="62" y="718" type="line" smooth="yes"/>
      <point x="62" y="651"/>
      <point x="65" y="590"/>
    </contour>
  </outline>
</glyph>
<glyph name="parenleft" format="2">
  <advance width="276"/>
  <unicode hex="0028"/>
  <outline>
    <contour>
      <point x="213" y="-187" type="curve"/>
      <point x="270" y="-156" type="line"/>
      <point x="193" y="-17"/>
      <point x="149" y="136"/>
      <point x="149" y="299" type="curve" smooth="yes"/>
      <point x="149" y="462"/>
      <point x="191" y="611"/>
      <point x="270" y="754" type="curve"/>
      <point x="213" y="785" type="line"/>
      <point x="122" y="639"/>
      <point x="78" y="477"/>
      <point x="78" y="299" type="curve" smooth="yes"/>
      <point x="78" y="121"/>
      <point x="122" y="-41"/>
    </contour>
  </outline>
</glyph>
<glyph name="parenright" format="2">
  <advance width="253"/>
  <unicode hex="0029"/>
  <outline>
    <contour>
      <point x="51" y="-187" type="line"/>
      <point x="144" y="-26"/>
      <point x="186" y="132"/>
      <point x="186" y="299" type="curve" smooth="yes"/>
      <point x="186" y="466"/>
      <point x="144" y="624"/>
      <point x="51" y="785" type="curve"/>
      <point x="4" y="759" type="line"/>
      <point x="88" y="603"/>
      <point x="124" y="459"/>
      <point x="124" y="299" type="curve" smooth="yes"/>
      <point x="124" y="139"/>
      <point x="88" y="-5"/>
      <point x="4" y="-161" type="curve"/>
    </contour>
  </outline>
</glyph>
<glyph name="asterisk" format="2">
  <advance width="383"/>
  <unicode hex="002A"/>
  <outline>
    <contour>
      <point x="129" y="409" type="line"/>
      <point x="161" y="451"/>
      <point x="181" y="498"/>
      <point x="190" y="525" type="curve"/>
      <point x="199" y="498"/>
      <point x="218" y="453"/>
      <point x="250" y="409" type="curve"/>
      <point x="306" y="450" type="line"/>
      <point x="276" y="494"/>
      <point x="240" y="522"/>
      <point x="219" y="543" type="curve"/>
      <point x="285" y="554"/>
      <point x="302" y="551"/>
      <point x="344" y="566" type="curve"/>
      <point x="323" y="634" type="line"/>
      <point x="272" y="617"/>
      <point x="234" y="592"/>
      <point x="208" y="576" type="curve"/>
      <point x="214" y="591"/>
      <point x="228" y="649"/>
      <point x="227" y="707" type="curve"/>
      <point x="157" y="707" type="line"/>
      <point x="156" y="649"/>
      <point x="170" y="590"/>
      <point x="175" y="576" type="curve"/>
      <point x="149" y="593"/>
      <point x="115" y="616"/>
      <point x="59" y="635" type="curve"/>
      <point x="39" y="569" type="line"/>
      <point x="89" y="551"/>
      <point x="99" y="552"/>
      <point x="163" y="545" type="curve"/>
      <point x="141" y="524"/>
      <point x="106" y="496"/>
      <point x="74" y="450" type="curve"/>
    </contour>
  </outline>
</glyph>
<glyph name="plus" format="2">
  <advance width="427"/>
  <unicode hex="002B"/>
  <outline>
    <contour>
      <point x="186" y="120" type="line"/>
      <point x="241" y="120" type="line"/>
      <point x="241" y="274" type="line"/>
      <point x="383" y="274" type="line"/>
      <point x="383" y="326" type="line"/>
      <point x="241" y="326" type="line"/>
      <point x="241" y="480" type="line"/>
      <point x="186" y="480" type="line"/>
      <point x="186" y="326" type="line"/>
      <point x="44" y="326" type="line"/>
      <point x="44" y="274" type="line"/>
      <point x="186" y="274" type="line"/>
    </contour>
  </outline>
</glyph>
<glyph name="comma" format="2">
  <advance width="206"/>
  <unicode hex="002C"/>
  <outline>
    <contour>
      <point x="86" y="-136" type="line"/>
      <point x="117" y="-81"/>
      <point x="139" y="-19"/>
      <point x="139" y="49" type="curve" smooth="yes"/>
      <point x="139" y="62"/>
      <point x="139" y="75"/>
      <point x="137" y="91" type="curve"/>
      <point x="73" y="91" type="line"/>
      <point x="74" y="76"/>
      <point x="75" y="55"/>
      <point x="75" y="44" type="curve" smooth="yes"/>
      <point x="75" y="-14"/>
      <point x="65" y="-70"/>
      <point x="42" y="-125" type="curve"/>
    </contour>
  </outline>
</glyph>
<glyph name="hyphen" format="2">
  <advance width="224"/>
  <unicode hex="002D"/>
  <outline>
    <contour>
      <point x="29" y="263" type="line"/>
      <point x="196" y="263" type="line"/>
      <point x="196" y="307" type="line"/>
      <point x="29" y="307" type="line"/>
    </contour>
  </outline>
</glyph>
<glyph name="period" format="2">
  <advance width="211"/>
  <unicode hex="002E"/>
  <outline>
    <contour>
      <point x="105" y="-9" type="curve" smooth="yes"/>
      <point x="131" y="-9"/>
      <point x="150" y="12"/>
      <point x="150" y="36" type="curve" smooth="yes"/>
      <point x="150" y="61"/>
      <point x="131" y="81"/>
      <point x="105" y="81" type="curve" smooth="yes"/>
      <point x="79" y="81"/>
      <point x="61" y="61"/>
      <point x="61" y="36" type="curve" smooth="yes"/>
      <point x="61" y="12"/>
      <point x="79" y="-9"/>
    </contour>
  </outline>
</glyph>
<glyph name="slash" format="2">
  <advance width="255"/>
  <unicode hex="002F"/>
  <outline>
    <contour>
      <point x="-25" y="-185" type="line"/>
      <point x="38" y="-185" type="line"/>
      <point x="281" y="783" type="line"/>
      <point x="217" y="783" type="line"/>
    </contour>
  </outline>
</glyph>
<glyph name="zero" format="2">
  <advance width="428"/>
  <unicode hex="0030"/>
  <outline>
    <contour>
      <point x="214" y="-13" type="curve" smooth="yes"/>
      <point x="323" y="-13"/>
      <point x="370" y="88"/>
      <point x="370" y="347" type="curve" smooth="yes"/>
      <point x="370" y="607"/>
      <point x="323" y="708"/>
      <point x="214" y="708" type="curve" smooth="yes"/>
      <point x="105" y="708"/>
      <point x="58" y="607"/>
      <point x="58" y="347" type="curve" smooth="yes"/>
      <point x="58" y="88"/>
      <point x="105" y="-13"/>
    </contour>
    <contour>
      <point x="214" y="41" type="curve" smooth="yes"/>
      <point x="149" y="41"/>
      <point x="121" y="125"/>
      <point x="121" y="347" type="curve" smooth="yes"/>
      <point x="121" y="570"/>
      <point x="148" y="654"/>
      <point x="214" y="654" type="curve" smooth="yes"/>
      <point x="279" y="654"/>
      <point x="307" y="570"/>
      <point x="307" y="347" type="curve" smooth="yes"/>
      <point x="307" y="125"/>
      <point x="280" y="41"/>
    </contour>
  </outline>
</glyph>
<glyph name="one" format="2">
  <advance width="428"/>
  <unicode hex="0031"/>
  <outline>
    <contour>
      <point x="202" y="0" type="line"/>
      <point x="262" y="0" type="line"/>
      <point x="262" y="693" type="line"/>
      <point x="214" y="693" type="line"/>
      <point x="189" y="645"/>
      <point x="134" y="588"/>
      <point x="81" y="554" type="curve"/>
      <point x="107" y="511" type="line"/>
      <point x="147" y="536"/>
      <point x="176" y="560"/>
      <point x="202" y="592" type="curve"/>
    </contour>
  </outline>
</glyph>
<glyph name="two" format="2">
  <advance width="426"/>
  <unicode hex="0032"/>
  <outline>
    <contour>
      <point x="70" y="0" type="curve"/>
      <point x="367" y="0" type="line"/>
      <point x="367" y="45" type="line"/>
      <point x="119" y="45" type="line"/>
      <point x="123" y="164"/>
      <point x="180" y="243"/>
      <point x="235" y="318" type="curve" smooth="yes"/>
      <point x="287" y="389"/>
      <point x="337" y="455"/>
      <point x="337" y="546" type="curve" smooth="yes"/>
      <point x="337" y="652"/>
      <point x="282" y="708"/>
      <point x="185" y="708" type="curve" smooth="yes"/>
      <point x="133" y="708"/>
      <point x="86" y="688"/>
      <point x="51" y="652" type="curve"/>
      <point x="76" y="620" type="line"/>
      <point x="105" y="647"/>
      <point x="141" y="664"/>
      <point x="182" y="664" type="curve" smooth="yes"/>
      <point x="252" y="664"/>
      <point x="289" y="623"/>
      <point x="289" y="544" type="curve" smooth="yes"/>
      <point x="289" y="458"/>
      <point x="241" y="400"/>
      <point x="190" y="331" type="curve" smooth="yes"/>
      <point x="132" y="254"/>
      <point x="70" y="167"/>
      <point x="70" y="19" type="curve" smooth="yes"/>
      <point x="70" y="13"/>
      <point x="70" y="6"/>
    </contour>
  </outline>
</glyph>
<glyph name="three" format="2">
  <advance width="428"/>
  <unicode hex="0033"/>
  <outline>
    <contour>
      <point x="177" y="-15" type="curve" smooth="yes"/>
      <point x="287" y="-15"/>
      <point x="354" y="57"/>
      <point x="354" y="185" type="curve" smooth="yes"/>
      <point x="354" y="286"/>
      <point x="313" y="349"/>
      <point x="239" y="372" type="curve"/>
      <point x="301" y="399"/>
      <point x="333" y="461"/>
      <point x="333" y="539" type="curve" smooth="yes"/>
      <point x="333" y="642"/>
      <point x="279" y="708"/>
      <point x="181" y="708" type="curve" smooth="yes"/>
      <point x="138" y="708"/>
      <point x="88" y="691"/>
      <point x="55" y="661" type="curve"/>
      <point x="79" y="617" type="line"/>
      <point x="104" y="639"/>
      <point x="142" y="654"/>
      <point x="177" y="654" type="curve" smooth="yes"/>
      <point x="237" y="654"/>
      <point x="273" y="612"/>
      <point x="273" y="537" type="curve" smooth="yes"/>
      <point x="273" y="462"/>
      <point x="242" y="396"/>
      <point x="149" y="396" type="curve" smooth="yes"/>
      <point x="129" y="396" type="line"/>
      <point x="129" y="343" type="line"/>
      <point x="151" y="343" type="line" smooth="yes"/>
      <point x="247" y="343"/>
      <point x="294" y="288"/>
      <point x="294" y="185" type="curve" smooth="yes"/>
      <point x="294" y="78"/>
      <point x="240" y="39"/>
      <point x="173" y="39" type="curve" smooth="yes"/>
      <point x="134" y="39"/>
      <point x="98" y="52"/>
      <point x="63" y="72" type="curve"/>
      <point x="46" y="22" type="line"/>
      <point x="83" y="-1"/>
      <point x="131" y="-15"/>
    </contour>
  </outline>
</glyph>
<glyph name="four" format="2">
  <advance width="426"/>
  <unicode hex="0034"/>
  <outline>
    <contour>
      <point x="273" y="0" type="line"/>
      <point x="318" y="0" type="line"/>
      <point x="318" y="179" type="line"/>
      <point x="391" y="179" type="line"/>
      <point x="391" y="220" type="line"/>
      <point x="318" y="220" type="line"/>
      <point x="318" y="693" type="line"/>
      <point x="268" y="693" type="line"/>
      <point x="200" y="579"/>
      <point x="106" y="398"/>
      <point x="53" y="214" type="curve"/>
      <point x="53" y="179" type="line"/>
      <point x="273" y="179" type="line"/>
    </contour>
    <contour>
      <point x="96" y="220" type="line"/>
      <point x="137" y="361"/>
      <point x="207" y="511"/>
      <point x="273" y="629" type="curve"/>
      <point x="273" y="220" type="line"/>
    </contour>
  </outline>
</glyph>
<glyph name="five" format="2">
  <advance width="426"/>
  <unicode hex="0035"/>
  <outline>
    <contour>
      <point x="171" y="-15" type="curve" smooth="yes"/>
      <point x="276" y="-15"/>
      <point x="348" y="69"/>
      <point x="348" y="205" type="curve" smooth="yes"/>
      <point x="348" y="322"/>
      <point x="290" y="388"/>
      <point x="158" y="409" type="curve"/>
      <point x="165" y="477"/>
      <point x="168" y="544"/>
      <point x="171" y="650" type="curve"/>
      <point x="334" y="650" type="line"/>
      <point x="334" y="693" type="line"/>
      <point x="128" y="693" type="line"/>
      <point x="127" y="596"/>
      <point x="122" y="491"/>
      <point x="111" y="373" type="curve"/>
      <point x="237" y="366"/>
      <point x="302" y="311"/>
      <point x="302" y="204" type="curve" smooth="yes"/>
      <point x="302" y="96"/>
      <point x="249" y="28"/>
      <point x="172" y="28" type="curve" smooth="yes"/>
      <point x="142" y="28"/>
      <point x="104" y="37"/>
      <point x="73" y="52" type="curve"/>
      <point x="59" y="13" type="line"/>
      <point x="97" y="-5"/>
      <point x="134" y="-15"/>
    </contour>
  </outline>
</glyph>
<glyph name="six" format="2">
  <advance width="428"/>
  <unicode hex="0036"/>
  <outline>
    <contour>
      <point x="228" y="-13" type="curve" smooth="yes"/>
      <point x="326" y="-13"/>
      <point x="374" y="73"/>
      <point x="374" y="213" type="curve" smooth="yes"/>
      <point x="374" y="342"/>
      <point x="323" y="422"/>
      <point x="230" y="422" type="curve" smooth="yes"/>
      <point x="199" y="422"/>
      <point x="168" y="413"/>
      <point x="139" y="398" type="curve"/>
      <point x="162" y="582"/>
      <point x="237" y="634"/>
      <point x="340" y="645" type="curve"/>
      <point x="334" y="695" type="line"/>
      <point x="135" y="685"/>
      <point x="74" y="493"/>
      <point x="74" y="295" type="curve" smooth="yes"/>
      <point x="74" y="67"/>
      <point x="126" y="-13"/>
    </contour>
    <contour>
      <point x="227" y="39" type="curve" smooth="yes"/>
      <point x="146" y="39"/>
      <point x="133" y="155"/>
      <point x="133" y="290" type="curve" smooth="yes"/>
      <point x="133" y="305"/>
      <point x="134" y="326"/>
      <point x="135" y="345" type="curve"/>
      <point x="161" y="362"/>
      <point x="191" y="371"/>
      <point x="215" y="371" type="curve" smooth="yes"/>
      <point x="282" y="371"/>
      <point x="313" y="315"/>
      <point x="313" y="209" type="curve" smooth="yes"/>
      <point x="313" y="107"/>
      <point x="289" y="39"/>
    </contour>
  </outline>
</glyph>
<glyph name="seven" format="2">
  <advance width="427"/>
  <unicode hex="0037"/>
  <outline>
    <contour>
      <point x="123" y="0" type="curve"/>
      <point x="186" y="0" type="line"/>
      <point x="197" y="206"/>
      <point x="271" y="484"/>
      <point x="366" y="651" type="curve"/>
      <point x="366" y="693" type="line"/>
      <point x="51" y="693" type="line"/>
      <point x="51" y="638" type="line"/>
      <point x="297" y="638" type="line"/>
      <point x="208" y="466"/>
      <point x="130" y="183"/>
    </contour>
  </outline>
</glyph>
<glyph name="eight" format="2">
  <advance width="428"/>
  <unicode hex="0038"/>
  <outline>
    <contour>
      <point x="214" y="-13" type="curve" smooth="yes"/>
      <point x="294" y="-13"/>
      <point x="372" y="48"/>
      <point x="372" y="170" type="curve" smooth="yes"/>
      <point x="372" y="250"/>
      <point x="322" y="306"/>
      <point x="265" y="350" type="curve"/>
      <point x="316" y="395"/>
      <point x="362" y="460"/>
      <point x="362" y="540" type="curve" smooth="yes"/>
      <point x="362" y="658"/>
      <point x="292" y="708"/>
      <point x="218" y="708" type="curve" smooth="yes"/>
      <point x="148" y="708"/>
      <point x="72" y="659"/>
      <point x="72" y="544" type="curve" smooth="yes"/>
      <point x="72" y="462"/>
      <point x="109" y="403"/>
      <point x="164" y="361" type="curve"/>
      <point x="99" y="312"/>
      <point x="55" y="249"/>
      <point x="55" y="166" type="curve" smooth="yes"/>
      <point x="55" y="62"/>
      <point x="120" y="-13"/>
    </contour>
    <contour>
      <point x="216" y="37" type="curve" smooth="yes"/>
      <point x="153" y="37"/>
      <point x="115" y="90"/>
      <point x="115" y="171" type="curve" smooth="yes"/>
      <point x="115" y="249"/>
      <point x="151" y="295"/>
      <point x="202" y="335" type="curve"/>
      <point x="259" y="292"/>
      <point x="313" y="242"/>
      <point x="313" y="167" type="curve" smooth="yes"/>
      <point x="313" y="81"/>
      <point x="268" y="37"/>
    </contour>
    <contour>
      <point x="226" y="377" type="curve"/>
      <point x="166" y="420"/>
      <point x="131" y="465"/>
      <point x="131" y="549" type="curve" smooth="yes"/>
      <point x="131" y="636"/>
      <point x="181" y="658"/>
      <point x="218" y="658" type="curve" smooth="yes"/>
      <point x="266" y="658"/>
      <point x="302" y="627"/>
      <point x="302" y="535" type="curve" smooth="yes"/>
      <point x="302" y="459"/>
      <point x="272" y="420"/>
    </contour>
  </outline>
</glyph>
<glyph name="nine" format="2">
  <advance width="428"/>
  <unicode hex="0039"/>
  <outline>
    <contour>
      <point x="94" y="-2" type="line"/>
      <point x="299" y="8"/>
      <point x="360" y="200"/>
      <point x="360" y="400" type="curve" smooth="yes"/>
      <point x="360" y="628"/>
      <point x="308" y="708"/>
      <point x="205" y="708" type="curve" smooth="yes"/>
      <point x="107" y="708"/>
      <point x="59" y="622"/>
      <point x="59" y="482" type="curve" smooth="yes"/>
      <point x="59" y="352"/>
      <point x="112" y="272"/>
      <point x="205" y="272" type="curve" smooth="yes"/>
      <point x="235" y="272"/>
      <point x="265" y="281"/>
      <point x="294" y="295" type="curve"/>
      <point x="271" y="114"/>
      <point x="193" y="59"/>
      <point x="87" y="49" type="curve"/>
    </contour>
    <contour>
      <point x="219" y="323" type="curve" smooth="yes"/>
      <point x="152" y="323"/>
      <point x="120" y="379"/>
      <point x="120" y="486" type="curve" smooth="yes"/>
      <point x="120" y="588"/>
      <point x="144" y="656"/>
      <point x="206" y="656" type="curve" smooth="yes"/>
      <point x="287" y="656"/>
      <point x="300" y="540"/>
      <point x="300" y="405" type="curve" smooth="yes"/>
      <point x="300" y="389"/>
      <point x="299" y="368"/>
      <point x="298" y="348" type="curve"/>
      <point x="273" y="331"/>
      <point x="244" y="323"/>
    </contour>
  </outline>
</glyph>
<glyph name="less" format="2">
  <advance width="430"/>
  <unicode hex="003C"/>
  <outline>
    <contour>
      <point x="351" y="90" type="line"/>
      <point x="377" y="124" type="line"/>
      <point x="103" y="291" type="line"/>
      <point x="377" y="458" type="line"/>
      <point x="351" y="492" type="line"/>
      <point x="50" y="307" type="line"/>
      <point x="50" y="276" type="line"/>
    </contour>
  </outline>
</glyph>
<glyph name="equal" format="2">
  <advance width="428"/>
  <unicode hex="003D"/>
  <outline>
    <contour>
      <point x="44" y="368" type="line"/>
      <point x="383" y="368" type="line"/>
      <point x="383" y="421" type="line"/>
      <point x="44" y="421" type="line"/>
    </contour>
    <contour>
      <point x="44" y="177" type="line"/>
      <point x="383" y="177" type="line"/>
      <point x="383" y="230" type="line"/>
      <point x="44" y="230" type="line"/>
    </contour>
  </outline>
</glyph>
<glyph name="greater" format="2">
  <advance width="427"/>
  <unicode hex="003E"/>
  <outline>
    <contour>
      <point x="77" y="87" type="line"/>
      <point x="379" y="272" type="line"/>
      <point x="379" y="314" type="line"/>
      <point x="77" y="499" type="line"/>
      <point x="50" y="452" type="line"/>
      <point x="314" y="293" type="line"/>
      <point x="50" y="133" type="line"/>
    </contour>
  </outline>
</glyph>
<glyph name="question" format="2">
  <advance width="327"/>
  <unicode hex="003F"/>
  <outline>
    <contour>
      <point x="97" y="203" type="curve"/>
      <point x="164" y="203" type="line"/>
      <point x="162" y="215"/>
      <point x="162" y="232"/>
      <point x="162" y="240" type="curve" smooth="yes"/>
      <point x="162" y="385"/>
      <point x="304" y="412"/>
      <point x="304" y="555" type="curve" smooth="yes"/>
      <point x="304" y="647"/>
      <point x="242" y="708"/>
      <point x="141" y="708" type="curve" smooth="yes"/>
      <point x="101" y="708"/>
      <point x="58" y="695"/>
      <point x="21" y="669" type="curve"/>
      <point x="51" y="616" type="line"/>
      <point x="69" y="631"/>
      <point x="100" y="645"/>
      <point x="134" y="645" type="curve" smooth="yes"/>
      <point x="200" y="645"/>
      <point x="227" y="600"/>
      <point x="227" y="546" type="curve" smooth="yes"/>
      <point x="227" y="422"/>
      <point x="93" y="410"/>
      <point x="93" y="246" type="curve" smooth="yes"/>
      <point x="93" y="231"/>
      <point x="95" y="216"/>
    </contour>
    <contour>
      <point x="131" y="-10" type="curve" smooth="yes"/>
      <point x="159" y="-10"/>
      <point x="180" y="12"/>
      <point x="180" y="38" type="curve" smooth="yes"/>
      <point x="180" y="65"/>
      <point x="160" y="88"/>
      <point x="131" y="88" type="curve" smooth="yes"/>
      <point x="102" y="88"/>
      <point x="83" y="65"/>
      <point x="83" y="38" type="curve" smooth="yes"/>
      <point x="83" y="12"/>
      <point x="103" y="-10"/>
    </contour>
  </outline>
</glyph>
<glyph name="at" format="2">
  <advance width="818"/>
  <unicode hex="0040"/>
  <outline>
    <contour>
      <point x="412" y="-151" type="curve" smooth="yes"/>
      <point x="467" y="-151"/>
      <point x="519" y="-141"/>
      <point x="542" y="-131" type="curve"/>
      <point x="533" y="-76" type="line"/>
      <point x="512" y="-83"/>
      <point x="465" y="-95"/>
      <point x="413" y="-95" type="curve" smooth="yes"/>
      <point x="229" y="-95"/>
      <point x="131" y="47"/>
      <point x="131" y="279" type="curve" smooth="yes"/>
      <point x="131" y="517"/>
      <point x="244" y="651"/>
      <point x="415" y="651" type="curve" smooth="yes"/>
      <point x="613" y="651"/>
      <point x="687" y="523"/>
      <point x="687" y="322" type="curve" smooth="yes"/>
      <point x="687" y="156"/>
      <point x="653" y="107"/>
      <point x="604" y="107" type="curve" smooth="yes"/>
      <point x="560" y="107"/>
      <point x="549" y="133"/>
      <point x="549" y="189" type="curve" smooth="yes"/>
      <point x="549" y="483" type="line"/>
      <point x="523" y="496"/>
      <point x="481" y="507"/>
      <point x="433" y="507" type="curve" smooth="yes"/>
      <point x="326" y="507"/>
      <point x="256" y="424"/>
      <point x="256" y="279" type="curve" smooth="yes"/>
      <point x="256" y="139"/>
      <point x="304" y="53"/>
      <point x="408" y="53" type="curve" smooth="yes"/>
      <point x="445" y="53"/>
      <point x="474" y="60"/>
      <point x="507" y="91" type="curve"/>
      <point x="529" y="65"/>
      <point x="559" y="52"/>
      <point x="604" y="52" type="curve" smooth="yes"/>
      <point x="706" y="52"/>
      <point x="751" y="155"/>
      <point x="751" y="320" type="curve" smooth="yes"/>
      <point x="751" y="557"/>
      <point x="637" y="707"/>
      <point x="412" y="707" type="curve" smooth="yes"/>
      <point x="210" y="707"/>
      <point x="67" y="552"/>
      <point x="67" y="279" type="curve" smooth="yes"/>
      <point x="67" y="0"/>
      <point x="198" y="-151"/>
    </contour>
    <contour>
      <point x="427" y="111" type="curve" smooth="yes"/>
      <point x="348" y="111"/>
      <point x="327" y="182"/>
      <point x="327" y="280" type="curve" smooth="yes"/>
      <point x="327" y="395"/>
      <point x="364" y="449"/>
      <point x="431" y="449" type="curve" smooth="yes"/>
      <point x="445" y="449"/>
      <point x="464" y="447"/>
      <point x="480" y="441" type="curve"/>
      <point x="480" y="190" type="line" smooth="yes"/>
      <point x="480" y="170"/>
      <point x="482" y="155"/>
      <point x="486" y="135" type="curve"/>
      <point x="470" y="119"/>
      <point x="442" y="111"/>
    </contour>
  </outline>
</glyph>
<glyph name="A" format="2">
  <advance width="472"/>
  <unicode hex="0041"/>
  <anchor x="237" y="0" name="bottom"/>
  <anchor x="425" y="10" name="ogonek"/>
  <anchor x="237" y="693" name="top"/>
  <outline>
    <contour>
      <point x="26" y="0" type="curve"/>
      <point x="73" y="0" type="line"/>
      <point x="83" y="63"/>
      <point x="95" y="128"/>
      <point x="109" y="194" type="curve"/>
      <point x="360" y="194" type="line"/>
      <point x="375" y="128"/>
      <point x="387" y="63"/>
      <point x="397" y="0" type="curve"/>
      <point x="446" y="0" type="line"/>
      <point x="408" y="234"/>
      <point x="345" y="454"/>
      <point x="262" y="693" type="curve"/>
      <point x="207" y="693" type="line"/>
      <point x="127" y="454"/>
      <point x="65" y="234"/>
    </contour>
    <contour>
      <point x="120" y="238" type="line"/>
      <point x="150" y="370"/>
      <point x="188" y="506"/>
      <point x="235" y="642" type="curve"/>
      <point x="282" y="506"/>
      <point x="320" y="370"/>
      <point x="351" y="238" type="curve"/>
    </contour>
  </outline>
</glyph>
<glyph name="B" format="2">
  <advance width="514"/>
  <unicode hex="0042"/>
  <anchor x="258" y="0" name="bottom"/>
  <anchor x="258" y="347" name="center"/>
  <anchor x="258" y="693" name="top"/>
  <outline>
    <contour>
      <point x="235" y="-4" type="curve" smooth="yes"/>
      <point x="375" y="-4"/>
      <point x="468" y="47"/>
      <point x="468" y="191" type="curve" smooth="yes"/>
      <point x="468" y="278"/>
      <point x="420" y="337"/>
      <point x="342" y="362" type="curve"/>
      <point x="401" y="384"/>
      <point x="445" y="440"/>
      <point x="445" y="525" type="curve" smooth="yes"/>
      <point x="445" y="651"/>
      <point x="359" y="699"/>
      <point x="224" y="699" type="curve" smooth="yes"/>
      <point x="176" y="699"/>
      <point x="127" y="692"/>
      <point x="86" y="683" type="curve"/>
      <point x="86" y="12" type="line"/>
      <point x="136" y="3"/>
      <point x="186" y="-4"/>
    </contour>
    <contour>
      <point x="242" y="57" type="curve" smooth="yes"/>
      <point x="221" y="57"/>
      <point x="190" y="60"/>
      <point x="159" y="66" type="curve"/>
      <point x="159" y="332" type="line"/>
      <point x="241" y="332" type="line" smooth="yes"/>
      <point x="358" y="332"/>
      <point x="394" y="270"/>
      <point x="394" y="193" type="curve" smooth="yes"/>
      <point x="394" y="97"/>
      <point x="351" y="57"/>
    </contour>
    <contour>
      <point x="159" y="391" type="line"/>
      <point x="159" y="632" type="line"/>
      <point x="181" y="634"/>
      <point x="212" y="637"/>
      <point x="227" y="637" type="curve" smooth="yes"/>
      <point x="314" y="637"/>
      <point x="370" y="611"/>
      <point x="370" y="513" type="curve" smooth="yes"/>
      <point x="370" y="441"/>
      <point x="340" y="391"/>
      <point x="234" y="391" type="curve" smooth="yes"/>
    </contour>
  </outline>
</glyph>
<glyph name="C" format="2">
  <advance width="454"/>
  <unicode hex="0043"/>
  <anchor x="228" y="0" name="bottom"/>
  <anchor x="228" y="693" name="top"/>
  <outline>
    <contour>
      <point x="298" y="-11" type="curve" smooth="yes"/>
      <point x="349" y="-11"/>
      <point x="397" y="3"/>
      <point x="432" y="26" type="curve"/>
      <point x="419" y="65" type="line"/>
      <point x="380" y="46"/>
      <point x="345" y="33"/>
      <point x="302" y="33" type="curve" smooth="yes"/>
      <point x="176" y="33"/>
      <point x="112" y="146"/>
      <point x="112" y="344" type="curve" smooth="yes"/>
      <point x="112" y="555"/>
      <point x="170" y="660"/>
      <point x="295" y="660" type="curve" smooth="yes"/>
      <point x="338" y="660"/>
      <point x="379" y="647"/>
      <point x="410" y="631" type="curve"/>
      <point x="424" y="671" type="line"/>
      <point x="389" y="691"/>
      <point x="344" y="704"/>
      <point x="294" y="704" type="curve" smooth="yes"/>
      <point x="146" y="704"/>
      <point x="60" y="586"/>
      <point x="60" y="344" type="curve" smooth="yes"/>
      <point x="60" y="116"/>
      <point x="147" y="-11"/>
    </contour>
  </outline>
</glyph>
<glyph name="D" format="2">
  <advance width="570"/>
  <unicode hex="0044"/>
  <anchor x="285" y="0" name="bottom"/>
  <anchor x="285" y="347" name="center"/>
  <anchor x="285" y="693" name="top"/>
  <outline>
    <contour>
      <point x="224" y="-6" type="curve" smooth="yes"/>
      <point x="406" y="-6"/>
      <point x="513" y="97"/>
      <point x="513" y="347" type="curve" smooth="yes"/>
      <point x="513" y="597"/>
      <point x="404" y="700"/>
      <point x="218" y="700" type="curve" smooth="yes"/>
      <point x="177" y="700"/>
      <point x="132" y="694"/>
      <point x="85" y="684" type="curve"/>
      <point x="85" y="9" type="line"/>
      <point x="135" y="-1"/>
      <point x="181" y="-6"/>
    </contour>
    <contour>
      <point x="225" y="59" type="curve" smooth="yes"/>
      <point x="202" y="59"/>
      <point x="180" y="60"/>
      <point x="158" y="63" type="curve"/>
      <point x="158" y="630" type="line"/>
      <point x="178" y="634"/>
      <point x="198" y="635"/>
      <point x="218" y="635" type="curve" smooth="yes"/>
      <point x="373" y="635"/>
      <point x="437" y="552"/>
      <point x="437" y="347" type="curve" smooth="yes"/>
      <point x="437" y="141"/>
      <point x="375" y="59"/>
    </contour>
  </outline>
</glyph>
<glyph name="E" format="2">
  <advance width="447"/>
  <unicode hex="0045"/>
  <anchor x="223" y="0" name="bottom"/>
  <anchor x="401" y="10" name="ogonek"/>
  <anchor x="223" y="693" name="top"/>
  <anchor x="20" y="693" name="topleft"/>
  <outline>
    <contour>
      <point x="86" y="0" type="line"/>
      <point x="399" y="0" type="line"/>
      <point x="399" y="63" type="line"/>
      <point x="159" y="63" type="line"/>
      <point x="159" y="333" type="line"/>
      <point x="362" y="333" type="line"/>
      <point x="362" y="394" type="line"/>
      <point x="159" y="394" type="line"/>
      <point x="159" y="630" type="line"/>
      <point x="384" y="630" type="line"/>
      <point x="384" y="693" type="line"/>
      <point x="86" y="693" type="line"/>
    </contour>
  </outline>
</glyph>
<glyph name="F" format="2">
  <advance width="409"/>
  <unicode hex="0046"/>
  <anchor x="206" y="0" name="bottom"/>
  <anchor x="206" y="693" name="top"/>
  <outline>
    <contour>
      <point x="86" y="0" type="line"/>
      <point x="149" y="0" type="line"/>
      <point x="149" y="334" type="line"/>
      <point x="349" y="334" type="line"/>
      <point x="349" y="388" type="line"/>
      <point x="149" y="388" type="line"/>
      <point x="149" y="638" type="line"/>
      <point x="374" y="638" type="line"/>
      <point x="374" y="693" type="line"/>
      <point x="86" y="693" type="line"/>
    </contour>
  </outline>
</glyph>
<glyph name="G" format="2">
  <advance width="514"/>
  <unicode hex="0047"/>
  <anchor x="258" y="0" name="bottom"/>
  <anchor x="258" y="693" name="top"/>
  <outline>
    <contour>
      <point x="304" y="-13" type="curve" smooth="yes"/>
      <point x="354" y="-13"/>
      <point x="406" y="1"/>
      <point x="442" y="20" type="curve"/>
      <point x="442" y="331" type="line"/>
      <point x="378" y="331" type="line"/>
      <point x="378" y="57" type="line"/>
      <point x="358" y="50"/>
      <point x="332" y="43"/>
      <point x="308" y="43" type="curve" smooth="yes"/>
      <point x="190" y="43"/>
      <point x="126" y="141"/>
      <point x="126" y="347" type="curve" smooth="yes"/>
      <point x="126" y="548"/>
      <point x="181" y="650"/>
      <point x="302" y="650" type="curve" smooth="yes"/>
      <point x="351" y="650"/>
      <point x="387" y="635"/>
      <point x="419" y="617" type="curve"/>
      <point x="439" y="669" type="line"/>
      <point x="407" y="689"/>
      <point x="357" y="706"/>
      <point x="300" y="706" type="curve" smooth="yes"/>
      <point x="150" y="706"/>
      <point x="58" y="593"/>
      <point x="58" y="347" type="curve" smooth="yes"/>
      <point x="58" y="108"/>
      <point x="151" y="-13"/>
    </contour>
  </outline>
</glyph>
<glyph name="H" format="2">
  <advance width="569"/>
  <unicode hex="0048"/>
  <anchor x="285" y="0" name="bottom"/>
  <anchor x="285" y="347" name="center"/>
  <anchor x="285" y="693" name="top"/>
  <anchor x="20" y="693" name="topleft"/>
  <outline>
    <contour>
      <point x="86" y="0" type="line"/>
      <point x="159" y="0" type="line"/>
      <point x="159" y="329" type="line"/>
      <point x="411" y="329" type="line"/>
      <point x="411" y="0" type="line"/>
      <point x="483" y="0" type="line"/>
      <point x="483" y="693" type="line"/>
      <point x="411" y="693" type="line"/>
      <point x="411" y="393" type="line"/>
      <point x="159" y="393" type="line"/>
      <point x="159" y="693" type="line"/>
      <point x="86" y="693" type="line"/>
    </contour>
  </outline>
</glyph>
<glyph name="I" format="2">
  <advance width="223"/>
  <unicode hex="0049"/>
  <anchor x="114" y="0" name="bottom"/>
  <anchor x="206" y="10" name="ogonek"/>
  <anchor x="114" y="693" name="top"/>
  <anchor x="18" y="693" name="topleft"/>
  <outline>
    <contour>
      <point x="87" y="0" type="line"/>
      <point x="136" y="0" type="line"/>
      <point x="136" y="693" type="line"/>
      <point x="87" y="693" type="line"/>
    </contour>
  </outline>
</glyph>
<glyph name="J" format="2">
  <advance width="384"/>
  <unicode hex="004A"/>
  <anchor x="192" y="0" name="bottom"/>
  <anchor x="192" y="693" name="top"/>
  <outline>
    <contour>
      <point x="135" y="-12" type="curve" smooth="yes"/>
      <point x="248" y="-12"/>
      <point x="303" y="50"/>
      <point x="303" y="183" type="curve" smooth="yes"/>
      <point x="303" y="693" type="line"/>
      <point x="230" y="693" type="line"/>
      <point x="230" y="180" type="line" smooth="yes"/>
      <point x="230" y="81"/>
      <point x="195" y="52"/>
      <point x="134" y="52" type="curve" smooth="yes"/>
      <point x="104" y="52"/>
      <point x="57" y="63"/>
      <point x="28" y="84" type="curve"/>
      <point x="6" y="27" type="line"/>
      <point x="51" y="-7"/>
      <point x="103" y="-12"/>
    </contour>
  </outline>
</glyph>
<glyph name="K" format="2">
  <advance width="470"/>
  <unicode hex="004B"/>
  <anchor x="238" y="0" name="bottom"/>
  <anchor x="238" y="693" name="top"/>
  <outline>
    <contour>
      <point x="87" y="0" type="line"/>
      <point x="136" y="0" type="line"/>
      <point x="136" y="343" type="line"/>
      <point x="238" y="260"/>
      <point x="333" y="126"/>
      <point x="396" y="0" type="curve"/>
      <point x="453" y="0" type="line"/>
      <point x="395" y="122"/>
      <point x="284" y="274"/>
      <point x="183" y="363" type="curve"/>
      <point x="267" y="460"/>
      <point x="349" y="571"/>
      <point x="429" y="693" type="curve"/>
      <point x="376" y="693" type="line"/>
      <point x="309" y="590"/>
      <point x="225" y="476"/>
      <point x="136" y="374" type="curve"/>
      <point x="136" y="693" type="line"/>
      <point x="87" y="693" type="line"/>
    </contour>
  </outline>
</glyph>
<glyph name="L" format="2">
  <advance width="393"/>
  <unicode hex="004C"/>
  <anchor x="198" y="0" name="bottom"/>
  <anchor x="198" y="347" name="center"/>
  <anchor x="198" y="693" name="top"/>
  <anchor x="375" y="693" name="topright"/>
  <outline>
    <contour>
      <point x="87" y="0" type="line"/>
      <point x="362" y="0" type="line"/>
      <point x="362" y="43" type="line"/>
      <point x="136" y="43" type="line"/>
      <point x="136" y="693" type="line"/>
      <point x="87" y="693" type="line"/>
    </contour>
  </outline>
</glyph>
<glyph name="M" format="2">
  <advance width="720"/>
  <unicode hex="004D"/>
  <anchor x="360" y="0" name="bottom"/>
  <anchor x="360" y="693" name="top"/>
  <outline>
    <contour>
      <point x="72" y="0" type="curve"/>
      <point x="142" y="0" type="line"/>
      <point x="145" y="192"/>
      <point x="152" y="418"/>
      <point x="162" y="579" type="curve"/>
      <point x="223" y="439"/>
      <point x="263" y="317"/>
      <point x="328" y="98" type="curve"/>
      <point x="392" y="98" type="line"/>
      <point x="440" y="234"/>
      <point x="493" y="435"/>
      <point x="557" y="583" type="curve"/>
      <point x="568" y="424"/>
      <point x="575" y="192"/>
      <point x="579" y="0" type="curve"/>
      <point x="648" y="0" type="line"/>
      <point x="642" y="247"/>
      <point x="631" y="501"/>
      <point x="613" y="693" type="curve"/>
      <point x="540" y="693" type="line"/>
      <point x="487" y="569"/>
      <point x="415" y="370"/>
      <point x="362" y="196" type="curve"/>
      <point x="317" y="346"/>
      <point x="234" y="566"/>
      <point x="179" y="693" type="curve"/>
      <point x="107" y="693" type="line"/>
      <point x="89" y="489"/>
      <point x="80" y="246"/>
    </contour>
  </outline>
</glyph>
<glyph name="N" format="2">
  <advance width="563"/>
  <unicode hex="004E"/>
  <anchor x="283" y="0" name="bottom"/>
  <anchor x="283" y="693" name="top"/>
  <outline>
    <contour>
      <point x="87" y="0" type="line"/>
      <point x="133" y="0" type="line"/>
      <point x="133" y="612" type="line"/>
      <point x="232" y="442"/>
      <point x="343" y="215"/>
      <point x="433" y="0" type="curve"/>
      <point x="476" y="0" type="line"/>
      <point x="476" y="693" type="line"/>
      <point x="431" y="693" type="line"/>
      <point x="431" y="108" type="line"/>
      <point x="349" y="298"/>
      <point x="239" y="517"/>
      <point x="133" y="693" type="curve"/>
      <point x="87" y="693" type="line"/>
    </contour>
  </outline>
</glyph>
<glyph name="O" format="2">
  <advance width="597"/>
  <unicode hex="004F"/>
  <anchor x="299" y="0" name="bottom"/>
  <anchor x="299" y="347" name="center"/>
  <anchor x="538" y="10" name="ogonek"/>
  <anchor x="299" y="693" name="top"/>
  <anchor x="20" y="693" name="topleft"/>
  <anchor x="577" y="693" name="topright"/>
  <outline>
    <contour>
      <point x="299" y="-12" type="curve" smooth="yes"/>
      <point x="460" y="-12"/>
      <point x="539" y="128"/>
      <point x="539" y="345" type="curve" smooth="yes"/>
      <point x="539" y="565"/>
      <point x="460" y="706"/>
      <point x="299" y="706" type="curve" smooth="yes"/>
      <point x="138" y="706"/>
      <point x="58" y="565"/>
      <point x="58" y="345" type="curve" smooth="yes"/>
      <point x="58" y="128"/>
      <point x="138" y="-12"/>
    </contour>
    <contour>
      <point x="299" y="52" type="curve" smooth="yes"/>
      <point x="186" y="52"/>
      <point x="135" y="166"/>
      <point x="135" y="345" type="curve" smooth="yes"/>
      <point x="135" y="526"/>
      <point x="186" y="642"/>
      <point x="299" y="642" type="curve" smooth="yes"/>
      <point x="413" y="642"/>
      <point x="462" y="526"/>
      <point x="462" y="345" type="curve" smooth="yes"/>
      <point x="462" y="166"/>
      <point x="413" y="52"/>
    </contour>
  </outline>
</glyph>
<glyph name="P" format="2">
  <advance width="460"/>
  <unicode hex="0050"/>
  <anchor x="231" y="0" name="bottom"/>
  <anchor x="231" y="693" name="top"/>
  <outline>
    <contour>
      <point x="87" y="0" type="line"/>
      <point x="136" y="0" type="line"/>
      <point x="136" y="272" type="line"/>
      <point x="196" y="272" type="line" smooth="yes"/>
      <point x="336" y="272"/>
      <point x="420" y="344"/>
      <point x="420" y="484" type="curve" smooth="yes"/>
      <point x="420" y="625"/>
      <point x="338" y="699"/>
      <point x="201" y="699" type="curve" smooth="yes"/>
      <point x="166" y="699"/>
      <point x="125" y="695"/>
      <point x="87" y="687" type="curve"/>
    </contour>
    <contour>
      <point x="136" y="317" type="line"/>
      <point x="136" y="649" type="line"/>
      <point x="155" y="653"/>
      <point x="179" y="655"/>
      <point x="198" y="655" type="curve" smooth="yes"/>
      <point x="309" y="655"/>
      <point x="370" y="601"/>
      <point x="370" y="484" type="curve" smooth="yes"/>
      <point x="370" y="370"/>
      <point x="310" y="317"/>
      <point x="196" y="317" type="curve" smooth="yes"/>
    </contour>
  </outline>
</glyph>
<glyph name="Q" format="2">
  <advance width="584"/>
  <unicode hex="0051"/>
  <anchor x="294" y="0" name="bottom"/>
  <anchor x="294" y="693" name="top"/>
  <outline>
    <contour>
      <point x="480" y="-167" type="curve"/>
      <point x="492" y="-124" type="line"/>
      <point x="397" y="-104"/>
      <point x="338" y="-74"/>
      <point x="331" y="-8" type="curve"/>
      <point x="457" y="14"/>
      <point x="523" y="143"/>
      <point x="523" y="345" type="curve" smooth="yes"/>
      <point x="523" y="569"/>
      <point x="443" y="705"/>
      <point x="292" y="705" type="curve" smooth="yes"/>
      <point x="141" y="705"/>
      <point x="60" y="569"/>
      <point x="60" y="345" type="curve" smooth="yes"/>
      <point x="60" y="126"/>
      <point x="139" y="-6"/>
      <point x="284" y="-10" type="curve"/>
      <point x="300" y="-111"/>
      <point x="373" y="-140"/>
    </contour>
    <contour>
      <point x="292" y="33" type="curve" smooth="yes"/>
      <point x="173" y="33"/>
      <point x="112" y="149"/>
      <point x="112" y="345" type="curve" smooth="yes"/>
      <point x="112" y="542"/>
      <point x="173" y="661"/>
      <point x="292" y="661" type="curve" smooth="yes"/>
      <point x="412" y="661"/>
      <point x="471" y="542"/>
      <point x="471" y="345" type="curve" smooth="yes"/>
      <point x="471" y="149"/>
      <point x="412" y="33"/>
    </contour>
  </outline>
</glyph>
<glyph name="R" format="2">
  <advance width="504"/>
  <unicode hex="0052"/>
  <anchor x="252" y="0" name="bottom"/>
  <anchor x="252" y="693" name="top"/>
  <outline>
    <contour>
      <point x="86" y="0" type="line"/>
      <point x="157" y="0" type="line"/>
      <point x="157" y="275" type="line"/>
      <point x="198" y="275" type="line" smooth="yes"/>
      <point x="218" y="275"/>
      <point x="242" y="276"/>
      <point x="261" y="279" type="curve"/>
      <point x="299" y="219"/>
      <point x="358" y="100"/>
      <point x="397" y="0" type="curve"/>
      <point x="471" y="0" type="line"/>
      <point x="426" y="121"/>
      <point x="359" y="251"/>
      <point x="328" y="300" type="curve"/>
      <point x="394" y="328"/>
      <point x="435" y="390"/>
      <point x="435" y="486" type="curve" smooth="yes"/>
      <point x="435" y="632"/>
      <point x="349" y="699"/>
      <point x="213" y="699" type="curve" smooth="yes"/>
      <point x="171" y="699"/>
      <point x="127" y="694"/>
      <point x="86" y="684" type="curve"/>
    </contour>
    <contour>
      <point x="157" y="336" type="line"/>
      <point x="157" y="630" type="line"/>
      <point x="174" y="633"/>
      <point x="195" y="634"/>
      <point x="214" y="634" type="curve" smooth="yes"/>
      <point x="304" y="634"/>
      <point x="359" y="593"/>
      <point x="359" y="486" type="curve" smooth="yes"/>
      <point x="359" y="380"/>
      <point x="306" y="336"/>
      <point x="207" y="336" type="curve" smooth="yes"/>
    </contour>
  </outline>
</glyph>
<glyph name="S" format="2">
  <advance width="391"/>
  <unicode hex="0053"/>
  <anchor x="195" y="0" name="bottom"/>
  <anchor x="195" y="693" name="top"/>
  <outline>
    <contour>
      <point x="166" y="-13" type="curve" smooth="yes"/>
      <point x="297" y="-13"/>
      <point x="364" y="70"/>
      <point x="364" y="178" type="curve" smooth="yes"/>
      <point x="364" y="291"/>
      <point x="292" y="339"/>
      <point x="229" y="380" type="curve" smooth="yes"/>
      <point x="168" y="420"/>
      <point x="113" y="454"/>
      <point x="113" y="532" type="curve" smooth="yes"/>
      <point x="113" y="606"/>
      <point x="161" y="645"/>
      <point x="231" y="645" type="curve" smooth="yes"/>
      <point x="264" y="645"/>
      <point x="297" y="635"/>
      <point x="327" y="617" type="curve"/>
      <point x="350" y="675" type="line"/>
      <point x="318" y="694"/>
      <point x="275" y="707"/>
      <point x="227" y="707" type="curve" smooth="yes"/>
      <point x="117" y="707"/>
      <point x="41" y="637"/>
      <point x="41" y="528" type="curve" smooth="yes"/>
      <point x="41" y="417"/>
      <point x="115" y="370"/>
      <point x="177" y="328" type="curve" smooth="yes"/>
      <point x="234" y="290"/>
      <point x="289" y="253"/>
      <point x="289" y="173" type="curve" smooth="yes"/>
      <point x="289" y="96"/>
      <point x="243" y="49"/>
      <point x="164" y="49" type="curve" smooth="yes"/>
      <point x="118" y="49"/>
      <point x="83" y="63"/>
      <point x="48" y="85" type="curve"/>
      <point x="25" y="26" type="line"/>
      <point x="64" y="2"/>
      <point x="110" y="-13"/>
    </contour>
  </outline>
</glyph>
<glyph name="T" format="2">
  <advance width="418"/>
  <unicode hex="0054"/>
  <anchor x="209" y="0" name="bottom"/>
  <anchor x="209" y="347" name="center"/>
  <anchor x="209" y="693" name="top"/>
  <outline>
    <contour>
      <point x="172" y="0" type="line"/>
      <point x="245" y="0" type="line"/>
      <point x="245" y="630" type="line"/>
      <point x="401" y="630" type="line"/>
      <point x="401" y="693" type="line"/>
      <point x="16" y="693" type="line"/>
      <point x="16" y="630" type="line"/>
      <point x="172" y="630" type="line"/>
    </contour>
  </outline>
</glyph>
<glyph name="U" format="2">
  <advance width="528"/>
  <unicode hex="0055"/>
  <anchor x="262" y="0" name="bottom"/>
  <anchor x="473" y="10" name="ogonek"/>
  <anchor x="262" y="693" name="top"/>
  <anchor x="505" y="693" name="topright"/>
  <outline>
    <contour>
      <point x="263" y="-10" type="curve" smooth="yes"/>
      <point x="387" y="-10"/>
      <point x="447" y="61"/>
      <point x="447" y="212" type="curve" smooth="yes"/>
      <point x="447" y="693" type="line"/>
      <point x="398" y="693" type="line"/>
      <point x="398" y="213" type="line" smooth="yes"/>
      <point x="398" y="93"/>
      <point x="358" y="35"/>
      <point x="264" y="35" type="curve" smooth="yes"/>
      <point x="171" y="35"/>
      <point x="130" y="92"/>
      <point x="130" y="213" type="curve" smooth="yes"/>
      <point x="130" y="693" type="line"/>
      <point x="81" y="693" type="line"/>
      <point x="81" y="212" type="line" smooth="yes"/>
      <point x="81" y="60"/>
      <point x="140" y="-10"/>
    </contour>
  </outline>
</glyph>
<glyph name="V" format="2">
  <advance width="488"/>
  <unicode hex="0056"/>
  <anchor x="245" y="0" name="bottom"/>
  <anchor x="245" y="693" name="top"/>
  <outline>
    <contour>
      <point x="206" y="0" type="curve"/>
      <point x="283" y="0" type="line"/>
      <point x="353" y="202"/>
      <point x="418" y="424"/>
      <point x="465" y="693" type="curve"/>
      <point x="393" y="693" type="line"/>
      <point x="353" y="461"/>
      <point x="303" y="275"/>
      <point x="245" y="87" type="curve"/>
      <point x="189" y="267"/>
      <point x="133" y="469"/>
      <point x="96" y="693" type="curve"/>
      <point x="22" y="693" type="line"/>
      <point x="55" y="469"/>
      <point x="129" y="216"/>
    </contour>
  </outline>
</glyph>
<glyph name="W" format="2">
  <advance width="737"/>
  <unicode hex="0057"/>
  <anchor x="365" y="0" name="bottom"/>
  <anchor x="365" y="693" name="top"/>
  <outline>
    <contour>
      <point x="165" y="0" type="curve"/>
      <point x="223" y="0" type="line"/>
      <point x="279" y="171"/>
      <point x="327" y="349"/>
      <point x="368" y="544" type="curve"/>
      <point x="410" y="349"/>
      <point x="458" y="171"/>
      <point x="514" y="0" type="curve"/>
      <point x="572" y="0" type="line"/>
      <point x="633" y="214"/>
      <point x="671" y="437"/>
      <point x="691" y="693" type="curve"/>
      <point x="642" y="693" type="line"/>
      <point x="629" y="476"/>
      <point x="597" y="265"/>
      <point x="542" y="48" type="curve"/>
      <point x="479" y="246"/>
      <point x="432" y="438"/>
      <point x="396" y="606" type="curve"/>
      <point x="341" y="606" type="line"/>
      <point x="305" y="439"/>
      <point x="258" y="247"/>
      <point x="196" y="51" type="curve"/>
      <point x="141" y="267"/>
      <point x="109" y="477"/>
      <point x="96" y="693" type="curve"/>
      <point x="46" y="693" type="line"/>
      <point x="66" y="437"/>
      <point x="104" y="214"/>
    </contour>
  </outline>
</glyph>
<glyph name="X" format="2">
  <advance width="441"/>
  <unicode hex="0058"/>
  <anchor x="222" y="0" name="bottom"/>
  <anchor x="222" y="693" name="top"/>
  <outline>
    <contour>
      <point x="19" y="0" type="curve"/>
      <point x="81" y="0" type="line"/>
      <point x="114" y="93"/>
      <point x="164" y="200"/>
      <point x="220" y="309" type="curve"/>
      <point x="273" y="207"/>
      <point x="320" y="105"/>
      <point x="358" y="0" type="curve"/>
      <point x="421" y="0" type="line"/>
      <point x="378" y="118"/>
      <point x="321" y="238"/>
      <point x="256" y="368" type="curve"/>
      <point x="413" y="693" type="line"/>
      <point x="350" y="693" type="line"/>
      <point x="220" y="419" type="line"/>
      <point x="91" y="693" type="line"/>
      <point x="25" y="693" type="line"/>
      <point x="184" y="364" type="line"/>
      <point x="116" y="225"/>
      <point x="60" y="108"/>
    </contour>
  </outline>
</glyph>
<glyph name="Y" format="2">
  <advance width="433"/>
  <unicode hex="0059"/>
  <anchor x="217" y="0" name="bottom"/>
  <anchor x="217" y="693" name="top"/>
  <anchor x="20" y="693" name="topleft"/>
  <outline>
    <contour>
      <point x="181" y="0" type="line"/>
      <point x="254" y="0" type="line"/>
      <point x="254" y="276" type="line"/>
      <point x="319" y="407"/>
      <point x="383" y="554"/>
      <point x="427" y="693" type="curve"/>
      <point x="353" y="693" type="line"/>
      <point x="323" y="591"/>
      <point x="284" y="483"/>
      <point x="217" y="349" type="curve"/>
      <point x="167" y="455"/>
      <point x="118" y="582"/>
      <point x="80" y="693" type="curve"/>
      <point x="5" y="693" type="line"/>
      <point x="55" y="550"/>
      <point x="121" y="389"/>
      <point x="181" y="270" type="curve"/>
    </contour>
  </outline>
</glyph>
<glyph name="Z" format="2">
  <advance width="417"/>
  <unicode hex="005A"/>
  <anchor x="210" y="0" name="bottom"/>
  <anchor x="210" y="347" name="center"/>
  <anchor x="210" y="693" name="top"/>
  <outline>
    <contour>
      <point x="35" y="0" type="line"/>
      <point x="380" y="0" type="line"/>
      <point x="380" y="55" type="line"/>
      <point x="103" y="55" type="line"/>
      <point x="171" y="241"/>
      <point x="280" y="473"/>
      <point x="373" y="642" type="curve"/>
      <point x="373" y="693" type="line"/>
      <point x="47" y="693" type="line"/>
      <point x="47" y="638" type="line"/>
      <point x="304" y="638" type="line"/>
      <point x="210" y="464"/>
      <point x="102" y="227"/>
      <point x="35" y="43" type="curve"/>
    </contour>
  </outline>
</glyph>
<glyph name="bracketleft" format="2">
  <advance width="252"/>
  <unicode hex="005B"/>
  <outline>
    <contour>
      <point x="88" y="-185" type="line"/>
      <point x="247" y="-185" type="line"/>
      <point x="247" y="-137" type="line"/>
      <point x="145" y="-137" type="line"/>
      <point x="145" y="734" type="line"/>
      <point x="247" y="734" type="line"/>
      <point x="247" y="783" type="line"/>
      <point x="88" y="783" type="line"/>
    </contour>
  </outline>
</glyph>
<glyph name="backslash" format="2">
  <advance width="238"/>
  <unicode hex="005C"/>
  <outline>
    <contour>
      <point x="220" y="-185" type="line"/>
      <point x="264" y="-185" type="line"/>
      <point x="21" y="783" type="line"/>
      <point x="-25" y="783" type="line"/>
    </contour>
  </outline>
</glyph>
<glyph name="bracketright" format="2">
  <advance width="269"/>
  <unicode hex="005D"/>
  <outline>
    <contour>
      <point x="6" y="-185" type="line"/>
      <point x="172" y="-185" type="line"/>
      <point x="172" y="783" type="line"/>
      <point x="6" y="783" type="line"/>
      <point x="6" y="726" type="line"/>
      <point x="106" y="726" type="line"/>
      <point x="106" y="-128" type="line"/>
      <point x="6" y="-128" type="line"/>
    </contour>
  </outline>
</glyph>
<glyph name="asciicircum" format="2">
  <advance width="426"/>
  <unicode hex="005E"/>
  <outline>
    <contour>
      <point x="98" y="325" type="line"/>
      <point x="214" y="623" type="line"/>
      <point x="330" y="325" type="line"/>
      <point x="373" y="340" type="line"/>
      <point x="236" y="686" type="line"/>
      <point x="191" y="686" type="line"/>
      <point x="54" y="340" type="line"/>
    </contour>
  </outline>
</glyph>
<glyph name="underscore" format="2">
  <advance width="327"/>
  <unicode hex="005F"/>
  <outline>
    <contour>
      <point x="-3" y="-183" type="line"/>
      <point x="330" y="-183" type="line"/>
      <point x="330" y="-132" type="line"/>
      <point x="-3" y="-132" type="line"/>
    </contour>
  </outline>
</glyph>
<glyph name="grave" format="2">
  <advance width="314"/>
  <unicode hex="0060"/>
  <outline>
    <contour>
      <point x="183" y="590" type="line"/>
      <point x="216" y="616" type="line"/>
      <point x="94" y="778" type="line"/>
      <point x="45" y="739" type="line"/>
    </contour>
  </outline>
</glyph>
<glyph name="a" format="2">
  <advance width="429"/>
  <unicode hex="0061"/>
  <anchor x="214" y="0" name="bottom"/>
  <anchor x="387" y="10" name="ogonek"/>
  <anchor x="214" y="518" name="top"/>
  <outline>
    <contour>
      <point x="213" y="-9" type="curve" smooth="yes"/>
      <point x="257" y="-9"/>
      <point x="308" y="-1"/>
      <point x="355" y="12" type="curve"/>
      <point x="355" y="368" type="line" smooth="yes"/>
      <point x="355" y="481"/>
      <point x="294" y="534"/>
      <point x="203" y="534" type="curve" smooth="yes"/>
      <point x="161" y="534"/>
      <point x="124" y="525"/>
      <point x="88" y="511" type="curve"/>
      <point x="103" y="452" type="line"/>
      <point x="134" y="465"/>
      <point x="163" y="471"/>
      <point x="194" y="471" type="curve" smooth="yes"/>
      <point x="254" y="471"/>
      <point x="287" y="440"/>
      <point x="287" y="364" type="curve" smooth="yes"/>
      <point x="287" y="302" type="line"/>
      <point x="260" y="308"/>
      <point x="233" y="312"/>
      <point x="207" y="312" type="curve" smooth="yes"/>
      <point x="110" y="312"/>
      <point x="43" y="257"/>
      <point x="43" y="151" type="curve" smooth="yes"/>
      <point x="43" y="41"/>
      <point x="116" y="-9"/>
    </contour>
    <contour>
      <point x="217" y="51" type="curve" smooth="yes"/>
      <point x="150" y="51"/>
      <point x="112" y="85"/>
      <point x="112" y="153" type="curve" smooth="yes"/>
      <point x="112" y="227"/>
      <point x="155" y="255"/>
      <point x="217" y="255" type="curve" smooth="yes"/>
      <point x="240" y="255"/>
      <point x="265" y="251"/>
      <point x="287" y="244" type="curve"/>
      <point x="287" y="59" type="line"/>
      <point x="261" y="53"/>
      <point x="237" y="51"/>
    </contour>
  </outline>
</glyph>
<glyph name="b" format="2">
  <advance width="451"/>
  <unicode hex="0062"/>
  <anchor x="222" y="0" name="bottom"/>
  <anchor x="222" y="259" name="center"/>
  <anchor x="222" y="520" name="top"/>
  <outline>
    <contour>
      <point x="210" y="-10" type="curve" smooth="yes"/>
      <point x="347" y="-10"/>
      <point x="400" y="96"/>
      <point x="400" y="263" type="curve" smooth="yes"/>
      <point x="400" y="456"/>
      <point x="326" y="532"/>
      <point x="225" y="532" type="curve" smooth="yes"/>
      <point x="190" y="532"/>
      <point x="158" y="521"/>
      <point x="139" y="508" type="curve"/>
      <point x="139" y="776" type="line"/>
      <point x="79" y="764" type="line"/>
      <point x="79" y="16" type="line"/>
      <point x="122" y="-1"/>
      <point x="161" y="-10"/>
    </contour>
    <contour>
      <point x="209" y="43" type="curve" smooth="yes"/>
      <point x="181" y="43"/>
      <point x="156" y="49"/>
      <point x="139" y="57" type="curve"/>
      <point x="139" y="455" type="line"/>
      <point x="156" y="469"/>
      <point x="186" y="479"/>
      <point x="218" y="479" type="curve" smooth="yes"/>
      <point x="271" y="479"/>
      <point x="337" y="448"/>
      <point x="337" y="263" type="curve" smooth="yes"/>
      <point x="337" y="93"/>
      <point x="289" y="43"/>
    </contour>
  </outline>
</glyph>
<glyph name="c" format="2">
  <advance width="345"/>
  <unicode hex="0063"/>
  <anchor x="172" y="0" name="bottom"/>
  <anchor x="172" y="517" name="top"/>
  <outline>
    <contour>
      <point x="233" y="-12" type="curve" smooth="yes"/>
      <point x="269" y="-12"/>
      <point x="304" y="-1"/>
      <point x="327" y="15" type="curve"/>
      <point x="314" y="62" type="line"/>
      <point x="291" y="50"/>
      <point x="266" y="42"/>
      <point x="238" y="42" type="curve" smooth="yes"/>
      <point x="151" y="42"/>
      <point x="114" y="127"/>
      <point x="114" y="259" type="curve" smooth="yes"/>
      <point x="114" y="407"/>
      <point x="153" y="479"/>
      <point x="234" y="479" type="curve" smooth="yes"/>
      <point x="262" y="479"/>
      <point x="288" y="473"/>
      <point x="308" y="462" type="curve"/>
      <point x="323" y="512" type="line"/>
      <point x="297" y="525"/>
      <point x="268" y="534"/>
      <point x="232" y="534" type="curve" smooth="yes"/>
      <point x="112" y="534"/>
      <point x="51" y="434"/>
      <point x="51" y="259" type="curve" smooth="yes"/>
      <point x="51" y="97"/>
      <point x="106" y="-12"/>
    </contour>
  </outline>
</glyph>
<glyph name="d" format="2">
  <advance width="443"/>
  <unicode hex="0064"/>
  <anchor x="221" y="0" name="bottom"/>
  <anchor x="221" y="258" name="center"/>
  <anchor x="221" y="776" name="top"/>
  <anchor x="423" y="776" name="topright"/>
  <outline>
    <contour>
      <point x="240" y="-11" type="curve" smooth="yes"/>
      <point x="286" y="-11"/>
      <point x="324" y="-1"/>
      <point x="362" y="17" type="curve"/>
      <point x="362" y="776" type="line"/>
      <point x="316" y="766" type="line"/>
      <point x="316" y="506" type="line"/>
      <point x="296" y="519"/>
      <point x="264" y="531"/>
      <point x="227" y="531" type="curve" smooth="yes"/>
      <point x="125" y="531"/>
      <point x="52" y="452"/>
      <point x="52" y="265" type="curve" smooth="yes"/>
      <point x="52" y="95"/>
      <point x="102" y="-11"/>
    </contour>
    <contour>
      <point x="240" y="31" type="curve" smooth="yes"/>
      <point x="152" y="31"/>
      <point x="100" y="89"/>
      <point x="100" y="265" type="curve" smooth="yes"/>
      <point x="100" y="454"/>
      <point x="172" y="489"/>
      <point x="229" y="489" type="curve" smooth="yes"/>
      <point x="264" y="489"/>
      <point x="296" y="478"/>
      <point x="316" y="462" type="curve"/>
      <point x="316" y="46" type="line"/>
      <point x="296" y="37"/>
      <point x="269" y="31"/>
    </contour>
  </outline>
</glyph>
<glyph name="e" format="2">
  <advance width="432"/>
  <unicode hex="0065"/>
  <anchor x="216" y="0" name="bottom"/>
  <anchor x="389" y="10" name="ogonek"/>
  <anchor x="216" y="518" name="top"/>
  <outline>
    <contour>
      <point x="245" y="-11" type="curve" smooth="yes"/>
      <point x="293" y="-11"/>
      <point x="334" y="4"/>
      <point x="358" y="18" type="curve"/>
      <point x="345" y="74" type="line"/>
      <point x="325" y="63"/>
      <point x="290" y="50"/>
      <point x="253" y="50" type="curve" smooth="yes"/>
      <point x="156" y="50"/>
      <point x="124" y="129"/>
      <point x="122" y="244" type="curve"/>
      <point x="379" y="244" type="line"/>
      <point x="380" y="261"/>
      <point x="380" y="277"/>
      <point x="380" y="290" type="curve" smooth="yes"/>
      <point x="380" y="446"/>
      <point x="331" y="534"/>
      <point x="223" y="534" type="curve" smooth="yes"/>
      <point x="118" y="534"/>
      <point x="52" y="445"/>
      <point x="52" y="260" type="curve" smooth="yes"/>
      <point x="52" y="96"/>
      <point x="108" y="-11"/>
    </contour>
    <contour>
      <point x="122" y="300" type="line"/>
      <point x="126" y="405"/>
      <point x="157" y="474"/>
      <point x="222" y="474" type="curve" smooth="yes"/>
      <point x="285" y="474"/>
      <point x="310" y="411"/>
      <point x="309" y="300" type="curve"/>
    </contour>
  </outline>
</glyph>
<glyph name="f" format="2">
  <advance width="274"/>
  <unicode hex="0066"/>
  <anchor x="138" y="0" name="bottom"/>
  <anchor x="138" y="776" name="top"/>
  <outline>
    <contour>
      <point x="81" y="0" type="line"/>
      <point x="127" y="0" type="line"/>
      <point x="127" y="477" type="line"/>
      <point x="270" y="477" type="line"/>
      <point x="270" y="519" type="line"/>
      <point x="127" y="519" type="line"/>
      <point x="127" y="607" type="line" smooth="yes"/>
      <point x="127" y="691"/>
      <point x="153" y="735"/>
      <point x="218" y="735" type="curve" smooth="yes"/>
      <point x="239" y="735"/>
      <point x="262" y="731"/>
      <point x="278" y="724" type="curve"/>
      <point x="288" y="762" type="line"/>
      <point x="271" y="770"/>
      <point x="242" y="776"/>
      <point x="214" y="776" type="curve" smooth="yes"/>
      <point x="125" y="776"/>
      <point x="81" y="717"/>
      <point x="81" y="607" type="curve" smooth="yes"/>
    </contour>
  </outline>
</glyph>
<glyph name="g" format="2">
  <advance width="451"/>
  <unicode hex="0067"/>
  <anchor x="226" y="-185" name="bottom"/>
  <anchor x="226" y="517" name="top"/>
  <outline>
    <contour>
      <point x="197" y="-188" type="curve" smooth="yes"/>
      <point x="301" y="-188"/>
      <point x="372" y="-135"/>
      <point x="372" y="4" type="curve"/>
      <point x="372" y="506" type="line"/>
      <point x="334" y="523"/>
      <point x="292" y="534"/>
      <point x="245" y="534" type="curve" smooth="yes"/>
      <point x="103" y="534"/>
      <point x="51" y="431"/>
      <point x="51" y="269" type="curve" smooth="yes"/>
      <point x="51" y="100"/>
      <point x="118" y="22"/>
      <point x="227" y="22" type="curve" smooth="yes"/>
      <point x="262" y="22"/>
      <point x="291" y="32"/>
      <point x="312" y="44" type="curve"/>
      <point x="312" y="8" type="line" smooth="yes"/>
      <point x="312" y="-100"/>
      <point x="270" y="-135"/>
      <point x="193" y="-135" type="curve" smooth="yes"/>
      <point x="157" y="-135"/>
      <point x="122" y="-125"/>
      <point x="96" y="-110" type="curve"/>
      <point x="83" y="-161" type="line"/>
      <point x="116" y="-178"/>
      <point x="157" y="-188"/>
    </contour>
    <contour>
      <point x="234" y="76" type="curve" smooth="yes"/>
      <point x="173" y="76"/>
      <point x="114" y="113"/>
      <point x="114" y="269" type="curve" smooth="yes"/>
      <point x="114" y="424"/>
      <point x="160" y="480"/>
      <point x="244" y="480" type="curve" smooth="yes"/>
      <point x="268" y="480"/>
      <point x="293" y="475"/>
      <point x="312" y="467" type="curve"/>
      <point x="312" y="98" type="line"/>
      <point x="293" y="85"/>
      <point x="264" y="76"/>
    </contour>
  </outline>
</glyph>
<glyph name="h" format="2">
  <advance width="474"/>
  <unicode hex="0068"/>
  <anchor x="237" y="0" name="bottom"/>
  <anchor x="237" y="388" name="center"/>
  <anchor x="237" y="776" name="top"/>
  <outline>
    <contour>
      <point x="80" y="0" type="line"/>
      <point x="149" y="0" type="line"/>
      <point x="149" y="458" type="line"/>
      <point x="184" y="470"/>
      <point x="205" y="473"/>
      <point x="228" y="473" type="curve" smooth="yes"/>
      <point x="308" y="473"/>
      <point x="330" y="417"/>
      <point x="330" y="309" type="curve" smooth="yes"/>
      <point x="330" y="0" type="line"/>
      <point x="399" y="0" type="line"/>
      <point x="399" y="315" type="line" smooth="yes"/>
      <point x="399" y="489"/>
      <point x="330" y="534"/>
      <point x="248" y="534" type="curve" smooth="yes"/>
      <point x="212" y="534"/>
      <point x="178" y="526"/>
      <point x="149" y="516" type="curve"/>
      <point x="149" y="776" type="line"/>
      <point x="80" y="763" type="line"/>
    </contour>
  </outline>
</glyph>
<glyph name="i" format="2">
  <advance width="208"/>
  <unicode hex="0069"/>
  <anchor x="103" y="0" name="bottom"/>
  <outline>
    <contour>
      <point x="81" y="0" type="line"/>
      <point x="127" y="0" type="line"/>
      <point x="127" y="519" type="line"/>
      <point x="81" y="519" type="line"/>
    </contour>
    <contour>
      <point x="105" y="633" type="curve" smooth="yes"/>
      <point x="126" y="633"/>
      <point x="141" y="648"/>
      <point x="141" y="670" type="curve" smooth="yes"/>
      <point x="141" y="691"/>
      <point x="126" y="707"/>
      <point x="105" y="707" type="curve" smooth="yes"/>
      <point x="83" y="707"/>
      <point x="68" y="691"/>
      <point x="68" y="670" type="curve" smooth="yes"/>
      <point x="68" y="648"/>
      <point x="83" y="633"/>
    </contour>
  </outline>
</glyph>
<glyph name="j" format="2">
  <advance width="208"/>
  <unicode hex="006A"/>
  <outline>
    <contour>
      <point x="12" y="-188" type="curve" smooth="yes"/>
      <point x="97" y="-188"/>
      <point x="127" y="-116"/>
      <point x="127" y="-38" type="curve" smooth="yes"/>
      <point x="127" y="520" type="line"/>
      <point x="81" y="520" type="line"/>
      <point x="81" y="-30" type="line" smooth="yes"/>
      <point x="81" y="-98"/>
      <point x="64" y="-145"/>
      <point x="5" y="-145" type="curve" smooth="yes"/>
      <point x="-5" y="-145"/>
      <point x="-21" y="-143"/>
      <point x="-34" y="-140" type="curve"/>
      <point x="-39" y="-180" type="line"/>
      <point x="-22" y="-186"/>
      <point x="-6" y="-188"/>
    </contour>
    <contour>
      <point x="105" y="633" type="curve" smooth="yes"/>
      <point x="126" y="633"/>
      <point x="141" y="648"/>
      <point x="141" y="670" type="curve" smooth="yes"/>
      <point x="141" y="691"/>
      <point x="126" y="707"/>
      <point x="105" y="707" type="curve" smooth="yes"/>
      <point x="83" y="707"/>
      <point x="68" y="691"/>
      <point x="68" y="670" type="curve" smooth="yes"/>
      <point x="68" y="648"/>
      <point x="83" y="633"/>
    </contour>
  </outline>
</glyph>
<glyph name="k" format="2">
  <advance width="407"/>
  <unicode hex="006B"/>
  <anchor x="204" y="0" name="bottom"/>
  <anchor x="204" y="776" name="top"/>
  <outline>
    <contour>
      <point x="80" y="0" type="line"/>
      <point x="149" y="0" type="line"/>
      <point x="149" y="258" type="line"/>
      <point x="208" y="201"/>
      <point x="278" y="86"/>
      <point x="323" y="0" type="curve"/>
      <point x="398" y="0" type="line"/>
      <point x="354" y="93"/>
      <point x="280" y="210"/>
      <point x="213" y="280" type="curve"/>
      <point x="277" y="354"/>
      <point x="313" y="417"/>
      <point x="377" y="523" type="curve"/>
      <point x="304" y="523" type="line"/>
      <point x="257" y="448"/>
      <point x="225" y="382"/>
      <point x="149" y="296" type="curve"/>
      <point x="149" y="776" type="line"/>
      <point x="80" y="763" type="line"/>
    </contour>
  </outline>
</glyph>
<glyph name="l" format="2">
  <advance width="223"/>
  <unicode hex="006C"/>
  <anchor x="111" y="0" name="bottom"/>
  <anchor x="111" y="388" name="center"/>
  <anchor x="111" y="776" name="top"/>
  <anchor x="202" y="776" name="topright"/>
  <outline>
    <contour>
      <point x="193" y="-6" type="curve"/>
      <point x="201" y="45" type="line"/>
      <point x="156" y="54"/>
      <point x="138" y="76"/>
      <point x="138" y="126" type="curve" smooth="yes"/>
      <point x="138" y="776" type="line"/>
      <point x="78" y="764" type="line"/>
      <point x="78" y="127" type="line" smooth="yes"/>
      <point x="78" y="43"/>
      <point x="114" y="0"/>
    </contour>
  </outline>
</glyph>
<glyph name="m" format="2">
  <advance width="676"/>
  <unicode hex="006D"/>
  <anchor x="338" y="0" name="bottom"/>
  <anchor x="338" y="517" name="top"/>
  <outline>
    <contour>
      <point x="80" y="0" type="line"/>
      <point x="140" y="0" type="line"/>
      <point x="140" y="463" type="line"/>
      <point x="165" y="472"/>
      <point x="192" y="478"/>
      <point x="214" y="478" type="curve" smooth="yes"/>
      <point x="286" y="478"/>
      <point x="310" y="433"/>
      <point x="310" y="327" type="curve" smooth="yes"/>
      <point x="310" y="0" type="line"/>
      <point x="371" y="0" type="line"/>
      <point x="371" y="334" type="line" smooth="yes"/>
      <point x="371" y="379"/>
      <point x="365" y="414"/>
      <point x="355" y="444" type="curve"/>
      <point x="379" y="465"/>
      <point x="412" y="478"/>
      <point x="444" y="478" type="curve" smooth="yes"/>
      <point x="516" y="478"/>
      <point x="541" y="433"/>
      <point x="541" y="327" type="curve" smooth="yes"/>
      <point x="541" y="0" type="line"/>
      <point x="601" y="0" type="line"/>
      <point x="601" y="334" type="line" smooth="yes"/>
      <point x="601" y="480"/>
      <point x="548" y="532"/>
      <point x="451" y="532" type="curve" smooth="yes"/>
      <point x="405" y="532"/>
      <point x="364" y="515"/>
      <point x="329" y="489" type="curve"/>
      <point x="303" y="519"/>
      <point x="266" y="532"/>
      <point x="218" y="532" type="curve" smooth="yes"/>
      <point x="173" y="532"/>
      <point x="123" y="519"/>
      <point x="80" y="504" type="curve"/>
    </contour>
  </outline>
</glyph>
<glyph name="n" format="2">
  <advance width="467"/>
  <unicode hex="006E"/>
  <anchor x="234" y="0" name="bottom"/>
  <anchor x="234" y="520" name="top"/>
  <outline>
    <contour>
      <point x="79" y="0" type="line"/>
      <point x="139" y="0" type="line"/>
      <point x="139" y="462" type="line"/>
      <point x="165" y="473"/>
      <point x="197" y="478"/>
      <point x="223" y="478" type="curve" smooth="yes"/>
      <point x="302" y="478"/>
      <point x="332" y="433"/>
      <point x="332" y="317" type="curve" smooth="yes"/>
      <point x="332" y="0" type="line"/>
      <point x="392" y="0" type="line"/>
      <point x="392" y="323" type="line" smooth="yes"/>
      <point x="392" y="466"/>
      <point x="343" y="531"/>
      <point x="226" y="531" type="curve" smooth="yes"/>
      <point x="174" y="531"/>
      <point x="125" y="520"/>
      <point x="79" y="504" type="curve"/>
    </contour>
  </outline>
</glyph>
<glyph name="o" format="2">
  <advance width="452"/>
  <unicode hex="006F"/>
  <anchor x="226" y="0" name="bottom"/>
  <anchor x="226" y="259" name="center"/>
  <anchor x="409" y="10" name="ogonek"/>
  <anchor x="226" y="517" name="top"/>
  <anchor x="434" y="517" name="topright"/>
  <outline>
    <contour>
      <point x="226" y="-12" type="curve" smooth="yes"/>
      <point x="342" y="-12"/>
      <point x="401" y="93"/>
      <point x="401" y="261" type="curve" smooth="yes"/>
      <point x="401" y="428"/>
      <point x="342" y="534"/>
      <point x="226" y="534" type="curve" smooth="yes"/>
      <point x="110" y="534"/>
      <point x="51" y="428"/>
      <point x="51" y="261" type="curve" smooth="yes"/>
      <point x="51" y="93"/>
      <point x="110" y="-12"/>
    </contour>
    <contour>
      <point x="226" y="43" type="curve" smooth="yes"/>
      <point x="151" y="43"/>
      <point x="114" y="127"/>
      <point x="114" y="261" type="curve" smooth="yes"/>
      <point x="114" y="395"/>
      <point x="151" y="479"/>
      <point x="226" y="479" type="curve" smooth="yes"/>
      <point x="301" y="479"/>
      <point x="338" y="395"/>
      <point x="338" y="261" type="curve" smooth="yes"/>
      <point x="338" y="127"/>
      <point x="301" y="43"/>
    </contour>
  </outline>
</glyph>
<glyph name="p" format="2">
  <advance width="459"/>
  <unicode hex="0070"/>
  <anchor x="230" y="0" name="bottom"/>
  <anchor x="230" y="518" name="top"/>
  <outline>
    <contour>
      <point x="79" y="-185" type="line"/>
      <point x="148" y="-185" type="line"/>
      <point x="148" y="10" type="line"/>
      <point x="169" y="-2"/>
      <point x="195" y="-11"/>
      <point x="229" y="-11" type="curve" smooth="yes"/>
      <point x="345" y="-11"/>
      <point x="407" y="76"/>
      <point x="407" y="259" type="curve" smooth="yes"/>
      <point x="407" y="429"/>
      <point x="353" y="533"/>
      <point x="208" y="533" type="curve" smooth="yes"/>
      <point x="161" y="533"/>
      <point x="117" y="522"/>
      <point x="79" y="506" type="curve"/>
    </contour>
    <contour>
      <point x="220" y="50" type="curve" smooth="yes"/>
      <point x="193" y="50"/>
      <point x="167" y="59"/>
      <point x="148" y="71" type="curve"/>
      <point x="148" y="462" type="line"/>
      <point x="167" y="469"/>
      <point x="188" y="472"/>
      <point x="209" y="472" type="curve" smooth="yes"/>
      <point x="293" y="472"/>
      <point x="336" y="416"/>
      <point x="336" y="260" type="curve" smooth="yes"/>
      <point x="336" y="93"/>
      <point x="284" y="50"/>
    </contour>
  </outline>
</glyph>
<glyph name="q" format="2">
  <advance width="451"/>
  <unicode hex="0071"/>
  <anchor x="225" y="0" name="bottom"/>
  <anchor x="225" y="517" name="top"/>
  <outline>
    <contour>
      <point x="312" y="-185" type="line"/>
      <point x="372" y="-185" type="line"/>
      <point x="372" y="506" type="line"/>
      <point x="334" y="523"/>
      <point x="292" y="534"/>
      <point x="245" y="534" type="curve" smooth="yes"/>
      <point x="103" y="534"/>
      <point x="51" y="427"/>
      <point x="51" y="257" type="curve" smooth="yes"/>
      <point x="51" y="72"/>
      <point x="116" y="-12"/>
      <point x="227" y="-12" type="curve" smooth="yes"/>
      <point x="262" y="-12"/>
      <point x="291" y="-1"/>
      <point x="312" y="11" type="curve"/>
    </contour>
    <contour>
      <point x="234" y="42" type="curve" smooth="yes"/>
      <point x="173" y="42"/>
      <point x="114" y="82"/>
      <point x="114" y="258" type="curve" smooth="yes"/>
      <point x="114" y="422"/>
      <point x="160" y="480"/>
      <point x="244" y="480" type="curve" smooth="yes"/>
      <point x="268" y="480"/>
      <point x="293" y="475"/>
      <point x="312" y="467" type="curve"/>
      <point x="312" y="66" type="line"/>
      <point x="293" y="52"/>
      <point x="264" y="42"/>
    </contour>
  </outline>
</glyph>
<glyph name="r" format="2">
  <advance width="298"/>
  <unicode hex="0072"/>
  <anchor x="151" y="0" name="bottom"/>
  <anchor x="151" y="515" name="top"/>
  <outline>
    <contour>
      <point x="81" y="0" type="line"/>
      <point x="127" y="0" type="line"/>
      <point x="127" y="469" type="line"/>
      <point x="153" y="481"/>
      <point x="181" y="487"/>
      <point x="212" y="487" type="curve" smooth="yes"/>
      <point x="239" y="487"/>
      <point x="262" y="484"/>
      <point x="282" y="477" type="curve"/>
      <point x="290" y="518" type="line"/>
      <point x="268" y="526"/>
      <point x="242" y="529"/>
      <point x="212" y="529" type="curve" smooth="yes"/>
      <point x="166" y="529"/>
      <point x="121" y="517"/>
      <point x="81" y="497" type="curve"/>
    </contour>
  </outline>
</glyph>
<glyph name="s" format="2">
  <advance width="331"/>
  <unicode hex="0073"/>
  <anchor x="166" y="0" name="bottom"/>
  <anchor x="166" y="518" name="top"/>
  <outline>
    <contour>
      <point x="152" y="-11" type="curve" smooth="yes"/>
      <point x="250" y="-11"/>
      <point x="304" y="51"/>
      <point x="304" y="137" type="curve" smooth="yes"/>
      <point x="304" y="224"/>
      <point x="251" y="258"/>
      <point x="200" y="288" type="curve" smooth="yes"/>
      <point x="157" y="313"/>
      <point x="115" y="338"/>
      <point x="115" y="396" type="curve" smooth="yes"/>
      <point x="115" y="445"/>
      <point x="141" y="474"/>
      <point x="191" y="474" type="curve" smooth="yes"/>
      <point x="219" y="474"/>
      <point x="246" y="467"/>
      <point x="269" y="455" type="curve"/>
      <point x="284" y="511" type="line"/>
      <point x="260" y="523"/>
      <point x="223" y="534"/>
      <point x="189" y="534" type="curve" smooth="yes"/>
      <point x="103" y="534"/>
      <point x="48" y="478"/>
      <point x="48" y="395" type="curve" smooth="yes"/>
      <point x="48" y="313"/>
      <point x="95" y="276"/>
      <point x="143" y="247" type="curve" smooth="yes"/>
      <point x="189" y="220"/>
      <point x="235" y="197"/>
      <point x="235" y="135" type="curve" smooth="yes"/>
      <point x="235" y="86"/>
      <point x="205" y="49"/>
      <point x="149" y="49" type="curve" smooth="yes"/>
      <point x="110" y="49"/>
      <point x="70" y="64"/>
      <point x="50" y="75" type="curve"/>
      <point x="36" y="17" type="line"/>
      <point x="60" y="5"/>
      <point x="105" y="-11"/>
    </contour>
  </outline>
</glyph>
<glyph name="t" format="2">
  <advance width="299"/>
  <unicode hex="0074"/>
  <anchor x="154" y="0" name="bottom"/>
  <anchor x="154" y="259" name="center"/>
  <anchor x="154" y="517" name="top"/>
  <anchor x="287" y="776" name="topright"/>
  <outline>
    <contour>
      <point x="210" y="-7" type="curve" smooth="yes"/>
      <point x="238" y="-7"/>
      <point x="264" y="-1"/>
      <point x="289" y="12" type="curve"/>
      <point x="277" y="61" type="line"/>
      <point x="259" y="52"/>
      <point x="239" y="47"/>
      <point x="217" y="47" type="curve" smooth="yes"/>
      <point x="165" y="47"/>
      <point x="136" y="77"/>
      <point x="136" y="150" type="curve" smooth="yes"/>
      <point x="136" y="468" type="line"/>
      <point x="271" y="468" type="line"/>
      <point x="271" y="521" type="line"/>
      <point x="136" y="521" type="line"/>
      <point x="136" y="681" type="line"/>
      <point x="76" y="669" type="line"/>
      <point x="76" y="153" type="line" smooth="yes"/>
      <point x="76" y="34"/>
      <point x="128" y="-7"/>
    </contour>
  </outline>
</glyph>
<glyph name="u" format="2">
  <advance width="471"/>
  <unicode hex="0075"/>
  <anchor x="236" y="0" name="bottom"/>
  <anchor x="424" y="10" name="ogonek"/>
  <anchor x="236" y="518" name="top"/>
  <anchor x="451" y="518" name="topright"/>
  <outline>
    <contour>
      <point x="255" y="-9" type="curve" smooth="yes"/>
      <point x="283" y="-9"/>
      <point x="352" y="3"/>
      <point x="392" y="18" type="curve"/>
      <point x="392" y="525" type="line"/>
      <point x="323" y="525" type="line"/>
      <point x="323" y="63" type="line"/>
      <point x="287" y="54"/>
      <point x="262" y="52"/>
      <point x="248" y="52" type="curve" smooth="yes"/>
      <point x="174" y="52"/>
      <point x="142" y="91"/>
      <point x="142" y="196" type="curve" smooth="yes"/>
      <point x="142" y="525" type="line"/>
      <point x="73" y="525" type="line"/>
      <point x="73" y="204" type="line" smooth="yes"/>
      <point x="73" y="16"/>
      <point x="149" y="-9"/>
    </contour>
  </outline>
</glyph>
<glyph name="v" format="2">
  <advance width="371"/>
  <unicode hex="0076"/>
  <anchor x="185" y="0" name="bottom"/>
  <anchor x="185" y="515" name="top"/>
  <outline>
    <contour>
      <point x="161" y="0" type="curve"/>
      <point x="210" y="0" type="line"/>
      <point x="260" y="110"/>
      <point x="323" y="345"/>
      <point x="351" y="519" type="curve"/>
      <point x="306" y="519" type="line"/>
      <point x="279" y="361"/>
      <point x="236" y="185"/>
      <point x="187" y="48" type="curve"/>
      <point x="136" y="183"/>
      <point x="94" y="361"/>
      <point x="68" y="519" type="curve"/>
      <point x="20" y="519" type="line"/>
      <point x="48" y="345"/>
      <point x="112" y="110"/>
    </contour>
  </outline>
</glyph>
<glyph name="w" format="2">
  <advance width="569"/>
  <unicode hex="0077"/>
  <anchor x="285" y="0" name="bottom"/>
  <anchor x="285" y="517" name="top"/>
  <outline>
    <contour>
      <point x="138" y="0" type="curve"/>
      <point x="202" y="0" type="line"/>
      <point x="232" y="101"/>
      <point x="272" y="275"/>
      <point x="289" y="407" type="curve"/>
      <point x="307" y="275"/>
      <point x="339" y="101"/>
      <point x="369" y="0" type="curve"/>
      <point x="430" y="0" type="line"/>
      <point x="481" y="160"/>
      <point x="520" y="331"/>
      <point x="546" y="521" type="curve"/>
      <point x="489" y="521" type="line"/>
      <point x="476" y="405"/>
      <point x="442" y="214"/>
      <point x="400" y="65" type="curve"/>
      <point x="361" y="212"/>
      <point x="332" y="407"/>
      <point x="319" y="521" type="curve"/>
      <point x="263" y="521" type="line"/>
      <point x="249" y="407"/>
      <point x="212" y="211"/>
      <point x="170" y="66" type="curve"/>
      <point x="127" y="215"/>
      <point x="95" y="405"/>
      <point x="82" y="521" type="curve"/>
      <point x="22" y="521" type="line"/>
      <point x="49" y="331"/>
      <point x="87" y="161"/>
    </contour>
  </outline>
</glyph>
<glyph name="x" format="2">
  <advance width="373"/>
  <unicode hex="0078"/>
  <anchor x="187" y="0" name="bottom"/>
  <anchor x="187" y="520" name="top"/>
  <outline>
    <contour>
      <point x="17" y="0" type="curve"/>
      <point x="77" y="0" type="line"/>
      <point x="98" y="66"/>
      <point x="140" y="151"/>
      <point x="185" y="232" type="curve"/>
      <point x="231" y="148"/>
      <point x="266" y="72"/>
      <point x="292" y="0" type="curve"/>
      <point x="355" y="0" type="line"/>
      <point x="326" y="77"/>
      <point x="283" y="166"/>
      <point x="222" y="278" type="curve"/>
      <point x="344" y="521" type="line"/>
      <point x="284" y="521" type="line"/>
      <point x="189" y="325" type="line"/>
      <point x="93" y="521" type="line"/>
      <point x="28" y="521" type="line"/>
      <point x="151" y="278" type="line"/>
      <point x="90" y="167"/>
      <point x="46" y="78"/>
    </contour>
  </outline>
</glyph>
<glyph name="y" format="2">
  <advance width="382"/>
  <unicode hex="0079"/>
  <anchor x="191" y="0" name="bottom"/>
  <anchor x="191" y="518" name="top"/>
  <outline>
    <contour>
      <point x="63" y="-188" type="curve" smooth="yes"/>
      <point x="140" y="-188"/>
      <point x="179" y="-138"/>
      <point x="232" y="16" type="curve" smooth="yes"/>
      <point x="272" y="135"/>
      <point x="333" y="335"/>
      <point x="367" y="523" type="curve"/>
      <point x="299" y="523" type="line"/>
      <point x="269" y="353"/>
      <point x="224" y="190"/>
      <point x="191" y="84" type="curve"/>
      <point x="154" y="199"/>
      <point x="115" y="376"/>
      <point x="89" y="523" type="curve"/>
      <point x="18" y="523" type="line"/>
      <point x="51" y="339"/>
      <point x="109" y="122"/>
      <point x="159" y="-12" type="curve"/>
      <point x="119" y="-102"/>
      <point x="100" y="-129"/>
      <point x="60" y="-129" type="curve" smooth="yes"/>
      <point x="51" y="-129"/>
      <point x="40" y="-129"/>
      <point x="16" y="-120" type="curve"/>
      <point x="4" y="-176" type="line"/>
      <point x="25" y="-185"/>
      <point x="44" y="-188"/>
    </contour>
  </outline>
</glyph>
<glyph name="z" format="2">
  <advance width="340"/>
  <unicode hex="007A"/>
  <anchor x="170" y="0" name="bottom"/>
  <anchor x="170" y="259" name="center"/>
  <anchor x="170" y="517" name="top"/>
  <outline>
    <contour>
      <point x="33" y="0" type="line"/>
      <point x="309" y="0" type="line"/>
      <point x="309" y="53" type="line"/>
      <point x="96" y="53" type="line"/>
      <point x="144" y="181"/>
      <point x="232" y="350"/>
      <point x="303" y="475" type="curve"/>
      <point x="303" y="521" type="line"/>
      <point x="46" y="521" type="line"/>
      <point x="46" y="468" type="line"/>
      <point x="238" y="468" type="line"/>
      <point x="172" y="353"/>
      <point x="85" y="183"/>
      <point x="33" y="45" type="curve"/>
    </contour>
  </outline>
</glyph>
<glyph name="braceleft" format="2">
  <advance width="257"/>
  <unicode hex="007B"/>
  <outline>
    <contour>
      <point x="249" y="-185" type="curve" smooth="yes"/>
      <point x="252" y="-185" type="line"/>
      <point x="252" y="-129" type="line"/>
      <point x="248" y="-129" type="line"/>
      <point x="197" y="-127"/>
      <point x="173" y="-104"/>
      <point x="173" y="-49" type="curve" smooth="yes"/>
      <point x="173" y="149" type="line" smooth="yes"/>
      <point x="173" y="230"/>
      <point x="147" y="272"/>
      <point x="100" y="298" type="curve"/>
      <point x="149" y="324"/>
      <point x="173" y="371"/>
      <point x="173" y="450" type="curve" smooth="yes"/>
      <point x="173" y="633" type="line" smooth="yes"/>
      <point x="173" y="701"/>
      <point x="197" y="724"/>
      <point x="247" y="727" type="curve"/>
      <point x="251" y="727" type="line"/>
      <point x="251" y="783" type="line"/>
      <point x="249" y="783" type="line" smooth="yes"/>
      <point x="155" y="783"/>
      <point x="106" y="742"/>
      <point x="106" y="629" type="curve" smooth="yes"/>
      <point x="106" y="449" type="line" smooth="yes"/>
      <point x="106" y="374"/>
      <point x="83" y="331"/>
      <point x="39" y="326" type="curve"/>
      <point x="39" y="272" type="line"/>
      <point x="83" y="267"/>
      <point x="106" y="224"/>
      <point x="106" y="149" type="curve" smooth="yes"/>
      <point x="106" y="-31" type="line" smooth="yes"/>
      <point x="106" y="-144"/>
      <point x="155" y="-185"/>
    </contour>
  </outline>
</glyph>
<glyph name="bar" format="2">
  <advance width="259"/>
  <unicode hex="007C"/>
  <outline>
    <contour>
      <point x="96" y="-185" type="line"/>
      <point x="163" y="-185" type="line"/>
      <point x="163" y="783" type="line"/>
      <point x="96" y="783" type="line"/>
    </contour>
  </outline>
</glyph>
<glyph name="braceright" format="2">
  <advance width="253"/>
  <unicode hex="007D"/>
  <outline>
    <contour>
      <point x="5" y="-185" type="line"/>
      <point x="12" y="-185" type="line"/>
      <point x="96" y="-185"/>
      <point x="145" y="-145"/>
      <point x="145" y="-36" type="curve" smooth="yes"/>
      <point x="145" y="151" type="line" smooth="yes"/>
      <point x="145" y="227"/>
      <point x="169" y="269"/>
      <point x="214" y="274" type="curve"/>
      <point x="214" y="323" type="line"/>
      <point x="169" y="328"/>
      <point x="145" y="370"/>
      <point x="145" y="446" type="curve" smooth="yes"/>
      <point x="145" y="634" type="line" smooth="yes"/>
      <point x="145" y="743"/>
      <point x="96" y="783"/>
      <point x="12" y="783" type="curve"/>
      <point x="6" y="783" type="line"/>
      <point x="6" y="733" type="line"/>
      <point x="12" y="733" type="line"/>
      <point x="61" y="733"/>
      <point x="87" y="708"/>
      <point x="87" y="635" type="curve" smooth="yes"/>
      <point x="87" y="446" type="line" smooth="yes"/>
      <point x="87" y="369"/>
      <point x="110" y="322"/>
      <point x="154" y="299" type="curve"/>
      <point x="110" y="276"/>
      <point x="87" y="229"/>
      <point x="87" y="151" type="curve" smooth="yes"/>
      <point x="87" y="-37" type="line" smooth="yes"/>
      <point x="87" y="-110"/>
      <point x="61" y="-135"/>
      <point x="12" y="-135" type="curve"/>
      <point x="5" y="-135" type="line"/>
    </contour>
  </outline>
</glyph>
<glyph name="asciitilde" format="2">
  <advance width="430"/>
  <unicode hex="007E"/>
  <outline>
    <contour>
      <point x="290" y="228" type="curve" smooth="yes"/>
      <point x="354" y="228"/>
      <point x="387" y="277"/>
      <point x="400" y="352" type="curve"/>
      <point x="351" y="368" type="line"/>
      <point x="335" y="303"/>
      <point x="320" y="294"/>
      <point x="294" y="294" type="curve" smooth="yes"/>
      <point x="249" y="294"/>
      <point x="207" y="370"/>
      <point x="137" y="370" type="curve" smooth="yes"/>
      <point x="76" y="370"/>
      <point x="44" y="321"/>
      <point x="30" y="246" type="curve"/>
      <point x="79" y="230" type="line"/>
      <point x="98" y="298"/>
      <point x="114" y="304"/>
      <point x="139" y="304" type="curve" smooth="yes"/>
      <point x="185" y="304"/>
      <point x="220" y="228"/>
    </contour>
  </outline>
</glyph>
<glyph name="exclamdown" format="2">
  <advance width="260"/>
  <unicode hex="00A1"/>
  <outline>
    <contour>
      <point x="96" y="-185" type="line"/>
      <point x="162" y="-185" type="line"/>
      <point x="162" y="28" type="line" smooth="yes"/>
      <point x="162" y="167"/>
      <point x="158" y="194"/>
      <point x="151" y="332" type="curve"/>
      <point x="107" y="332" type="line"/>
      <point x="100" y="193"/>
      <point x="96" y="168"/>
      <point x="96" y="28" type="curve" smooth="yes"/>
    </contour>
    <contour>
      <point x="130" y="448" type="curve" smooth="yes"/>
      <point x="155" y="448"/>
      <point x="173" y="468"/>
      <point x="173" y="491" type="curve" smooth="yes"/>
      <point x="173" y="516"/>
      <point x="155" y="537"/>
      <point x="130" y="537" type="curve" smooth="yes"/>
      <point x="104" y="537"/>
      <point x="86" y="516"/>
      <point x="86" y="491" type="curve" smooth="yes"/>
      <point x="86" y="468"/>
      <point x="104" y="448"/>
    </contour>
  </outline>
</glyph>
<glyph name="cent" format="2">
  <advance width="430"/>
  <unicode hex="00A2"/>
  <outline>
    <contour>
      <point x="218" y="-101" type="line"/>
      <point x="265" y="-101" type="line"/>
      <point x="265" y="30" type="line"/>
      <point x="293" y="31"/>
      <point x="322" y="41"/>
      <point x="359" y="60" type="curve"/>
      <point x="345" y="99" type="line"/>
      <point x="301" y="77"/>
      <point x="270" y="75"/>
      <point x="259" y="75" type="curve" smooth="yes"/>
      <point x="176" y="75"/>
      <point x="133" y="142"/>
      <point x="133" y="287" type="curve" smooth="yes"/>
      <point x="133" y="430"/>
      <point x="175" y="509"/>
      <point x="262" y="509" type="curve" smooth="yes"/>
      <point x="296" y="509"/>
      <point x="321" y="505"/>
      <point x="342" y="489" type="curve"/>
      <point x="355" y="530" type="line"/>
      <point x="340" y="542"/>
      <point x="314" y="552"/>
      <point x="265" y="555" type="curve"/>
      <point x="265" y="685" type="line"/>
      <point x="218" y="685" type="line"/>
      <point x="218" y="545" type="line"/>
      <point x="126" y="524"/>
      <point x="85" y="442"/>
      <point x="85" y="287" type="curve" smooth="yes"/>
      <point x="85" y="144"/>
      <point x="121" y="58"/>
      <point x="218" y="37" type="curve"/>
    </contour>
  </outline>
</glyph>
<glyph name="sterling" format="2">
  <advance width="430"/>
  <unicode hex="00A3"/>
  <outline>
    <contour>
      <point x="88" y="0" type="curve"/>
      <point x="393" y="0" type="line"/>
      <point x="393" y="61" type="line"/>
      <point x="164" y="61" type="line"/>
      <point x="176" y="134"/>
      <point x="182" y="236"/>
      <point x="182" y="296" type="curve" smooth="yes"/>
      <point x="182" y="309" type="line"/>
      <point x="331" y="309" type="line"/>
      <point x="331" y="366" type="line"/>
      <point x="182" y="366" type="line"/>
      <point x="182" y="525" type="line" smooth="yes"/>
      <point x="182" y="603"/>
      <point x="223" y="645"/>
      <point x="289" y="645" type="curve" smooth="yes"/>
      <point x="313" y="645"/>
      <point x="345" y="634"/>
      <point x="364" y="623" type="curve"/>
      <point x="379" y="679" type="line"/>
      <point x="356" y="694"/>
      <point x="318" y="706"/>
      <point x="277" y="706" type="curve" smooth="yes"/>
      <point x="188" y="706"/>
      <point x="113" y="642"/>
      <point x="113" y="526" type="curve" smooth="yes"/>
      <point x="113" y="366" type="line"/>
      <point x="42" y="366" type="line"/>
      <point x="42" y="309" type="line"/>
      <point x="113" y="309" type="line"/>
      <point x="113" y="291" type="line" smooth="yes"/>
      <point x="113" y="184"/>
      <point x="104" y="91"/>
    </contour>
  </outline>
</glyph>
<glyph name="currency" format="2">
  <advance width="430"/>
  <unicode hex="00A4"/>
  <outline>
    <contour>
      <point x="79" y="117" type="line"/>
      <point x="131" y="189" type="line"/>
      <point x="153" y="171"/>
      <point x="180" y="161"/>
      <point x="215" y="161" type="curve" smooth="yes"/>
      <point x="247" y="161"/>
      <point x="277" y="171"/>
      <point x="298" y="189" type="curve"/>
      <point x="350" y="117" type="line"/>
      <point x="386" y="145" type="line"/>
      <point x="323" y="229" type="line"/>
      <point x="346" y="261"/>
      <point x="356" y="299"/>
      <point x="356" y="347" type="curve" smooth="yes"/>
      <point x="356" y="394"/>
      <point x="344" y="434"/>
      <point x="323" y="466" type="curve"/>
      <point x="386" y="551" type="line"/>
      <point x="350" y="579" type="line"/>
      <point x="297" y="504" type="line"/>
      <point x="276" y="525"/>
      <point x="247" y="534"/>
      <point x="215" y="534" type="curve" smooth="yes"/>
      <point x="181" y="534"/>
      <point x="154" y="525"/>
      <point x="132" y="504" type="curve"/>
      <point x="79" y="579" type="line"/>
      <point x="43" y="551" type="line"/>
      <point x="106" y="466" type="line"/>
      <point x="86" y="433"/>
      <point x="74" y="394"/>
      <point x="74" y="347" type="curve" smooth="yes"/>
      <point x="74" y="300"/>
      <point x="85" y="260"/>
      <point x="105" y="229" type="curve"/>
      <point x="43" y="145" type="line"/>
    </contour>
    <contour>
      <point x="215" y="204" type="curve" smooth="yes"/>
      <point x="154" y="204"/>
      <point x="120" y="263"/>
      <point x="120" y="347" type="curve" smooth="yes"/>
      <point x="120" y="433"/>
      <point x="157" y="490"/>
      <point x="215" y="490" type="curve" smooth="yes"/>
      <point x="274" y="490"/>
      <point x="311" y="433"/>
      <point x="311" y="347" type="curve" smooth="yes"/>
      <point x="311" y="261"/>
      <point x="274" y="204"/>
    </contour>
  </outline>
</glyph>
<glyph name="yen" format="2">
  <advance width="430"/>
  <unicode hex="00A5"/>
  <outline>
    <contour>
      <point x="180" y="0" type="line"/>
      <point x="250" y="0" type="line"/>
      <point x="250" y="126" type="line"/>
      <point x="369" y="126" type="line"/>
      <point x="369" y="180" type="line"/>
      <point x="250" y="180" type="line"/>
      <point x="250" y="287" type="line"/>
      <point x="369" y="287" type="line"/>
      <point x="369" y="341" type="line"/>
      <point x="271" y="341" type="line"/>
      <point x="335" y="480"/>
      <point x="378" y="592"/>
      <point x="410" y="693" type="curve"/>
      <point x="344" y="693" type="line"/>
      <point x="310" y="584"/>
      <point x="260" y="457"/>
      <point x="215" y="364" type="curve"/>
      <point x="170" y="458"/>
      <point x="122" y="586"/>
      <point x="88" y="693" type="curve"/>
      <point x="19" y="693" type="line"/>
      <point x="59" y="581"/>
      <point x="95" y="476"/>
      <point x="157" y="341" type="curve"/>
      <point x="59" y="341" type="line"/>
      <point x="59" y="287" type="line"/>
      <point x="180" y="287" type="line"/>
      <point x="180" y="180" type="line"/>
      <point x="59" y="180" type="line"/>
      <point x="59" y="126" type="line"/>
      <point x="180" y="126" type="line"/>
    </contour>
  </outline>
</glyph>
<glyph name="brokenbar" format="2">
  <advance width="247"/>
  <unicode hex="00A6"/>
  <outline>
    <contour>
      <point x="99" y="409" type="line"/>
      <point x="148" y="409" type="line"/>
      <point x="148" y="783" type="line"/>
      <point x="99" y="783" type="line"/>
    </contour>
    <contour>
      <point x="99" y="-185" type="line"/>
      <point x="148" y="-185" type="line"/>
      <point x="148" y="187" type="line"/>
      <point x="99" y="187" type="line"/>
    </contour>
  </outline>
</glyph>
<glyph name="section" format="2">
  <advance width="386"/>
  <unicode hex="00A7"/>
  <outline>
    <contour>
      <point x="173" y="-109" type="curve" smooth="yes"/>
      <point x="263" y="-109"/>
      <point x="320" y="-54"/>
      <point x="320" y="30" type="curve" smooth="yes"/>
      <point x="320" y="88"/>
      <point x="299" y="117"/>
      <point x="251" y="149" type="curve"/>
      <point x="317" y="182"/>
      <point x="342" y="235"/>
      <point x="342" y="301" type="curve" smooth="yes"/>
      <point x="342" y="353"/>
      <point x="340" y="407"/>
      <point x="231" y="454" type="curve" smooth="yes"/>
      <point x="171" y="484"/>
      <point x="125" y="518"/>
      <point x="125" y="563" type="curve" smooth="yes"/>
      <point x="125" y="623"/>
      <point x="158" y="656"/>
      <point x="232" y="656" type="curve" smooth="yes"/>
      <point x="244" y="656"/>
      <point x="285" y="654"/>
      <point x="325" y="636" type="curve"/>
      <point x="339" y="675" type="line"/>
      <point x="277" y="703"/>
      <point x="233" y="707"/>
      <point x="224" y="707" type="curve" smooth="yes"/>
      <point x="147" y="707"/>
      <point x="76" y="665"/>
      <point x="76" y="574" type="curve" smooth="yes"/>
      <point x="76" y="526"/>
      <point x="96" y="488"/>
      <point x="145" y="462" type="curve"/>
      <point x="66" y="423"/>
      <point x="46" y="363"/>
      <point x="46" y="308" type="curve" smooth="yes"/>
      <point x="46" y="241"/>
      <point x="67" y="198"/>
      <point x="165" y="152" type="curve" smooth="yes"/>
      <point x="234" y="118"/>
      <point x="270" y="93"/>
      <point x="270" y="37" type="curve" smooth="yes"/>
      <point x="270" y="-20"/>
      <point x="241" y="-59"/>
      <point x="164" y="-59" type="curve" smooth="yes"/>
      <point x="164" y="-59"/>
      <point x="101" y="-53"/>
      <point x="62" y="-34" type="curve"/>
      <point x="51" y="-77" type="line"/>
      <point x="95" y="-101"/>
      <point x="157" y="-109"/>
    </contour>
    <contour>
      <point x="216" y="172" type="curve"/>
      <point x="202" y="179"/>
      <point x="197" y="182"/>
      <point x="188" y="187" type="curve" smooth="yes"/>
      <point x="113" y="222"/>
      <point x="93" y="255"/>
      <point x="93" y="306" type="curve" smooth="yes"/>
      <point x="93" y="353"/>
      <point x="120" y="414"/>
      <point x="174" y="438" type="curve"/>
      <point x="186" y="430"/>
      <point x="194" y="424"/>
      <point x="204" y="421" type="curve" smooth="yes"/>
      <point x="304" y="378"/>
      <point x="294" y="340"/>
      <point x="294" y="297" type="curve" smooth="yes"/>
      <point x="294" y="240"/>
      <point x="260" y="198"/>
    </contour>
  </outline>
</glyph>
<glyph name="dieresis" format="2">
  <advance width="339"/>
  <unicode hex="00A8"/>
  <outline>
    <contour>
      <point x="242" y="630" type="curve" smooth="yes"/>
      <point x="263" y="630"/>
      <point x="283" y="648"/>
      <point x="283" y="671" type="curve" smooth="yes"/>
      <point x="283" y="697"/>
      <point x="263" y="714"/>
      <point x="242" y="714" type="curve" smooth="yes"/>
      <point x="220" y="714"/>
      <point x="201" y="697"/>
      <point x="201" y="671" type="curve" smooth="yes"/>
      <point x="201" y="648"/>
      <point x="220" y="630"/>
    </contour>
    <contour>
      <point x="97" y="630" type="curve" smooth="yes"/>
      <point x="118" y="630"/>
      <point x="138" y="648"/>
      <point x="138" y="671" type="curve" smooth="yes"/>
      <point x="138" y="697"/>
      <point x="118" y="714"/>
      <point x="97" y="714" type="curve" smooth="yes"/>
      <point x="74" y="714"/>
      <point x="56" y="697"/>
      <point x="56" y="671" type="curve" smooth="yes"/>
      <point x="56" y="648"/>
      <point x="74" y="630"/>
    </contour>
  </outline>
</glyph>
<glyph name="copyright" format="2">
  <advance width="728"/>
  <unicode hex="00A9"/>
  <outline>
    <contour>
      <point x="365" y="-15" type="curve" smooth="yes"/>
      <point x="539" y="-15"/>
      <point x="653" y="132"/>
      <point x="653" y="346" type="curve" smooth="yes"/>
      <point x="653" y="558"/>
      <point x="539" y="707"/>
      <point x="365" y="707" type="curve" smooth="yes"/>
      <point x="190" y="707"/>
      <point x="76" y="558"/>
      <point x="76" y="346" type="curve" smooth="yes"/>
      <point x="76" y="132"/>
      <point x="190" y="-15"/>
    </contour>
    <contour>
      <point x="378" y="145" type="curve" smooth="yes"/>
      <point x="385" y="145"/>
      <point x="414" y="142"/>
      <point x="465" y="171" type="curve"/>
      <point x="457" y="203" type="line"/>
      <point x="415" y="182"/>
      <point x="381" y="181"/>
      <point x="380" y="181" type="curve" smooth="yes"/>
      <point x="310" y="181"/>
      <point x="269" y="239"/>
      <point x="269" y="348" type="curve"/>
      <point x="269" y="445"/>
      <point x="306" y="513"/>
      <point x="383" y="513" type="curve" smooth="yes"/>
      <point x="385" y="513"/>
      <point x="423" y="512"/>
      <point x="453" y="493" type="curve"/>
      <point x="460" y="527" type="line"/>
      <point x="410" y="557"/>
      <point x="380" y="549"/>
      <point x="375" y="549" type="curve" smooth="yes"/>
      <point x="269" y="549"/>
      <point x="227" y="459"/>
      <point x="227" y="348" type="curve"/>
      <point x="227" y="232"/>
      <point x="273" y="145"/>
    </contour>
    <contour>
      <point x="365" y="18" type="curve" smooth="yes"/>
      <point x="212" y="18"/>
      <point x="110" y="146"/>
      <point x="110" y="346" type="curve" smooth="yes"/>
      <point x="110" y="543"/>
      <point x="212" y="674"/>
      <point x="365" y="674" type="curve" smooth="yes"/>
      <point x="513" y="674"/>
      <point x="618" y="545"/>
      <point x="618" y="346" type="curve" smooth="yes"/>
      <point x="618" y="148"/>
      <point x="515" y="18"/>
    </contour>
  </outline>
</glyph>
<glyph name="ordfeminine" format="2">
  <advance width="315"/>
  <unicode hex="00AA"/>
  <outline>
    <contour>
      <point x="166" y="331" type="curve" smooth="yes"/>
      <point x="201" y="331"/>
      <point x="235" y="339"/>
      <point x="259" y="346" type="curve"/>
      <point x="259" y="581" type="line" smooth="yes"/>
      <point x="259" y="659"/>
      <point x="230" y="704"/>
      <point x="151" y="704" type="curve" smooth="yes"/>
      <point x="129" y="704"/>
      <point x="96" y="698"/>
      <point x="72" y="687" type="curve"/>
      <point x="79" y="640" type="line"/>
      <point x="97" y="648"/>
      <point x="119" y="655"/>
      <point x="139" y="655" type="curve" smooth="yes"/>
      <point x="178" y="655"/>
      <point x="207" y="645"/>
      <point x="207" y="597" type="curve" smooth="yes"/>
      <point x="207" y="545" type="line"/>
      <point x="193" y="550"/>
      <point x="174" y="552"/>
      <point x="152" y="552" type="curve" smooth="yes"/>
      <point x="86" y="552"/>
      <point x="43" y="517"/>
      <point x="43" y="444" type="curve" smooth="yes"/>
      <point x="43" y="366"/>
      <point x="82" y="331"/>
    </contour>
    <contour>
      <point x="163" y="377" type="curve" smooth="yes"/>
      <point x="124" y="377"/>
      <point x="95" y="395"/>
      <point x="95" y="442" type="curve" smooth="yes"/>
      <point x="95" y="486"/>
      <point x="119" y="505"/>
      <point x="159" y="505" type="curve" smooth="yes"/>
      <point x="170" y="505"/>
      <point x="179" y="504"/>
      <point x="207" y="500" type="curve"/>
      <point x="207" y="383" type="line"/>
      <point x="191" y="379"/>
      <point x="176" y="377"/>
    </contour>
  </outline>
</glyph>
<glyph name="logicalnot" format="2">
  <advance width="430"/>
  <unicode hex="00AC"/>
  <outline>
    <contour>
      <point x="307" y="136" type="line"/>
      <point x="364" y="136" type="line"/>
      <point x="364" y="389" type="line"/>
      <point x="25" y="389" type="line"/>
      <point x="25" y="334" type="line"/>
      <point x="307" y="334" type="line"/>
    </contour>
  </outline>
</glyph>
<glyph name="registered" format="2">
  <advance width="722"/>
  <unicode hex="00AE"/>
  <outline>
    <contour>
      <point x="362" y="-15" type="curve" smooth="yes"/>
      <point x="529" y="-15"/>
      <point x="651" y="126"/>
      <point x="651" y="347" type="curve" smooth="yes"/>
      <point x="651" y="567"/>
      <point x="529" y="708"/>
      <point x="362" y="708" type="curve" smooth="yes"/>
      <point x="194" y="708"/>
      <point x="71" y="567"/>
      <point x="71" y="347" type="curve" smooth="yes"/>
      <point x="71" y="126"/>
      <point x="194" y="-15"/>
    </contour>
    <contour>
      <point x="362" y="28" type="curve" smooth="yes"/>
      <point x="217" y="28"/>
      <point x="118" y="151"/>
      <point x="118" y="347" type="curve" smooth="yes"/>
      <point x="118" y="540"/>
      <point x="216" y="665"/>
      <point x="362" y="665" type="curve" smooth="yes"/>
      <point x="504" y="665"/>
      <point x="605" y="541"/>
      <point x="605" y="347" type="curve" smooth="yes"/>
      <point x="605" y="152"/>
      <point x="505" y="28"/>
    </contour>
    <contour>
      <point x="262" y="150" type="line"/>
      <point x="312" y="150" type="line"/>
      <point x="312" y="305" type="line"/>
      <point x="367" y="305" type="line"/>
      <point x="370" y="305"/>
      <point x="371" y="305"/>
      <point x="372" y="304" type="curve"/>
      <point x="392" y="270"/>
      <point x="419" y="216"/>
      <point x="446" y="150" type="curve"/>
      <point x="497" y="150" type="line"/>
      <point x="470" y="217"/>
      <point x="460" y="246"/>
      <point x="416" y="318" type="curve"/>
      <point x="455" y="339"/>
      <point x="478" y="374"/>
      <point x="478" y="423" type="curve" smooth="yes"/>
      <point x="478" y="506"/>
      <point x="435" y="547"/>
      <point x="346" y="547" type="curve" smooth="yes"/>
      <point x="322" y="547"/>
      <point x="291" y="542"/>
      <point x="262" y="534" type="curve"/>
    </contour>
    <contour>
      <point x="312" y="347" type="line"/>
      <point x="312" y="498" type="line"/>
      <point x="324" y="500"/>
      <point x="336" y="501"/>
      <point x="346" y="501" type="curve" smooth="yes"/>
      <point x="403" y="501"/>
      <point x="428" y="473"/>
      <point x="428" y="423" type="curve" smooth="yes"/>
      <point x="428" y="370"/>
      <point x="401" y="347"/>
      <point x="365" y="347" type="curve" smooth="yes"/>
    </contour>
  </outline>
</glyph>
<glyph name="macron" format="2">
  <advance width="313"/>
  <unicode hex="00AF"/>
  <outline>
    <contour>
      <point x="56" y="649" type="line"/>
      <point x="256" y="649" type="line"/>
      <point x="256" y="705" type="line"/>
      <point x="56" y="705" type="line"/>
    </contour>
  </outline>
</glyph>
<glyph name="degree" format="2">
  <advance width="268"/>
  <unicode hex="00B0"/>
  <outline>
    <contour>
      <point x="134" y="534" type="curve" smooth="yes"/>
      <point x="201" y="534"/>
      <point x="240" y="578"/>
      <point x="240" y="642" type="curve" smooth="yes"/>
      <point x="240" y="702"/>
      <point x="199" y="750"/>
      <point x="134" y="750" type="curve" smooth="yes"/>
      <point x="67" y="750"/>
      <point x="28" y="706"/>
      <point x="28" y="642" type="curve" smooth="yes"/>
      <point x="28" y="581"/>
      <point x="69" y="534"/>
    </contour>
    <contour>
      <point x="134" y="571" type="curve" smooth="yes"/>
      <point x="95" y="571"/>
      <point x="68" y="600"/>
      <point x="68" y="642" type="curve" smooth="yes"/>
      <point x="68" y="684"/>
      <point x="95" y="713"/>
      <point x="134" y="713" type="curve" smooth="yes"/>
      <point x="174" y="713"/>
      <point x="201" y="684"/>
      <point x="201" y="642" type="curve" smooth="yes"/>
      <point x="201" y="600"/>
      <point x="174" y="571"/>
    </contour>
  </outline>
</glyph>
<glyph name="plusminus" format="2">
  <advance width="430"/>
  <unicode hex="00B1"/>
  <outline>
    <contour>
      <point x="184" y="124" type="line"/>
      <point x="246" y="124" type="line"/>
      <point x="246" y="276" type="line"/>
      <point x="385" y="276" type="line"/>
      <point x="385" y="335" type="line"/>
      <point x="246" y="335" type="line"/>
      <point x="246" y="486" type="line"/>
      <point x="184" y="486" type="line"/>
      <point x="184" y="335" type="line"/>
      <point x="45" y="335" type="line"/>
      <point x="45" y="276" type="line"/>
      <point x="184" y="276" type="line"/>
    </contour>
    <contour>
      <point x="45" y="-7" type="line"/>
      <point x="385" y="-7" type="line"/>
      <point x="385" y="53" type="line"/>
      <point x="45" y="53" type="line"/>
    </contour>
  </outline>
</glyph>
<glyph name="twosuperior" format="2">
  <advance width="280"/>
  <unicode hex="00B2"/>
  <outline>
    <contour>
      <point x="41" y="307" type="curve"/>
      <point x="235" y="307" type="line"/>
      <point x="235" y="357" type="line"/>
      <point x="104" y="357" type="line"/>
      <point x="113" y="401"/>
      <point x="142" y="434"/>
      <point x="160" y="456" type="curve" smooth="yes"/>
      <point x="199" y="500"/>
      <point x="230" y="547"/>
      <point x="230" y="600" type="curve" smooth="yes"/>
      <point x="230" y="653"/>
      <point x="186" y="698"/>
      <point x="132" y="698" type="curve" smooth="yes"/>
      <point x="108" y="698"/>
      <point x="79" y="692"/>
      <point x="40" y="664" type="curve"/>
      <point x="62" y="623" type="line"/>
      <point x="99" y="651"/>
      <point x="113" y="648"/>
      <point x="126" y="648" type="curve" smooth="yes"/>
      <point x="159" y="648"/>
      <point x="178" y="622"/>
      <point x="178" y="590" type="curve" smooth="yes"/>
      <point x="178" y="569"/>
      <point x="173" y="545"/>
      <point x="122" y="489" type="curve" smooth="yes"/>
      <point x="52" y="418"/>
      <point x="42" y="379"/>
      <point x="42" y="321" type="curve"/>
      <point x="42" y="316"/>
      <point x="42" y="312"/>
    </contour>
  </outline>
</glyph>
<glyph name="threesuperior" format="2">
  <advance width="280"/>
  <unicode hex="00B3"/>
  <outline>
    <contour>
      <point x="117" y="300" type="curve" smooth="yes"/>
      <point x="182" y="300"/>
      <point x="236" y="349"/>
      <point x="236" y="413" type="curve" smooth="yes"/>
      <point x="236" y="452"/>
      <point x="217" y="493"/>
      <point x="171" y="514" type="curve"/>
      <point x="202" y="532"/>
      <point x="225" y="562"/>
      <point x="225" y="604" type="curve" smooth="yes"/>
      <point x="225" y="652"/>
      <point x="183" y="698"/>
      <point x="124" y="698" type="curve" smooth="yes"/>
      <point x="103" y="698"/>
      <point x="78" y="694"/>
      <point x="37" y="667" type="curve"/>
      <point x="54" y="625" type="line"/>
      <point x="82" y="645"/>
      <point x="105" y="648"/>
      <point x="119" y="648" type="curve" smooth="yes"/>
      <point x="153" y="648"/>
      <point x="174" y="628"/>
      <point x="174" y="597" type="curve" smooth="yes"/>
      <point x="174" y="556"/>
      <point x="150" y="534"/>
      <point x="109" y="534" type="curve"/>
      <point x="83" y="534" type="line"/>
      <point x="83" y="489" type="line"/>
      <point x="105" y="489" type="line"/>
      <point x="157" y="489"/>
      <point x="183" y="459"/>
      <point x="183" y="416" type="curve" smooth="yes"/>
      <point x="183" y="372"/>
      <point x="147" y="350"/>
      <point x="115" y="350" type="curve" smooth="yes"/>
      <point x="99" y="350"/>
      <point x="78" y="354"/>
      <point x="47" y="371" type="curve"/>
      <point x="30" y="325" type="line"/>
      <point x="65" y="305"/>
      <point x="99" y="300"/>
    </contour>
  </outline>
</glyph>
<glyph name="acute" format="2">
  <advance width="314"/>
  <unicode hex="00B4"/>
  <outline>
    <contour>
      <point x="142" y="590" type="line"/>
      <point x="280" y="739" type="line"/>
      <point x="231" y="778" type="line"/>
      <point x="109" y="616" type="line"/>
    </contour>
  </outline>
</glyph>
<glyph name="mu" format="2">
  <advance width="482"/>
  <unicode hex="00B5"/>
  <outline>
    <contour>
      <point x="83" y="-185" type="line"/>
      <point x="145" y="-185" type="line"/>
      <point x="145" y="-96" type="line" smooth="yes"/>
      <point x="145" y="-42"/>
      <point x="143" y="0"/>
      <point x="145" y="45" type="curve"/>
      <point x="173" y="2"/>
      <point x="218" y="-11"/>
      <point x="273" y="-11" type="curve" smooth="yes"/>
      <point x="281" y="-11"/>
      <point x="348" y="-3"/>
      <point x="399" y="16" type="curve"/>
      <point x="399" y="522" type="line"/>
      <point x="338" y="522" type="line"/>
      <point x="338" y="59" type="line"/>
      <point x="297" y="46"/>
      <point x="267" y="43"/>
      <point x="251" y="43" type="curve" smooth="yes"/>
      <point x="182" y="43"/>
      <point x="144" y="88"/>
      <point x="144" y="161" type="curve" smooth="yes"/>
      <point x="144" y="522" type="line"/>
      <point x="83" y="522" type="line"/>
    </contour>
  </outline>
</glyph>
<glyph name="paragraph" format="2">
  <advance width="484"/>
  <unicode hex="00B6"/>
  <outline>
    <contour>
      <point x="215" y="-185" type="line"/>
      <point x="273" y="-185" type="line"/>
      <point x="273" y="646" type="line"/>
      <point x="296" y="649"/>
      <point x="323" y="647"/>
      <point x="342" y="644" type="curve"/>
      <point x="342" y="-185" type="line"/>
      <point x="399" y="-185" type="line"/>
      <point x="399" y="683" type="line"/>
      <point x="372" y="692"/>
      <point x="329" y="698"/>
      <point x="290" y="698" type="curve" smooth="yes"/>
      <point x="151" y="698"/>
      <point x="34" y="633"/>
      <point x="34" y="479" type="curve" smooth="yes"/>
      <point x="34" y="351"/>
      <point x="97" y="276"/>
      <point x="215" y="264" type="curve"/>
    </contour>
  </outline>
</glyph>
<glyph name="cedilla" format="2">
  <advance width="314"/>
  <unicode hex="00B8"/>
  <outline>
    <contour>
      <point x="122" y="-188" type="curve" smooth="yes"/>
      <point x="161" y="-188"/>
      <point x="220" y="-170"/>
      <point x="220" y="-110" type="curve" smooth="yes"/>
      <point x="220" y="-83"/>
      <point x="208" y="-55"/>
      <point x="166" y="-40" type="curve"/>
      <point x="179" y="-12"/>
      <point x="184" y="2"/>
      <point x="195" y="20" type="curve"/>
      <point x="146" y="20" type="line"/>
      <point x="134" y="1"/>
      <point x="120" y="-31"/>
      <point x="107" y="-62" type="curve"/>
      <point x="156" y="-70"/>
      <point x="167" y="-84"/>
      <point x="167" y="-104" type="curve" smooth="yes"/>
      <point x="167" y="-132"/>
      <point x="143" y="-141"/>
      <point x="108" y="-141" type="curve" smooth="yes"/>
      <point x="101" y="-141"/>
      <point x="83" y="-137"/>
      <point x="70" y="-135" type="curve"/>
      <point x="63" y="-178" type="line"/>
      <point x="89" y="-187"/>
      <point x="106" y="-188"/>
    </contour>
  </outline>
</glyph>
<glyph name="onesuperior" format="2">
  <advance width="280"/>
  <unicode hex="00B9"/>
  <outline>
    <contour>
      <point x="131" y="307" type="line"/>
      <point x="183" y="307" type="line"/>
      <point x="183" y="691" type="line"/>
      <point x="144" y="691" type="line"/>
      <point x="104" y="643"/>
      <point x="76" y="629"/>
      <point x="38" y="607" type="curve"/>
      <point x="62" y="565" type="line"/>
      <point x="99" y="579"/>
      <point x="110" y="591"/>
      <point x="131" y="612" type="curve"/>
    </contour>
  </outline>
</glyph>
<glyph name="ordmasculine" format="2">
  <advance width="358"/>
  <unicode hex="00BA"/>
  <outline>
    <contour>
      <point x="179" y="333" type="curve" smooth="yes"/>
      <point x="258" y="333"/>
      <point x="315" y="397"/>
      <point x="315" y="520" type="curve" smooth="yes"/>
      <point x="315" y="646"/>
      <point x="258" y="708"/>
      <point x="179" y="708" type="curve" smooth="yes"/>
      <point x="100" y="708"/>
      <point x="43" y="646"/>
      <point x="43" y="520" type="curve" smooth="yes"/>
      <point x="43" y="396"/>
      <point x="99" y="333"/>
    </contour>
    <contour>
      <point x="179" y="383" type="curve" smooth="yes"/>
      <point x="129" y="383"/>
      <point x="98" y="432"/>
      <point x="98" y="520" type="curve" smooth="yes"/>
      <point x="98" y="611"/>
      <point x="130" y="657"/>
      <point x="179" y="657" type="curve" smooth="yes"/>
      <point x="228" y="657"/>
      <point x="260" y="612"/>
      <point x="260" y="520" type="curve" smooth="yes"/>
      <point x="260" y="432"/>
      <point x="229" y="383"/>
    </contour>
  </outline>
</glyph>
<glyph name="questiondown" format="2">
  <advance width="321"/>
  <unicode hex="00BF"/>
  <outline>
    <contour>
      <point x="172" y="-187" type="curve" smooth="yes"/>
      <point x="223" y="-187"/>
      <point x="264" y="-172"/>
      <point x="300" y="-147" type="curve"/>
      <point x="275" y="-100" type="line"/>
      <point x="247" y="-121"/>
      <point x="217" y="-132"/>
      <point x="180" y="-132" type="curve" smooth="yes"/>
      <point x="122" y="-132"/>
      <point x="89" y="-97"/>
      <point x="89" y="-37" type="curve" smooth="yes"/>
      <point x="89" y="89"/>
      <point x="224" y="111"/>
      <point x="224" y="271" type="curve" smooth="yes"/>
      <point x="224" y="290"/>
      <point x="222" y="309"/>
      <point x="220" y="326" type="curve"/>
      <point x="164" y="326" type="line"/>
      <point x="166" y="311"/>
      <point x="166" y="294"/>
      <point x="166" y="280" type="curve" smooth="yes"/>
      <point x="166" y="131"/>
      <point x="25" y="106"/>
      <point x="25" y="-41" type="curve" smooth="yes"/>
      <point x="25" y="-122"/>
      <point x="73" y="-187"/>
    </contour>
    <contour>
      <point x="196" y="435" type="curve" smooth="yes"/>
      <point x="222" y="435"/>
      <point x="240" y="456"/>
      <point x="240" y="481" type="curve" smooth="yes"/>
      <point x="240" y="505"/>
      <point x="222" y="526"/>
      <point x="196" y="526" type="curve" smooth="yes"/>
      <point x="171" y="526"/>
      <point x="152" y="505"/>
      <point x="152" y="481" type="curve" smooth="yes"/>
      <point x="152" y="456"/>
      <point x="171" y="435"/>
    </contour>
  </outline>
</glyph>
<glyph name="Aring" format="2">
  <advance width="484"/>
  <unicode hex="00C5"/>
  <outline>
    <contour>
      <point x="23" y="0" type="curve"/>
      <point x="83" y="0" type="line"/>
      <point x="94" y="60"/>
      <point x="107" y="124"/>
      <point x="122" y="188" type="curve"/>
      <point x="359" y="188" type="line"/>
      <point x="374" y="124"/>
      <point x="388" y="60"/>
      <point x="399" y="0" type="curve"/>
      <point x="460" y="0" type="line"/>
      <point x="438" y="193"/>
      <point x="329" y="518"/>
      <point x="280" y="678" type="curve"/>
      <point x="302" y="689"/>
      <point x="320" y="709"/>
      <point x="320" y="744" type="curve" smooth="yes"/>
      <point x="320" y="790"/>
      <point x="286" y="824"/>
      <point x="242" y="824" type="curve" smooth="yes"/>
      <point x="197" y="824"/>
      <point x="163" y="792"/>
      <point x="163" y="744" type="curve" smooth="yes"/>
      <point x="163" y="708"/>
      <point x="181" y="688"/>
      <point x="203" y="677" type="curve"/>
      <point x="139" y="471"/>
      <point x="84" y="296"/>
    </contour>
    <contour>
      <point x="133" y="244" type="line"/>
      <point x="175" y="393"/>
      <point x="191" y="466"/>
      <point x="240" y="621" type="curve"/>
      <point x="289" y="475"/>
      <point x="311" y="387"/>
      <point x="348" y="244" type="curve"/>
    </contour>
    <contour>
      <point x="241" y="702" type="curve" smooth="yes"/>
      <point x="217" y="702"/>
      <point x="200" y="721"/>
      <point x="200" y="744" type="curve" smooth="yes"/>
      <point x="200" y="768"/>
      <point x="218" y="786"/>
      <point x="241" y="786" type="curve" smooth="yes"/>
      <point x="263" y="786"/>
      <point x="281" y="768"/>
      <point x="281" y="744" type="curve" smooth="yes"/>
      <point x="281" y="721"/>
      <point x="263" y="702"/>
    </contour>
  </outline>
</glyph>
<glyph name="AE" format="2">
  <advance width="714"/>
  <unicode hex="00C6"/>
  <anchor x="357" y="0" name="bottom"/>
  <anchor x="357" y="693" name="top"/>
  <outline>
    <contour>
      <point x="4" y="0" type="curve"/>
      <point x="74" y="0" type="line"/>
      <point x="97" y="64"/>
      <point x="122" y="125"/>
      <point x="147" y="185" type="curve"/>
      <point x="353" y="185" type="line"/>
      <point x="353" y="0" type="line"/>
      <point x="666" y="0" type="line"/>
      <point x="666" y="63" type="line"/>
      <point x="425" y="63" type="line"/>
      <point x="425" y="333" type="line"/>
      <point x="629" y="333" type="line"/>
      <point x="629" y="394" type="line"/>
      <point x="425" y="394" type="line"/>
      <point x="425" y="630" type="line"/>
      <point x="650" y="630" type="line"/>
      <point x="650" y="693" type="line"/>
      <point x="321" y="693" type="line"/>
      <point x="191" y="474"/>
      <point x="81" y="219"/>
    </contour>
    <contour>
      <point x="170" y="246" type="line"/>
      <point x="228" y="378"/>
      <point x="287" y="499"/>
      <point x="353" y="621" type="curve"/>
      <point x="353" y="246" type="line"/>
    </contour>
  </outline>
</glyph>
<glyph name="Ccedilla" format="2">
  <advance width="454"/>
  <unicode hex="00C7"/>
  <outline>
    <contour>
      <point x="238" y="-187" type="curve" smooth="yes"/>
      <point x="266" y="-187"/>
      <point x="332" y="-175"/>
      <point x="332" y="-110" type="curve" smooth="yes"/>
      <point x="332" y="-85"/>
      <point x="322" y="-55"/>
      <point x="278" y="-40" type="curve"/>
      <point x="284" y="-28"/>
      <point x="290" y="-18"/>
      <point x="294" y="-8" type="curve"/>
      <point x="309" y="-9"/>
      <point x="312" y="-9"/>
      <point x="318" y="-9" type="curve"/>
      <point x="329" y="-9"/>
      <point x="372" y="-8"/>
      <point x="434" y="30" type="curve"/>
      <point x="420" y="68" type="line"/>
      <point x="371" y="42"/>
      <point x="338" y="37"/>
      <point x="314" y="37" type="curve" smooth="yes"/>
      <point x="191" y="37"/>
      <point x="114" y="156"/>
      <point x="114" y="355" type="curve" smooth="yes"/>
      <point x="114" y="555"/>
      <point x="196" y="657"/>
      <point x="296" y="657" type="curve" smooth="yes"/>
      <point x="329" y="657"/>
      <point x="373" y="655"/>
      <point x="412" y="630" type="curve"/>
      <point x="428" y="669" type="line"/>
      <point x="373" y="706"/>
      <point x="328" y="703"/>
      <point x="310" y="703" type="curve" smooth="yes"/>
      <point x="140" y="703"/>
      <point x="60" y="586"/>
      <point x="60" y="357" type="curve" smooth="yes"/>
      <point x="60" y="154"/>
      <point x="116" y="24"/>
      <point x="252" y="-3" type="curve"/>
      <point x="244" y="-19"/>
      <point x="236" y="-38"/>
      <point x="227" y="-57" type="curve"/>
      <point x="280" y="-65"/>
      <point x="291" y="-82"/>
      <point x="291" y="-105" type="curve" smooth="yes"/>
      <point x="291" y="-137"/>
      <point x="264" y="-147"/>
      <point x="224" y="-147" type="curve" smooth="yes"/>
      <point x="221" y="-147"/>
      <point x="202" y="-143"/>
      <point x="189" y="-141" type="curve"/>
      <point x="183" y="-178" type="line"/>
      <point x="212" y="-187"/>
      <point x="224" y="-187"/>
    </contour>
  </outline>
</glyph>
<glyph name="Eth" format="2">
  <advance width="549"/>
  <unicode hex="00D0"/>
  <outline>
    <contour>
      <point x="206" y="-5" type="curve" smooth="yes"/>
      <point x="393" y="-5"/>
      <point x="489" y="111"/>
      <point x="489" y="347" type="curve" smooth="yes"/>
      <point x="489" y="583"/>
      <point x="395" y="699"/>
      <point x="194" y="699" type="curve" smooth="yes"/>
      <point x="151" y="699"/>
      <point x="107" y="692"/>
      <point x="73" y="684" type="curve"/>
      <point x="73" y="367" type="line"/>
      <point x="22" y="367" type="line"/>
      <point x="22" y="327" type="line"/>
      <point x="73" y="327" type="line"/>
      <point x="73" y="11" type="line"/>
      <point x="116" y="3"/>
      <point x="161" y="-5"/>
    </contour>
    <contour>
      <point x="198" y="44" type="curve" smooth="yes"/>
      <point x="211" y="44"/>
      <point x="173" y="42"/>
      <point x="125" y="50" type="curve"/>
      <point x="125" y="327" type="line"/>
      <point x="250" y="327" type="line"/>
      <point x="250" y="367" type="line"/>
      <point x="125" y="367" type="line"/>
      <point x="125" y="643" type="line"/>
      <point x="173" y="651"/>
      <point x="221" y="650"/>
      <point x="188" y="650" type="curve" smooth="yes"/>
      <point x="351" y="650"/>
      <point x="435" y="566"/>
      <point x="435" y="347" type="curve" smooth="yes"/>
      <point x="435" y="133"/>
      <point x="352" y="44"/>
    </contour>
  </outline>
</glyph>
<glyph name="multiply" format="2">
  <advance width="430"/>
  <unicode hex="00D7"/>
  <outline>
    <contour>
      <point x="103" y="142" type="line"/>
      <point x="215" y="255" type="line"/>
      <point x="327" y="142" type="line"/>
      <point x="371" y="185" type="line"/>
      <point x="259" y="299" type="line"/>
      <point x="371" y="413" type="line"/>
      <point x="327" y="456" type="line"/>
      <point x="215" y="343" type="line"/>
      <point x="103" y="456" type="line"/>
      <point x="59" y="413" type="line"/>
      <point x="171" y="299" type="line"/>
      <point x="59" y="185" type="line"/>
    </contour>
  </outline>
</glyph>
<glyph name="Oslash" format="2">
  <advance width="594"/>
  <unicode hex="00D8"/>
  <anchor x="297" y="0" name="bottom"/>
  <anchor x="297" y="693" name="top"/>
  <outline>
    <contour>
      <point x="109" y="-35" type="line"/>
      <point x="154" y="41" type="line"/>
      <point x="187" y="8"/>
      <point x="235" y="-11"/>
      <point x="297" y="-11" type="curve" smooth="yes"/>
      <point x="475" y="-11"/>
      <point x="535" y="148"/>
      <point x="535" y="345" type="curve" smooth="yes"/>
      <point x="535" y="450"/>
      <point x="515" y="542"/>
      <point x="472" y="607" type="curve"/>
      <point x="531" y="708" type="line"/>
      <point x="491" y="728" type="line"/>
      <point x="445" y="648" type="line"/>
      <point x="409" y="684"/>
      <point x="361" y="705"/>
      <point x="297" y="705" type="curve" smooth="yes"/>
      <point x="121" y="705"/>
      <point x="59" y="543"/>
      <point x="59" y="345" type="curve" smooth="yes"/>
      <point x="59" y="238"/>
      <point x="80" y="147"/>
      <point x="124" y="80" type="curve"/>
      <point x="70" y="-14" type="line"/>
    </contour>
    <contour>
      <point x="165" y="157" type="line"/>
      <point x="140" y="206"/>
      <point x="128" y="268"/>
      <point x="128" y="345" type="curve" smooth="yes"/>
      <point x="128" y="524"/>
      <point x="183" y="648"/>
      <point x="297" y="648" type="curve" smooth="yes"/>
      <point x="346" y="648"/>
      <point x="385" y="625"/>
      <point x="413" y="587" type="curve"/>
    </contour>
    <contour>
      <point x="297" y="46" type="curve" smooth="yes"/>
      <point x="250" y="46"/>
      <point x="214" y="66"/>
      <point x="185" y="101" type="curve"/>
      <point x="433" y="531" type="line"/>
      <point x="453" y="482"/>
      <point x="466" y="419"/>
      <point x="466" y="345" type="curve" smooth="yes"/>
      <point x="466" y="166"/>
      <point x="412" y="46"/>
    </contour>
  </outline>
</glyph>
<glyph name="Thorn" format="2">
  <advance width="469"/>
  <unicode hex="00DE"/>
  <anchor x="234" y="0" name="bottom"/>
  <anchor x="234" y="693" name="top"/>
  <outline>
    <contour>
      <point x="84" y="0" type="line"/>
      <point x="149" y="0" type="line"/>
      <point x="149" y="143" type="line"/>
      <point x="203" y="143" type="line" smooth="yes"/>
      <point x="358" y="143"/>
      <point x="433" y="209"/>
      <point x="433" y="360" type="curve" smooth="yes"/>
      <point x="433" y="520"/>
      <point x="341" y="576"/>
      <point x="210" y="576" type="curve" smooth="yes"/>
      <point x="182" y="576"/>
      <point x="173" y="575"/>
      <point x="149" y="572" type="curve"/>
      <point x="149" y="693" type="line"/>
      <point x="84" y="693" type="line"/>
    </contour>
    <contour>
      <point x="149" y="202" type="line"/>
      <point x="149" y="513" type="line"/>
      <point x="167" y="516"/>
      <point x="197" y="517"/>
      <point x="211" y="517" type="curve" smooth="yes"/>
      <point x="329" y="517"/>
      <point x="364" y="464"/>
      <point x="364" y="360" type="curve" smooth="yes"/>
      <point x="364" y="237"/>
      <point x="295" y="202"/>
      <point x="201" y="202" type="curve" smooth="yes"/>
    </contour>
  </outline>
</glyph>
<glyph name="germandbls" format="2">
  <advance width="470"/>
  <unicode hex="00DF"/>
  <anchor x="236" y="0" name="bottom"/>
  <anchor x="236" y="776" name="top"/>
  <outline>
    <contour>
      <point x="293" y="-12" type="curve" smooth="yes"/>
      <point x="391" y="-12"/>
      <point x="439" y="71"/>
      <point x="439" y="164" type="curve" smooth="yes"/>
      <point x="439" y="212"/>
      <point x="435" y="262"/>
      <point x="390" y="299" type="curve" smooth="yes"/>
      <point x="303" y="371"/>
      <point x="297" y="390"/>
      <point x="297" y="412" type="curve" smooth="yes"/>
      <point x="297" y="430"/>
      <point x="312" y="452"/>
      <point x="334" y="485" type="curve" smooth="yes"/>
      <point x="378" y="540"/>
      <point x="389" y="580"/>
      <point x="389" y="631" type="curve" smooth="yes"/>
      <point x="389" y="715"/>
      <point x="330" y="776"/>
      <point x="241" y="776" type="curve" smooth="yes"/>
      <point x="136" y="776"/>
      <point x="79" y="717"/>
      <point x="79" y="586" type="curve" smooth="yes"/>
      <point x="79" y="0" type="line"/>
      <point x="148" y="0" type="line"/>
      <point x="148" y="588" type="line" smooth="yes"/>
      <point x="148" y="683"/>
      <point x="185" y="715"/>
      <point x="245" y="715" type="curve" smooth="yes"/>
      <point x="294" y="715"/>
      <point x="321" y="674"/>
      <point x="321" y="621" type="curve" smooth="yes"/>
      <point x="321" y="576"/>
      <point x="305" y="546"/>
      <point x="275" y="508" type="curve" smooth="yes"/>
      <point x="243" y="465"/>
      <point x="233" y="442"/>
      <point x="233" y="405" type="curve" smooth="yes"/>
      <point x="233" y="365"/>
      <point x="259" y="327"/>
      <point x="309" y="283" type="curve" smooth="yes"/>
      <point x="351" y="247"/>
      <point x="369" y="223"/>
      <point x="369" y="166" type="curve" smooth="yes"/>
      <point x="369" y="108"/>
      <point x="348" y="54"/>
      <point x="276" y="54" type="curve" smooth="yes"/>
      <point x="276" y="54"/>
      <point x="257" y="51"/>
      <point x="228" y="61" type="curve"/>
      <point x="215" y="1" type="line"/>
      <point x="253" y="-13"/>
      <point x="275" y="-12"/>
    </contour>
  </outline>
</glyph>
<glyph name="ae" format="2">
  <advance width="662"/>
  <unicode hex="00E6"/>
  <anchor x="331" y="0" name="bottom"/>
  <anchor x="331" y="518" name="top"/>
  <outline>
    <contour>
      <point x="212" y="-11" type="curve" smooth="yes"/>
      <point x="264" y="-11"/>
      <point x="306" y="1"/>
      <point x="352" y="30" type="curve"/>
      <point x="380" y="4"/>
      <point x="419" y="-11"/>
      <point x="476" y="-11" type="curve" smooth="yes"/>
      <point x="520" y="-11"/>
      <point x="563" y="4"/>
      <point x="586" y="20" type="curve"/>
      <point x="572" y="74" type="line"/>
      <point x="553" y="62"/>
      <point x="512" y="50"/>
      <point x="486" y="50" type="curve" smooth="yes"/>
      <point x="386" y="50"/>
      <point x="355" y="122"/>
      <point x="352" y="244" type="curve"/>
      <point x="609" y="244" type="line"/>
      <point x="610" y="258"/>
      <point x="610" y="270"/>
      <point x="610" y="293" type="curve" smooth="yes"/>
      <point x="610" y="431"/>
      <point x="577" y="536"/>
      <point x="455" y="536" type="curve" smooth="yes"/>
      <point x="387" y="536"/>
      <point x="347" y="499"/>
      <point x="324" y="450" type="curve"/>
      <point x="303" y="511"/>
      <point x="257" y="536"/>
      <point x="200" y="536" type="curve" smooth="yes"/>
      <point x="163" y="536"/>
      <point x="127" y="527"/>
      <point x="88" y="511" type="curve"/>
      <point x="105" y="452" type="line"/>
      <point x="140" y="468"/>
      <point x="172" y="472"/>
      <point x="185" y="472" type="curve" smooth="yes"/>
      <point x="240" y="472"/>
      <point x="284" y="458"/>
      <point x="284" y="354" type="curve" smooth="yes"/>
      <point x="284" y="302" type="line"/>
      <point x="247" y="310"/>
      <point x="225" y="312"/>
      <point x="201" y="312" type="curve" smooth="yes"/>
      <point x="100" y="312"/>
      <point x="43" y="254"/>
      <point x="43" y="152" type="curve" smooth="yes"/>
      <point x="43" y="45"/>
      <point x="109" y="-11"/>
    </contour>
    <contour>
      <point x="218" y="51" type="curve" smooth="yes"/>
      <point x="142" y="51"/>
      <point x="112" y="97"/>
      <point x="112" y="153" type="curve" smooth="yes"/>
      <point x="112" y="220"/>
      <point x="138" y="256"/>
      <point x="216" y="256" type="curve" smooth="yes"/>
      <point x="229" y="256"/>
      <point x="253" y="254"/>
      <point x="281" y="246" type="curve"/>
      <point x="283" y="182"/>
      <point x="291" y="126"/>
      <point x="316" y="81" type="curve"/>
      <point x="291" y="64"/>
      <point x="264" y="51"/>
    </contour>
    <contour>
      <point x="352" y="300" type="line"/>
      <point x="359" y="404"/>
      <point x="382" y="477"/>
      <point x="454" y="477" type="curve" smooth="yes"/>
      <point x="518" y="477"/>
      <point x="539" y="412"/>
      <point x="537" y="300" type="curve"/>
    </contour>
  </outline>
</glyph>
<glyph name="ccedilla" format="2">
  <advance width="347"/>
  <unicode hex="00E7"/>
  <outline>
    <contour>
      <point x="177" y="-188" type="curve" smooth="yes"/>
      <point x="221" y="-188"/>
      <point x="276" y="-167"/>
      <point x="276" y="-110" type="curve" smooth="yes"/>
      <point x="276" y="-81"/>
      <point x="264" y="-55"/>
      <point x="223" y="-40" type="curve"/>
      <point x="227" y="-30"/>
      <point x="231" y="-20"/>
      <point x="236" y="-10" type="curve"/>
      <point x="273" y="-9"/>
      <point x="307" y="3"/>
      <point x="330" y="20" type="curve"/>
      <point x="315" y="74" type="line"/>
      <point x="287" y="57"/>
      <point x="257" y="51"/>
      <point x="237" y="51" type="curve" smooth="yes"/>
      <point x="156" y="51"/>
      <point x="122" y="130"/>
      <point x="122" y="259" type="curve" smooth="yes"/>
      <point x="122" y="406"/>
      <point x="160" y="474"/>
      <point x="237" y="474" type="curve" smooth="yes"/>
      <point x="259" y="474"/>
      <point x="288" y="468"/>
      <point x="308" y="454" type="curve"/>
      <point x="326" y="511" type="line"/>
      <point x="297" y="525"/>
      <point x="276" y="535"/>
      <point x="237" y="535" type="curve" smooth="yes"/>
      <point x="112" y="535"/>
      <point x="51" y="436"/>
      <point x="51" y="259" type="curve" smooth="yes"/>
      <point x="51" y="120"/>
      <point x="88" y="19"/>
      <point x="184" y="-4" type="curve"/>
      <point x="176" y="-23"/>
      <point x="167" y="-44"/>
      <point x="160" y="-64" type="curve"/>
      <point x="206" y="-72"/>
      <point x="217" y="-85"/>
      <point x="217" y="-104" type="curve" smooth="yes"/>
      <point x="217" y="-130"/>
      <point x="194" y="-138"/>
      <point x="163" y="-138" type="curve" smooth="yes"/>
      <point x="153" y="-138"/>
      <point x="136" y="-134"/>
      <point x="123" y="-131" type="curve"/>
      <point x="115" y="-178" type="line"/>
      <point x="140" y="-187"/>
      <point x="159" y="-188"/>
    </contour>
  </outline>
</glyph>
<glyph name="eth" format="2">
  <advance width="454"/>
  <unicode hex="00F0"/>
  <anchor x="228" y="0" name="bottom"/>
  <anchor x="228" y="776" name="top"/>
  <outline>
    <contour>
      <point x="226" y="-10" type="curve" smooth="yes"/>
      <point x="331" y="-10"/>
      <point x="399" y="81"/>
      <point x="399" y="289" type="curve" smooth="yes"/>
      <point x="399" y="418"/>
      <point x="373" y="533"/>
      <point x="323" y="631" type="curve"/>
      <point x="413" y="673" type="line"/>
      <point x="392" y="721" type="line"/>
      <point x="298" y="676" type="line"/>
      <point x="276" y="711"/>
      <point x="249" y="745"/>
      <point x="220" y="775" type="curve"/>
      <point x="170" y="740" type="line"/>
      <point x="198" y="711"/>
      <point x="221" y="681"/>
      <point x="242" y="648" type="curve"/>
      <point x="155" y="608" type="line"/>
      <point x="176" y="561" type="line"/>
      <point x="264" y="601" type="line"/>
      <point x="285" y="565"/>
      <point x="299" y="523"/>
      <point x="310" y="467" type="curve"/>
      <point x="278" y="487"/>
      <point x="249" y="487"/>
      <point x="231" y="487" type="curve" smooth="yes"/>
      <point x="126" y="487"/>
      <point x="51" y="403"/>
      <point x="51" y="234" type="curve" smooth="yes"/>
      <point x="51" y="81"/>
      <point x="111" y="-10"/>
    </contour>
    <contour>
      <point x="222" y="50" type="curve" smooth="yes"/>
      <point x="166" y="50"/>
      <point x="123" y="97"/>
      <point x="123" y="232" type="curve" smooth="yes"/>
      <point x="123" y="370"/>
      <point x="168" y="431"/>
      <point x="239" y="431" type="curve" smooth="yes"/>
      <point x="274" y="431"/>
      <point x="301" y="417"/>
      <point x="321" y="401" type="curve"/>
      <point x="325" y="370"/>
      <point x="327" y="337"/>
      <point x="327" y="291" type="curve" smooth="yes"/>
      <point x="327" y="114"/>
      <point x="278" y="50"/>
    </contour>
  </outline>
</glyph>
<glyph name="divide" format="2">
  <advance width="430"/>
  <unicode hex="00F7"/>
  <outline>
    <contour>
      <point x="45" y="270" type="line"/>
      <point x="385" y="270" type="line"/>
      <point x="385" y="329" type="line"/>
      <point x="45" y="329" type="line"/>
    </contour>
    <contour>
      <point x="219" y="106" type="curve" smooth="yes"/>
      <point x="247" y="106"/>
      <point x="264" y="128"/>
      <point x="264" y="152" type="curve" smooth="yes"/>
      <point x="264" y="176"/>
      <point x="247" y="198"/>
      <point x="219" y="198" type="curve" smooth="yes"/>
      <point x="190" y="198"/>
      <point x="173" y="176"/>
      <point x="173" y="152" type="curve" smooth="yes"/>
      <point x="173" y="128"/>
      <point x="190" y="106"/>
    </contour>
    <contour>
      <point x="219" y="404" type="curve" smooth="yes"/>
      <point x="247" y="404"/>
      <point x="264" y="427"/>
      <point x="264" y="450" type="curve" smooth="yes"/>
      <point x="264" y="475"/>
      <point x="247" y="496"/>
      <point x="219" y="496" type="curve" smooth="yes"/>
      <point x="190" y="496"/>
      <point x="173" y="475"/>
      <point x="173" y="450" type="curve" smooth="yes"/>
      <point x="173" y="427"/>
      <point x="190" y="404"/>
    </contour>
  </outline>
</glyph>
<glyph name="oslash" format="2">
  <advance width="459"/>
  <unicode hex="00F8"/>
  <anchor x="230" y="518" name="top"/>
  <outline>
    <contour>
      <point x="83" y="-32" type="line"/>
      <point x="122" y="30" type="line"/>
      <point x="149" y="4"/>
      <point x="185" y="-10"/>
      <point x="230" y="-10" type="curve" smooth="yes"/>
      <point x="354" y="-10"/>
      <point x="408" y="101"/>
      <point x="408" y="263" type="curve" smooth="yes"/>
      <point x="408" y="336"/>
      <point x="395" y="400"/>
      <point x="371" y="448" type="curve"/>
      <point x="418" y="525" type="line"/>
      <point x="379" y="547" type="line"/>
      <point x="344" y="490" type="line"/>
      <point x="316" y="519"/>
      <point x="278" y="536"/>
      <point x="230" y="536" type="curve" smooth="yes"/>
      <point x="105" y="536"/>
      <point x="51" y="424"/>
      <point x="51" y="263" type="curve" smooth="yes"/>
      <point x="51" y="184"/>
      <point x="63" y="118"/>
      <point x="92" y="70" type="curve"/>
      <point x="44" y="-10" type="line"/>
    </contour>
    <contour>
      <point x="230" y="52" type="curve" smooth="yes"/>
      <point x="199" y="52"/>
      <point x="174" y="65"/>
      <point x="157" y="91" type="curve"/>
      <point x="322" y="362" type="line"/>
      <point x="332" y="334"/>
      <point x="336" y="301"/>
      <point x="336" y="263" type="curve" smooth="yes"/>
      <point x="336" y="137"/>
      <point x="305" y="52"/>
    </contour>
    <contour>
      <point x="140" y="152" type="line"/>
      <point x="128" y="182"/>
      <point x="122" y="220"/>
      <point x="122" y="263" type="curve" smooth="yes"/>
      <point x="122" y="387"/>
      <point x="153" y="474"/>
      <point x="230" y="474" type="curve" smooth="yes"/>
      <point x="263" y="474"/>
      <point x="290" y="456"/>
      <point x="307" y="426" type="curve"/>
    </contour>
  </outline>
</glyph>
<glyph name="thorn" format="2">
  <advance width="449"/>
  <unicode hex="00FE"/>
  <anchor x="224" y="0" name="bottom"/>
  <anchor x="224" y="515" name="top"/>
  <outline>
    <contour>
      <point x="82" y="-183" type="line"/>
      <point x="130" y="-183" type="line"/>
      <point x="130" y="20" type="line"/>
      <point x="171" y="-7"/>
      <point x="201" y="-7"/>
      <point x="218" y="-7" type="curve" smooth="yes"/>
      <point x="337" y="-7"/>
      <point x="395" y="82"/>
      <point x="395" y="266" type="curve" smooth="yes"/>
      <point x="395" y="426"/>
      <point x="355" y="536"/>
      <point x="229" y="536" type="curve" smooth="yes"/>
      <point x="185" y="536"/>
      <point x="138" y="513"/>
      <point x="130" y="496" type="curve"/>
      <point x="130" y="776" type="line"/>
      <point x="82" y="766" type="line"/>
    </contour>
    <contour>
      <point x="212" y="36" type="curve" smooth="yes"/>
      <point x="196" y="36"/>
      <point x="163" y="34"/>
      <point x="130" y="59" type="curve"/>
      <point x="130" y="449" type="line"/>
      <point x="168" y="478"/>
      <point x="198" y="493"/>
      <point x="227" y="493" type="curve" smooth="yes"/>
      <point x="318" y="493"/>
      <point x="345" y="411"/>
      <point x="345" y="267" type="curve" smooth="yes"/>
      <point x="345" y="77"/>
      <point x="274" y="36"/>
    </contour>
  </outline>
</glyph>
<glyph name="Aogonek" format="2">
  <advance width="473"/>
  <unicode hex="0104"/>
  <outline>
    <contour>
      <point x="402" y="-187" type="curve" smooth="yes"/>
      <point x="418" y="-187"/>
      <point x="429" y="-187"/>
      <point x="452" y="-178" type="curve"/>
      <point x="449" y="-137" type="line"/>
      <point x="435" y="-142"/>
      <point x="427" y="-144"/>
      <point x="420" y="-144" type="curve" smooth="yes"/>
      <point x="384" y="-144"/>
      <point x="366" y="-127"/>
      <point x="366" y="-94" type="curve" smooth="yes"/>
      <point x="366" y="-73"/>
      <point x="367" y="-52"/>
      <point x="450" y="-2" type="curve"/>
      <point x="385" y="310"/>
      <point x="334" y="470"/>
      <point x="263" y="693" type="curve"/>
      <point x="208" y="693" type="line"/>
      <point x="138" y="467"/>
      <point x="63" y="232"/>
      <point x="25" y="0" type="curve"/>
      <point x="71" y="0" type="line"/>
      <point x="82" y="60"/>
      <point x="96" y="126"/>
      <point x="112" y="194" type="curve"/>
      <point x="359" y="194" type="line"/>
      <point x="376" y="126"/>
      <point x="391" y="61"/>
      <point x="402" y="0" type="curve"/>
      <point x="402" y="0" type="line"/>
      <point x="331" y="-50"/>
      <point x="328" y="-77"/>
      <point x="328" y="-106" type="curve" smooth="yes"/>
      <point x="328" y="-158"/>
      <point x="374" y="-187"/>
    </contour>
    <contour>
      <point x="120" y="239" type="line"/>
      <point x="162" y="391"/>
      <point x="177" y="454"/>
      <point x="235" y="633" type="curve"/>
      <point x="296" y="454"/>
      <point x="309" y="395"/>
      <point x="352" y="239" type="curve"/>
    </contour>
  </outline>
</glyph>
<glyph name="aogonek" format="2">
  <advance width="423"/>
  <unicode hex="0105"/>
  <outline>
    <contour>
      <point x="286" y="-187" type="curve" smooth="yes"/>
      <point x="302" y="-187"/>
      <point x="313" y="-187"/>
      <point x="335" y="-178" type="curve"/>
      <point x="333" y="-137" type="line"/>
      <point x="318" y="-142"/>
      <point x="311" y="-144"/>
      <point x="303" y="-144" type="curve" smooth="yes"/>
      <point x="268" y="-144"/>
      <point x="251" y="-126"/>
      <point x="251" y="-91" type="curve" smooth="yes"/>
      <point x="251" y="-66"/>
      <point x="252" y="-44"/>
      <point x="346" y="13" type="curve"/>
      <point x="346" y="364" type="line" smooth="yes"/>
      <point x="346" y="495"/>
      <point x="275" y="533"/>
      <point x="199" y="533" type="curve" smooth="yes"/>
      <point x="169" y="533"/>
      <point x="138" y="527"/>
      <point x="91" y="508" type="curve"/>
      <point x="105" y="465" type="line"/>
      <point x="148" y="485"/>
      <point x="188" y="487"/>
      <point x="182" y="487" type="curve" smooth="yes"/>
      <point x="240" y="487"/>
      <point x="300" y="488"/>
      <point x="300" y="351" type="curve" smooth="yes"/>
      <point x="300" y="295" type="line"/>
      <point x="249" y="307"/>
      <point x="227" y="307"/>
      <point x="200" y="307" type="curve" smooth="yes"/>
      <point x="89" y="307"/>
      <point x="46" y="246"/>
      <point x="46" y="152" type="curve" smooth="yes"/>
      <point x="46" y="52"/>
      <point x="107" y="-5"/>
      <point x="230" y="-5" type="curve" smooth="yes"/>
      <point x="236" y="-5"/>
      <point x="246" y="-5"/>
      <point x="265" y="-2" type="curve"/>
      <point x="213" y="-47"/>
      <point x="212" y="-79"/>
      <point x="212" y="-102" type="curve" smooth="yes"/>
      <point x="212" y="-157"/>
      <point x="257" y="-187"/>
    </contour>
    <contour>
      <point x="226" y="37" type="curve" smooth="yes"/>
      <point x="128" y="37"/>
      <point x="94" y="83"/>
      <point x="94" y="153" type="curve" smooth="yes"/>
      <point x="94" y="215"/>
      <point x="102" y="269"/>
      <point x="218" y="269" type="curve" smooth="yes"/>
      <point x="228" y="269"/>
      <point x="259" y="269"/>
      <point x="300" y="257" type="curve"/>
      <point x="300" y="44" type="line"/>
      <point x="261" y="36"/>
      <point x="231" y="37"/>
    </contour>
  </outline>
</glyph>
<glyph name="dcroat" format="2">
  <advance width="456"/>
  <unicode hex="0111"/>
  <outline>
    <contour>
      <point x="248" y="-9" type="curve" smooth="yes"/>
      <point x="281" y="-9"/>
      <point x="331" y="-3"/>
      <point x="374" y="17" type="curve"/>
      <point x="374" y="631" type="line"/>
      <point x="456" y="631" type="line"/>
      <point x="456" y="680" type="line"/>
      <point x="374" y="680" type="line"/>
      <point x="374" y="776" type="line"/>
      <point x="313" y="764" type="line"/>
      <point x="313" y="680" type="line"/>
      <point x="193" y="680" type="line"/>
      <point x="193" y="631" type="line"/>
      <point x="313" y="631" type="line"/>
      <point x="313" y="510" type="line"/>
      <point x="277" y="532"/>
      <point x="254" y="536"/>
      <point x="232" y="536" type="curve" smooth="yes"/>
      <point x="110" y="536"/>
      <point x="52" y="437"/>
      <point x="52" y="264" type="curve" smooth="yes"/>
      <point x="52" y="83"/>
      <point x="107" y="-9"/>
    </contour>
    <contour>
      <point x="257" y="45" type="curve" smooth="yes"/>
      <point x="150" y="45"/>
      <point x="115" y="114"/>
      <point x="115" y="264" type="curve" smooth="yes"/>
      <point x="115" y="440"/>
      <point x="175" y="481"/>
      <point x="238" y="481" type="curve" smooth="yes"/>
      <point x="258" y="481"/>
      <point x="280" y="480"/>
      <point x="313" y="457" type="curve"/>
      <point x="313" y="55" type="line"/>
      <point x="286" y="46"/>
      <point x="259" y="45"/>
    </contour>
  </outline>
</glyph>
<glyph name="Eogonek" format="2">
  <advance width="435"/>
  <unicode hex="0118"/>
  <anchor x="217" y="693" name="top"/>
  <outline>
    <contour>
      <point x="336" y="-187" type="curve" smooth="yes"/>
      <point x="352" y="-187"/>
      <point x="363" y="-187"/>
      <point x="386" y="-178" type="curve"/>
      <point x="384" y="-137" type="line"/>
      <point x="369" y="-142"/>
      <point x="362" y="-144"/>
      <point x="354" y="-144" type="curve" smooth="yes"/>
      <point x="319" y="-144"/>
      <point x="300" y="-127"/>
      <point x="300" y="-94" type="curve" smooth="yes"/>
      <point x="300" y="-73"/>
      <point x="301" y="-54"/>
      <point x="384" y="-2" type="curve"/>
      <point x="384" y="46" type="line"/>
      <point x="141" y="46" type="line"/>
      <point x="141" y="341" type="line"/>
      <point x="347" y="341" type="line"/>
      <point x="347" y="386" type="line"/>
      <point x="141" y="386" type="line"/>
      <point x="141" y="647" type="line"/>
      <point x="371" y="647" type="line"/>
      <point x="371" y="693" type="line"/>
      <point x="89" y="693" type="line"/>
      <point x="89" y="0" type="line"/>
      <point x="326" y="0" type="line"/>
      <point x="259" y="-54"/>
      <point x="262" y="-79"/>
      <point x="262" y="-106" type="curve" smooth="yes"/>
      <point x="262" y="-158"/>
      <point x="308" y="-187"/>
    </contour>
  </outline>
</glyph>
<glyph name="eogonek" format="2">
  <advance width="430"/>
  <unicode hex="0119"/>
  <anchor x="216" y="517" name="top"/>
  <outline>
    <contour>
      <point x="295" y="-187" type="curve" smooth="yes"/>
      <point x="313" y="-187"/>
      <point x="327" y="-185"/>
      <point x="349" y="-177" type="curve"/>
      <point x="346" y="-129" type="line"/>
      <point x="332" y="-133"/>
      <point x="323" y="-135"/>
      <point x="313" y="-135" type="curve" smooth="yes"/>
      <point x="282" y="-135"/>
      <point x="264" y="-119"/>
      <point x="264" y="-86" type="curve" smooth="yes"/>
      <point x="264" y="-44"/>
      <point x="304" y="-4"/>
      <point x="353" y="21" type="curve"/>
      <point x="340" y="69" type="line"/>
      <point x="319" y="55"/>
      <point x="277" y="44"/>
      <point x="256" y="44" type="curve" smooth="yes"/>
      <point x="151" y="44"/>
      <point x="116" y="120"/>
      <point x="114" y="247" type="curve"/>
      <point x="376" y="247" type="line"/>
      <point x="377" y="265"/>
      <point x="377" y="281"/>
      <point x="377" y="297" type="curve" smooth="yes"/>
      <point x="377" y="423"/>
      <point x="348" y="535"/>
      <point x="224" y="535" type="curve" smooth="yes"/>
      <point x="93" y="535"/>
      <point x="53" y="419"/>
      <point x="53" y="266" type="curve" smooth="yes"/>
      <point x="53" y="84"/>
      <point x="107" y="-6"/>
      <point x="236" y="-11" type="curve" smooth="yes"/>
      <point x="239" y="-11"/>
      <point x="242" y="-11"/>
      <point x="246" y="-10" type="curve"/>
      <point x="212" y="-48"/>
      <point x="212" y="-75"/>
      <point x="212" y="-100" type="curve" smooth="yes"/>
      <point x="212" y="-155"/>
      <point x="256" y="-187"/>
    </contour>
    <contour>
      <point x="114" y="296" type="line"/>
      <point x="121" y="404"/>
      <point x="144" y="483"/>
      <point x="223" y="483" type="curve" smooth="yes"/>
      <point x="291" y="483"/>
      <point x="314" y="416"/>
      <point x="312" y="296" type="curve"/>
    </contour>
  </outline>
</glyph>
<glyph name="Hbar" format="2">
  <advance width="559"/>
  <unicode hex="0126"/>
  <outline>
    <contour>
      <point x="88" y="0" type="line"/>
      <point x="139" y="0" type="line"/>
      <point x="139" y="338" type="line"/>
      <point x="419" y="338" type="line"/>
      <point x="419" y="0" type="line"/>
      <point x="471" y="0" type="line"/>
      <point x="471" y="529" type="line"/>
      <point x="536" y="529" type="line"/>
      <point x="536" y="571" type="line"/>
      <point x="471" y="571" type="line"/>
      <point x="471" y="693" type="line"/>
      <point x="419" y="693" type="line"/>
      <point x="419" y="571" type="line"/>
      <point x="139" y="571" type="line"/>
      <point x="139" y="693" type="line"/>
      <point x="88" y="693" type="line"/>
      <point x="88" y="571" type="line"/>
      <point x="20" y="571" type="line"/>
      <point x="20" y="529" type="line"/>
      <point x="88" y="529" type="line"/>
    </contour>
    <contour>
      <point x="139" y="385" type="line"/>
      <point x="139" y="529" type="line"/>
      <point x="419" y="529" type="line"/>
      <point x="419" y="385" type="line"/>
    </contour>
  </outline>
</glyph>
<glyph name="hbar" format="2">
  <advance width="471"/>
  <unicode hex="0127"/>
  <outline>
    <contour>
      <point x="81" y="-1" type="line"/>
      <point x="142" y="-1" type="line"/>
      <point x="142" y="461" type="line"/>
      <point x="182" y="476"/>
      <point x="202" y="479"/>
      <point x="228" y="479" type="curve" smooth="yes"/>
      <point x="310" y="479"/>
      <point x="333" y="419"/>
      <point x="333" y="309" type="curve" smooth="yes"/>
      <point x="333" y="0" type="line"/>
      <point x="394" y="0" type="line"/>
      <point x="394" y="314" type="line" smooth="yes"/>
      <point x="394" y="490"/>
      <point x="326" y="533"/>
      <point x="246" y="533" type="curve" smooth="yes"/>
      <point x="208" y="533"/>
      <point x="173" y="524"/>
      <point x="142" y="513" type="curve"/>
      <point x="142" y="631" type="line"/>
      <point x="280" y="631" type="line"/>
      <point x="280" y="680" type="line"/>
      <point x="142" y="680" type="line"/>
      <point x="142" y="776" type="line"/>
      <point x="81" y="764" type="line"/>
      <point x="81" y="680" type="line"/>
      <point x="14" y="680" type="line"/>
      <point x="14" y="631" type="line"/>
      <point x="81" y="631" type="line"/>
    </contour>
  </outline>
</glyph>
<glyph name="Iogonek" format="2">
  <advance width="245"/>
  <unicode hex="012E"/>
  <outline>
    <contour>
      <point x="105" y="-187" type="curve" smooth="yes"/>
      <point x="124" y="-187"/>
      <point x="141" y="-185"/>
      <point x="161" y="-177" type="curve"/>
      <point x="158" y="-124" type="line"/>
      <point x="144" y="-129"/>
      <point x="135" y="-131"/>
      <point x="124" y="-131" type="curve" smooth="yes"/>
      <point x="95" y="-131"/>
      <point x="77" y="-118"/>
      <point x="77" y="-88" type="curve" smooth="yes"/>
      <point x="77" y="-63"/>
      <point x="95" y="-38"/>
      <point x="159" y="0" type="curve"/>
      <point x="159" y="693" type="line"/>
      <point x="86" y="693" type="line"/>
      <point x="86" y="11" type="line"/>
      <point x="86" y="11" type="line"/>
      <point x="32" y="-29"/>
      <point x="17" y="-69"/>
      <point x="17" y="-106" type="curve" smooth="yes"/>
      <point x="17" y="-157"/>
      <point x="60" y="-187"/>
    </contour>
  </outline>
</glyph>
<glyph name="iogonek" format="2">
  <advance width="228"/>
  <unicode hex="012F"/>
  <outline>
    <contour>
      <point x="98" y="-187" type="curve" smooth="yes"/>
      <point x="115" y="-187"/>
      <point x="130" y="-185"/>
      <point x="152" y="-177" type="curve"/>
      <point x="148" y="-129" type="line"/>
      <point x="135" y="-133"/>
      <point x="126" y="-135"/>
      <point x="116" y="-135" type="curve" smooth="yes"/>
      <point x="85" y="-135"/>
      <point x="67" y="-121"/>
      <point x="67" y="-90" type="curve" smooth="yes"/>
      <point x="67" y="-67"/>
      <point x="86" y="-37"/>
      <point x="145" y="0" type="curve"/>
      <point x="145" y="522" type="line"/>
      <point x="84" y="522" type="line"/>
      <point x="84" y="11" type="line"/>
      <point x="84" y="11" type="line"/>
      <point x="27" y="-35"/>
      <point x="15" y="-69"/>
      <point x="15" y="-106" type="curve" smooth="yes"/>
      <point x="15" y="-157"/>
      <point x="59" y="-187"/>
    </contour>
    <contour>
      <point x="115" y="629" type="curve" smooth="yes"/>
      <point x="139" y="629"/>
      <point x="158" y="647"/>
      <point x="158" y="673" type="curve" smooth="yes"/>
      <point x="158" y="698"/>
      <point x="139" y="717"/>
      <point x="115" y="717" type="curve" smooth="yes"/>
      <point x="90" y="717"/>
      <point x="71" y="698"/>
      <point x="71" y="673" type="curve" smooth="yes"/>
      <point x="71" y="647"/>
      <point x="90" y="629"/>
    </contour>
  </outline>
</glyph>
<glyph name="dotlessi" format="2">
  <advance width="221"/>
  <unicode hex="0131"/>
  <anchor x="110" y="0" name="bottom"/>
  <anchor x="200" y="10" name="ogonek"/>
  <anchor x="110" y="515" name="top"/>
  <outline>
    <contour>
      <point x="87" y="0" type="line"/>
      <point x="135" y="0" type="line"/>
      <point x="135" y="520" type="line"/>
      <point x="87" y="520" type="line"/>
    </contour>
  </outline>
</glyph>
<glyph name="kgreenlandic" format="2">
  <advance width="390"/>
  <unicode hex="0138"/>
  <anchor x="198" y="0" name="bottom"/>
  <anchor x="198" y="517" name="top"/>
  <outline>
    <contour>
      <point x="79" y="0" type="line"/>
      <point x="139" y="0" type="line"/>
      <point x="139" y="255" type="line"/>
      <point x="213" y="186"/>
      <point x="277" y="91"/>
      <point x="319" y="0" type="curve"/>
      <point x="385" y="0" type="line"/>
      <point x="343" y="95"/>
      <point x="268" y="204"/>
      <point x="192" y="278" type="curve"/>
      <point x="254" y="353"/>
      <point x="313" y="431"/>
      <point x="366" y="521" type="curve"/>
      <point x="302" y="521" type="line"/>
      <point x="258" y="447"/>
      <point x="202" y="370"/>
      <point x="139" y="292" type="curve"/>
      <point x="139" y="521" type="line"/>
      <point x="79" y="521" type="line"/>
    </contour>
  </outline>
</glyph>
<glyph name="Lslash" format="2">
  <advance width="405"/>
  <unicode hex="0141"/>
  <outline>
    <contour>
      <point x="94" y="0" type="line"/>
      <point x="388" y="0" type="line"/>
      <point x="388" y="63" type="line"/>
      <point x="167" y="63" type="line"/>
      <point x="167" y="337" type="line"/>
      <point x="302" y="420" type="line"/>
      <point x="272" y="466" type="line"/>
      <point x="167" y="401" type="line"/>
      <point x="167" y="693" type="line"/>
      <point x="94" y="693" type="line"/>
      <point x="94" y="355" type="line"/>
      <point x="9" y="303" type="line"/>
      <point x="38" y="257" type="line"/>
      <point x="94" y="291" type="line"/>
    </contour>
  </outline>
</glyph>
<glyph name="lslash" format="2">
  <advance width="213"/>
  <unicode hex="0142"/>
  <outline>
    <contour>
      <point x="177" y="-3" type="curve"/>
      <point x="185" y="40" type="line"/>
      <point x="134" y="50"/>
      <point x="122" y="90"/>
      <point x="122" y="119" type="curve" smooth="yes"/>
      <point x="122" y="399" type="line"/>
      <point x="192" y="441" type="line"/>
      <point x="169" y="472" type="line"/>
      <point x="122" y="443" type="line"/>
      <point x="122" y="776" type="line"/>
      <point x="75" y="766" type="line"/>
      <point x="75" y="413" type="line"/>
      <point x="1" y="370" type="line"/>
      <point x="23" y="339" type="line"/>
      <point x="75" y="370" type="line"/>
      <point x="75" y="123" type="line" smooth="yes"/>
      <point x="75" y="57"/>
      <point x="101" y="3"/>
    </contour>
  </outline>
</glyph>
<glyph name="Eng" format="2">
  <advance width="575"/>
  <unicode hex="014A"/>
  <anchor x="288" y="0" name="bottom"/>
  <anchor x="288" y="693" name="top"/>
  <outline>
    <contour>
      <point x="371" y="-190" type="curve" smooth="yes"/>
      <point x="445" y="-190"/>
      <point x="489" y="-140"/>
      <point x="489" y="-46" type="curve" smooth="yes"/>
      <point x="489" y="693" type="line"/>
      <point x="422" y="693" type="line"/>
      <point x="422" y="166" type="line"/>
      <point x="361" y="320"/>
      <point x="256" y="519"/>
      <point x="148" y="693" type="curve"/>
      <point x="86" y="693" type="line"/>
      <point x="86" y="0" type="line"/>
      <point x="153" y="0" type="line"/>
      <point x="153" y="558" type="line"/>
      <point x="245" y="404"/>
      <point x="355" y="190"/>
      <point x="422" y="23" type="curve"/>
      <point x="422" y="-37" type="line" smooth="yes"/>
      <point x="422" y="-110"/>
      <point x="403" y="-126"/>
      <point x="366" y="-126" type="curve" smooth="yes"/>
      <point x="357" y="-126"/>
      <point x="342" y="-124"/>
      <point x="329" y="-121" type="curve"/>
      <point x="319" y="-181" type="line"/>
      <point x="336" y="-188"/>
      <point x="356" y="-190"/>
    </contour>
  </outline>
</glyph>
<glyph name="eng" format="2">
  <advance width="474"/>
  <unicode hex="014B"/>
  <anchor x="237" y="0" name="bottom"/>
  <anchor x="237" y="518" name="top"/>
  <outline>
    <contour>
      <point x="281" y="-190" type="curve" smooth="yes"/>
      <point x="338" y="-190"/>
      <point x="399" y="-165"/>
      <point x="399" y="-46" type="curve" smooth="yes"/>
      <point x="399" y="315" type="line" smooth="yes"/>
      <point x="399" y="497"/>
      <point x="323" y="534"/>
      <point x="231" y="534" type="curve" smooth="yes"/>
      <point x="190" y="534"/>
      <point x="129" y="523"/>
      <point x="80" y="507" type="curve"/>
      <point x="80" y="0" type="line"/>
      <point x="149" y="0" type="line"/>
      <point x="149" y="458" type="line"/>
      <point x="176" y="466"/>
      <point x="204" y="473"/>
      <point x="227" y="473" type="curve" smooth="yes"/>
      <point x="301" y="473"/>
      <point x="330" y="423"/>
      <point x="330" y="313" type="curve" smooth="yes"/>
      <point x="330" y="-42" type="line" smooth="yes"/>
      <point x="330" y="-116"/>
      <point x="308" y="-130"/>
      <point x="276" y="-130" type="curve" smooth="yes"/>
      <point x="265" y="-130"/>
      <point x="254" y="-128"/>
      <point x="243" y="-125" type="curve"/>
      <point x="233" y="-180" type="line"/>
      <point x="249" y="-188"/>
      <point x="264" y="-190"/>
    </contour>
  </outline>
</glyph>
<glyph name="OE" format="2">
  <advance width="752"/>
  <unicode hex="0152"/>
  <anchor x="376" y="0" name="bottom"/>
  <anchor x="376" y="693" name="top"/>
  <outline>
    <contour>
      <point x="334" y="-9" type="curve" smooth="yes"/>
      <point x="375" y="-9"/>
      <point x="397" y="-6"/>
      <point x="431" y="0" type="curve"/>
      <point x="714" y="0" type="line"/>
      <point x="714" y="63" type="line"/>
      <point x="473" y="63" type="line"/>
      <point x="473" y="333" type="line"/>
      <point x="677" y="333" type="line"/>
      <point x="677" y="394" type="line"/>
      <point x="473" y="394" type="line"/>
      <point x="473" y="630" type="line"/>
      <point x="698" y="630" type="line"/>
      <point x="698" y="693" type="line"/>
      <point x="443" y="693" type="line"/>
      <point x="411" y="699"/>
      <point x="371" y="703"/>
      <point x="333" y="703" type="curve" smooth="yes"/>
      <point x="165" y="703"/>
      <point x="57" y="599"/>
      <point x="57" y="347" type="curve" smooth="yes"/>
      <point x="57" y="81"/>
      <point x="177" y="-9"/>
    </contour>
    <contour>
      <point x="332" y="57" type="curve" smooth="yes"/>
      <point x="205" y="57"/>
      <point x="134" y="136"/>
      <point x="134" y="347" type="curve" smooth="yes"/>
      <point x="134" y="539"/>
      <point x="184" y="637"/>
      <point x="334" y="637" type="curve" smooth="yes"/>
      <point x="340" y="637"/>
      <point x="369" y="638"/>
      <point x="401" y="630" type="curve"/>
      <point x="401" y="65" type="line"/>
      <point x="360" y="56"/>
      <point x="337" y="57"/>
    </contour>
  </outline>
</glyph>
<glyph name="oe" format="2">
  <advance width="720"/>
  <unicode hex="0153"/>
  <anchor x="361" y="0" name="bottom"/>
  <anchor x="361" y="517" name="top"/>
  <outline>
    <contour>
      <point x="229" y="-9" type="curve" smooth="yes"/>
      <point x="296" y="-9"/>
      <point x="348" y="30"/>
      <point x="373" y="97" type="curve"/>
      <point x="397" y="29"/>
      <point x="455" y="-10"/>
      <point x="533" y="-10" type="curve" smooth="yes"/>
      <point x="572" y="-10"/>
      <point x="615" y="4"/>
      <point x="640" y="21" type="curve"/>
      <point x="627" y="69" type="line"/>
      <point x="606" y="55"/>
      <point x="564" y="44"/>
      <point x="543" y="44" type="curve" smooth="yes"/>
      <point x="439" y="44"/>
      <point x="406" y="118"/>
      <point x="403" y="247" type="curve"/>
      <point x="663" y="247" type="line"/>
      <point x="664" y="260"/>
      <point x="664" y="270"/>
      <point x="664" y="297" type="curve" smooth="yes"/>
      <point x="664" y="420"/>
      <point x="636" y="535"/>
      <point x="512" y="535" type="curve" smooth="yes"/>
      <point x="431" y="535"/>
      <point x="393" y="481"/>
      <point x="372" y="429" type="curve"/>
      <point x="345" y="495"/>
      <point x="295" y="535"/>
      <point x="229" y="535" type="curve" smooth="yes"/>
      <point x="104" y="535"/>
      <point x="53" y="421"/>
      <point x="53" y="263" type="curve" smooth="yes"/>
      <point x="53" y="104"/>
      <point x="104" y="-9"/>
    </contour>
    <contour>
      <point x="229" y="46" type="curve" smooth="yes"/>
      <point x="152" y="46"/>
      <point x="116" y="131"/>
      <point x="116" y="263" type="curve" smooth="yes"/>
      <point x="116" y="394"/>
      <point x="152" y="480"/>
      <point x="229" y="480" type="curve" smooth="yes"/>
      <point x="306" y="480"/>
      <point x="340" y="394"/>
      <point x="340" y="263" type="curve" smooth="yes"/>
      <point x="340" y="131"/>
      <point x="306" y="46"/>
    </contour>
    <contour>
      <point x="402" y="296" type="line"/>
      <point x="411" y="398"/>
      <point x="433" y="483"/>
      <point x="511" y="483" type="curve" smooth="yes"/>
      <point x="579" y="483"/>
      <point x="601" y="406"/>
      <point x="599" y="296" type="curve"/>
    </contour>
  </outline>
</glyph>
<glyph name="Scedilla" format="2">
  <advance width="391"/>
  <unicode hex="015E"/>
  <outline>
    <contour>
      <point x="154" y="-188" type="curve" smooth="yes"/>
      <point x="198" y="-188"/>
      <point x="253" y="-167"/>
      <point x="253" y="-110" type="curve" smooth="yes"/>
      <point x="253" y="-81"/>
      <point x="241" y="-55"/>
      <point x="200" y="-40" type="curve"/>
      <point x="204" y="-30"/>
      <point x="209" y="-19"/>
      <point x="214" y="-8" type="curve"/>
      <point x="321" y="9"/>
      <point x="364" y="90"/>
      <point x="364" y="180" type="curve" smooth="yes"/>
      <point x="364" y="271"/>
      <point x="313" y="328"/>
      <point x="239" y="373" type="curve" smooth="yes"/>
      <point x="155" y="421"/>
      <point x="113" y="459"/>
      <point x="113" y="530" type="curve" smooth="yes"/>
      <point x="113" y="601"/>
      <point x="153" y="644"/>
      <point x="232" y="644" type="curve" smooth="yes"/>
      <point x="264" y="644"/>
      <point x="297" y="635"/>
      <point x="327" y="619" type="curve"/>
      <point x="350" y="675" type="line"/>
      <point x="318" y="695"/>
      <point x="271" y="706"/>
      <point x="227" y="706" type="curve" smooth="yes"/>
      <point x="119" y="706"/>
      <point x="41" y="638"/>
      <point x="41" y="529" type="curve" smooth="yes"/>
      <point x="41" y="421"/>
      <point x="110" y="367"/>
      <point x="186" y="321" type="curve" smooth="yes"/>
      <point x="262" y="278"/>
      <point x="289" y="231"/>
      <point x="289" y="176" type="curve" smooth="yes"/>
      <point x="289" y="101"/>
      <point x="245" y="51"/>
      <point x="161" y="51" type="curve" smooth="yes"/>
      <point x="132" y="51"/>
      <point x="96" y="56"/>
      <point x="48" y="85" type="curve"/>
      <point x="25" y="28" type="line"/>
      <point x="73" y="-3"/>
      <point x="114" y="-10"/>
      <point x="159" y="-11" type="curve"/>
      <point x="152" y="-28"/>
      <point x="143" y="-47"/>
      <point x="137" y="-64" type="curve"/>
      <point x="183" y="-72"/>
      <point x="194" y="-85"/>
      <point x="194" y="-104" type="curve" smooth="yes"/>
      <point x="194" y="-130"/>
      <point x="171" y="-138"/>
      <point x="140" y="-138" type="curve" smooth="yes"/>
      <point x="130" y="-138"/>
      <point x="113" y="-134"/>
      <point x="100" y="-131" type="curve"/>
      <point x="92" y="-178" type="line"/>
      <point x="117" y="-187"/>
      <point x="137" y="-188"/>
    </contour>
  </outline>
</glyph>
<glyph name="scedilla" format="2">
  <advance width="331"/>
  <unicode hex="015F"/>
  <outline>
    <contour>
      <point x="138" y="-188" type="curve" smooth="yes"/>
      <point x="183" y="-188"/>
      <point x="238" y="-167"/>
      <point x="238" y="-110" type="curve" smooth="yes"/>
      <point x="238" y="-81"/>
      <point x="225" y="-55"/>
      <point x="184" y="-40" type="curve"/>
      <point x="189" y="-29"/>
      <point x="194" y="-16"/>
      <point x="200" y="-5" type="curve"/>
      <point x="271" y="13"/>
      <point x="304" y="67"/>
      <point x="304" y="141" type="curve" smooth="yes"/>
      <point x="304" y="211"/>
      <point x="272" y="250"/>
      <point x="200" y="288" type="curve" smooth="yes"/>
      <point x="143" y="318"/>
      <point x="115" y="345"/>
      <point x="115" y="395" type="curve" smooth="yes"/>
      <point x="115" y="444"/>
      <point x="142" y="477"/>
      <point x="194" y="477" type="curve" smooth="yes"/>
      <point x="207" y="477"/>
      <point x="235" y="475"/>
      <point x="269" y="458" type="curve"/>
      <point x="284" y="511" type="line"/>
      <point x="256" y="527"/>
      <point x="215" y="536"/>
      <point x="189" y="536" type="curve" smooth="yes"/>
      <point x="104" y="536"/>
      <point x="48" y="480"/>
      <point x="48" y="396" type="curve" smooth="yes"/>
      <point x="48" y="329"/>
      <point x="69" y="287"/>
      <point x="133" y="253" type="curve" smooth="yes"/>
      <point x="189" y="223"/>
      <point x="234" y="198"/>
      <point x="234" y="139" type="curve" smooth="yes"/>
      <point x="234" y="90"/>
      <point x="209" y="49"/>
      <point x="152" y="49" type="curve" smooth="yes"/>
      <point x="126" y="49"/>
      <point x="90" y="57"/>
      <point x="50" y="77" type="curve"/>
      <point x="36" y="21" type="line"/>
      <point x="65" y="5"/>
      <point x="116" y="-7"/>
      <point x="144" y="-9" type="curve"/>
      <point x="136" y="-26"/>
      <point x="127" y="-46"/>
      <point x="121" y="-64" type="curve"/>
      <point x="167" y="-72"/>
      <point x="179" y="-85"/>
      <point x="179" y="-104" type="curve" smooth="yes"/>
      <point x="179" y="-130"/>
      <point x="155" y="-138"/>
      <point x="124" y="-138" type="curve" smooth="yes"/>
      <point x="114" y="-138"/>
      <point x="98" y="-134"/>
      <point x="85" y="-131" type="curve"/>
      <point x="76" y="-178" type="line"/>
      <point x="102" y="-187"/>
      <point x="121" y="-188"/>
    </contour>
  </outline>
</glyph>
<glyph name="uni0162" format="2">
  <advance width="408"/>
  <unicode hex="0162"/>
  <outline>
    <contour>
      <point x="168" y="-187" type="curve" smooth="yes"/>
      <point x="196" y="-187"/>
      <point x="262" y="-175"/>
      <point x="262" y="-110" type="curve" smooth="yes"/>
      <point x="262" y="-84"/>
      <point x="252" y="-54"/>
      <point x="207" y="-40" type="curve"/>
      <point x="214" y="-26"/>
      <point x="220" y="-13"/>
      <point x="226" y="0" type="curve"/>
      <point x="229" y="0" type="line"/>
      <point x="229" y="647" type="line"/>
      <point x="388" y="647" type="line"/>
      <point x="388" y="693" type="line"/>
      <point x="19" y="693" type="line"/>
      <point x="19" y="647" type="line"/>
      <point x="178" y="647" type="line"/>
      <point x="178" y="0" type="line"/>
      <point x="185" y="0" type="line"/>
      <point x="176" y="-16"/>
      <point x="167" y="-38"/>
      <point x="157" y="-57" type="curve"/>
      <point x="211" y="-65"/>
      <point x="221" y="-82"/>
      <point x="221" y="-105" type="curve" smooth="yes"/>
      <point x="221" y="-137"/>
      <point x="194" y="-147"/>
      <point x="154" y="-147" type="curve" smooth="yes"/>
      <point x="152" y="-147"/>
      <point x="133" y="-143"/>
      <point x="120" y="-141" type="curve"/>
      <point x="114" y="-178" type="line"/>
      <point x="143" y="-187"/>
      <point x="154" y="-187"/>
    </contour>
  </outline>
</glyph>
<glyph name="uni0163" format="2">
  <advance width="299"/>
  <unicode hex="0163"/>
  <outline>
    <contour>
      <point x="150" y="-187" type="curve" smooth="yes"/>
      <point x="182" y="-187"/>
      <point x="245" y="-171"/>
      <point x="245" y="-110" type="curve" smooth="yes"/>
      <point x="245" y="-85"/>
      <point x="234" y="-55"/>
      <point x="190" y="-40" type="curve"/>
      <point x="195" y="-28"/>
      <point x="200" y="-16"/>
      <point x="205" y="-5" type="curve"/>
      <point x="223" y="-6"/>
      <point x="242" y="-6"/>
      <point x="279" y="13" type="curve"/>
      <point x="271" y="53" type="line"/>
      <point x="253" y="42"/>
      <point x="221" y="38"/>
      <point x="217" y="38" type="curve" smooth="yes"/>
      <point x="157" y="38"/>
      <point x="126" y="75"/>
      <point x="126" y="144" type="curve" smooth="yes"/>
      <point x="126" y="477" type="line"/>
      <point x="261" y="477" type="line"/>
      <point x="261" y="520" type="line"/>
      <point x="126" y="520" type="line"/>
      <point x="126" y="681" type="line"/>
      <point x="78" y="671" type="line"/>
      <point x="78" y="148" type="line" smooth="yes"/>
      <point x="78" y="107"/>
      <point x="71" y="20"/>
      <point x="164" y="1" type="curve"/>
      <point x="149" y="-30"/>
      <point x="142" y="-56"/>
      <point x="139" y="-57" type="curve"/>
      <point x="193" y="-65"/>
      <point x="204" y="-83"/>
      <point x="204" y="-105" type="curve" smooth="yes"/>
      <point x="204" y="-136"/>
      <point x="176" y="-147"/>
      <point x="136" y="-147" type="curve" smooth="yes"/>
      <point x="133" y="-147"/>
      <point x="115" y="-142"/>
      <point x="102" y="-141" type="curve"/>
      <point x="96" y="-178" type="line"/>
      <point x="126" y="-187"/>
      <point x="136" y="-187"/>
    </contour>
  </outline>
</glyph>
<glyph name="Tbar" format="2">
  <advance width="414"/>
  <unicode hex="0166"/>
  <outline>
    <contour>
      <point x="174" y="0" type="line"/>
      <point x="239" y="0" type="line"/>
      <point x="239" y="325" type="line"/>
      <point x="323" y="325" type="line"/>
      <point x="323" y="375" type="line"/>
      <point x="239" y="375" type="line"/>
      <point x="239" y="636" type="line"/>
      <point x="397" y="636" type="line"/>
      <point x="397" y="693" type="line"/>
      <point x="17" y="693" type="line"/>
      <point x="17" y="636" type="line"/>
      <point x="174" y="636" type="line"/>
      <point x="174" y="375" type="line"/>
      <point x="91" y="375" type="line"/>
      <point x="91" y="325" type="line"/>
      <point x="174" y="325" type="line"/>
    </contour>
  </outline>
</glyph>
<glyph name="tbar" format="2">
  <advance width="329"/>
  <unicode hex="0167"/>
  <outline>
    <contour>
      <point x="210" y="-5" type="curve" smooth="yes"/>
      <point x="221" y="-5"/>
      <point x="241" y="-7"/>
      <point x="279" y="13" type="curve"/>
      <point x="271" y="53" type="line"/>
      <point x="253" y="41"/>
      <point x="222" y="38"/>
      <point x="217" y="38" type="curve" smooth="yes"/>
      <point x="154" y="38"/>
      <point x="126" y="77"/>
      <point x="126" y="144" type="curve" smooth="yes"/>
      <point x="126" y="257" type="line"/>
      <point x="257" y="257" type="line"/>
      <point x="257" y="295" type="line"/>
      <point x="126" y="295" type="line"/>
      <point x="126" y="477" type="line"/>
      <point x="261" y="477" type="line"/>
      <point x="261" y="520" type="line"/>
      <point x="126" y="520" type="line"/>
      <point x="126" y="681" type="line"/>
      <point x="78" y="671" type="line"/>
      <point x="78" y="148" type="line" smooth="yes"/>
      <point x="78" y="24"/>
      <point x="138" y="-5"/>
    </contour>
  </outline>
</glyph>
<glyph name="Uogonek" format="2">
  <advance width="533"/>
  <unicode hex="0172"/>
  <outline>
    <contour>
      <point x="322" y="-192" type="curve" smooth="yes"/>
      <point x="341" y="-192"/>
      <point x="360" y="-189"/>
      <point x="377" y="-183" type="curve"/>
      <point x="372" y="-139" type="line"/>
      <point x="358" y="-144"/>
      <point x="346" y="-145"/>
      <point x="336" y="-145" type="curve" smooth="yes"/>
      <point x="308" y="-145"/>
      <point x="295" y="-130"/>
      <point x="295" y="-99" type="curve" smooth="yes"/>
      <point x="295" y="-75"/>
      <point x="304" y="-49"/>
      <point x="326" y="-24" type="curve" smooth="yes"/>
      <point x="341" y="-9"/>
      <point x="357" y="4"/>
      <point x="375" y="16" type="curve" smooth="yes"/>
      <point x="426" y="51"/>
      <point x="455" y="109"/>
      <point x="455" y="211" type="curve" smooth="yes"/>
      <point x="455" y="693" type="line"/>
      <point x="392" y="693" type="line"/>
      <point x="392" y="213" type="line" smooth="yes"/>
      <point x="392" y="99"/>
      <point x="353" y="47"/>
      <point x="267" y="47" type="curve"/>
      <point x="181" y="47"/>
      <point x="141" y="99"/>
      <point x="141" y="213" type="curve" smooth="yes"/>
      <point x="141" y="693" type="line"/>
      <point x="78" y="693" type="line"/>
      <point x="78" y="211" type="line" smooth="yes"/>
      <point x="78" y="65"/>
      <point x="138" y="-8"/>
      <point x="262" y="-10" type="curve"/>
      <point x="273" y="-10"/>
      <point x="283" y="-9"/>
      <point x="293" y="-7" type="curve"/>
      <point x="258" y="-39"/>
      <point x="242" y="-77"/>
      <point x="242" y="-114" type="curve" smooth="yes"/>
      <point x="242" y="-162"/>
      <point x="273" y="-192"/>
    </contour>
  </outline>
</glyph>
<glyph name="uogonek" format="2">
  <advance width="471"/>
  <unicode hex="0173"/>
  <outline>
    <contour>
      <point x="333" y="-187" type="curve" smooth="yes"/>
      <point x="352" y="-187"/>
      <point x="369" y="-185"/>
      <point x="389" y="-177" type="curve"/>
      <point x="385" y="-124" type="line"/>
      <point x="372" y="-129"/>
      <point x="363" y="-131"/>
      <point x="352" y="-131" type="curve" smooth="yes"/>
      <point x="323" y="-131"/>
      <point x="305" y="-116"/>
      <point x="305" y="-84" type="curve" smooth="yes"/>
      <point x="305" y="-51"/>
      <point x="325" y="-21"/>
      <point x="392" y="21" type="curve"/>
      <point x="392" y="525" type="line"/>
      <point x="323" y="525" type="line"/>
      <point x="323" y="63" type="line"/>
      <point x="287" y="54"/>
      <point x="262" y="52"/>
      <point x="248" y="52" type="curve" smooth="yes"/>
      <point x="174" y="52"/>
      <point x="142" y="91"/>
      <point x="142" y="196" type="curve" smooth="yes"/>
      <point x="142" y="525" type="line"/>
      <point x="73" y="525" type="line"/>
      <point x="73" y="204" type="line" smooth="yes"/>
      <point x="73" y="16"/>
      <point x="149" y="-9"/>
      <point x="255" y="-9" type="curve" smooth="yes"/>
      <point x="259" y="-9"/>
      <point x="269" y="-8"/>
      <point x="283" y="-5" type="curve"/>
      <point x="253" y="-38"/>
      <point x="245" y="-70"/>
      <point x="245" y="-100" type="curve" smooth="yes"/>
      <point x="245" y="-155"/>
      <point x="288" y="-187"/>
    </contour>
  </outline>
</glyph>
<glyph name="longs" format="2">
  <advance width="202"/>
  <unicode hex="017F"/>
  <anchor x="101" y="0" name="bottom"/>
  <anchor x="101" y="515" name="top"/>
  <outline>
    <contour>
      <point x="83" y="0" type="line"/>
      <point x="131" y="0" type="line"/>
      <point x="131" y="605" type="line" smooth="yes"/>
      <point x="131" y="689"/>
      <point x="144" y="735"/>
      <point x="212" y="735" type="curve" smooth="yes"/>
      <point x="191" y="735"/>
      <point x="182" y="740"/>
      <point x="200" y="738" type="curve"/>
      <point x="208" y="775" type="line"/>
      <point x="189" y="779"/>
      <point x="187" y="776"/>
      <point x="202" y="776" type="curve" smooth="yes"/>
      <point x="125" y="776"/>
      <point x="83" y="720"/>
      <point x="83" y="605" type="curve" smooth="yes"/>
    </contour>
  </outline>
</glyph>
<glyph name="uni0180" format="2">
  <advance width="451"/>
  <unicode hex="0180"/>
  <outline>
    <contour>
      <point x="210" y="-10" type="curve" smooth="yes"/>
      <point x="347" y="-10"/>
      <point x="400" y="95"/>
      <point x="400" y="260" type="curve" smooth="yes"/>
      <point x="400" y="452"/>
      <point x="326" y="527"/>
      <point x="225" y="527" type="curve" smooth="yes"/>
      <point x="190" y="527"/>
      <point x="158" y="516"/>
      <point x="139" y="503" type="curve"/>
      <point x="139" y="633" type="line"/>
      <point x="268" y="633" type="line"/>
      <point x="268" y="678" type="line"/>
      <point x="139" y="678" type="line"/>
      <point x="139" y="776" type="line"/>
      <point x="79" y="764" type="line"/>
      <point x="79" y="678" type="line"/>
      <point x="4" y="678" type="line"/>
      <point x="4" y="633" type="line"/>
      <point x="79" y="633" type="line"/>
      <point x="79" y="16" type="line"/>
      <point x="122" y="-1"/>
      <point x="161" y="-10"/>
    </contour>
    <contour>
      <point x="209" y="43" type="curve" smooth="yes"/>
      <point x="181" y="43"/>
      <point x="156" y="49"/>
      <point x="139" y="57" type="curve"/>
      <point x="139" y="449" type="line"/>
      <point x="156" y="464"/>
      <point x="186" y="474"/>
      <point x="218" y="474" type="curve" smooth="yes"/>
      <point x="271" y="474"/>
      <point x="337" y="444"/>
      <point x="337" y="260" type="curve" smooth="yes"/>
      <point x="337" y="92"/>
      <point x="289" y="43"/>
    </contour>
  </outline>
</glyph>
<glyph name="uni0181" format="2">
  <advance width="545"/>
  <unicode hex="0181"/>
  <outline>
    <contour>
      <point x="274" y="-3" type="curve" smooth="yes"/>
      <point x="406" y="-3"/>
      <point x="496" y="41"/>
      <point x="496" y="191" type="curve" smooth="yes"/>
      <point x="496" y="266"/>
      <point x="452" y="334"/>
      <point x="357" y="358" type="curve"/>
      <point x="421" y="377"/>
      <point x="474" y="436"/>
      <point x="474" y="525" type="curve" smooth="yes"/>
      <point x="474" y="641"/>
      <point x="404" y="703"/>
      <point x="240" y="703" type="curve" smooth="yes"/>
      <point x="75" y="703"/>
      <point x="2" y="647"/>
      <point x="2" y="540" type="curve" smooth="yes"/>
      <point x="2" y="517"/>
      <point x="4" y="502"/>
      <point x="7" y="498" type="curve"/>
      <point x="45" y="503" type="line"/>
      <point x="45" y="505"/>
      <point x="44" y="522"/>
      <point x="44" y="543" type="curve" smooth="yes"/>
      <point x="44" y="588"/>
      <point x="53" y="610"/>
      <point x="128" y="637" type="curve"/>
      <point x="128" y="12" type="line"/>
      <point x="181" y="5"/>
      <point x="222" y="-3"/>
    </contour>
    <contour>
      <point x="273" y="42" type="curve" smooth="yes"/>
      <point x="257" y="42"/>
      <point x="218" y="45"/>
      <point x="180" y="54" type="curve"/>
      <point x="180" y="339" type="line"/>
      <point x="274" y="339" type="line" smooth="yes"/>
      <point x="419" y="339"/>
      <point x="445" y="263"/>
      <point x="445" y="193" type="curve" smooth="yes"/>
      <point x="445" y="97"/>
      <point x="424" y="42"/>
    </contour>
    <contour>
      <point x="180" y="382" type="line"/>
      <point x="180" y="648" type="line"/>
      <point x="202" y="650"/>
      <point x="207" y="651"/>
      <point x="234" y="651" type="curve" smooth="yes"/>
      <point x="387" y="651"/>
      <point x="421" y="607"/>
      <point x="421" y="517" type="curve" smooth="yes"/>
      <point x="421" y="448"/>
      <point x="398" y="382"/>
      <point x="272" y="382" type="curve" smooth="yes"/>
    </contour>
  </outline>
</glyph>
<glyph name="uni0182" format="2">
  <advance width="497"/>
  <unicode hex="0182"/>
  <outline>
    <contour>
      <point x="218" y="-7" type="curve" smooth="yes"/>
      <point x="356" y="-7"/>
      <point x="448" y="55"/>
      <point x="448" y="211" type="curve" smooth="yes"/>
      <point x="448" y="381"/>
      <point x="348" y="430"/>
      <point x="220" y="430" type="curve" smooth="yes"/>
      <point x="159" y="430" type="line"/>
      <point x="159" y="631" type="line"/>
      <point x="388" y="631" type="line"/>
      <point x="388" y="693" type="line"/>
      <point x="86" y="693" type="line"/>
      <point x="86" y="12" type="line"/>
      <point x="125" y="1"/>
      <point x="172" y="-7"/>
    </contour>
    <contour>
      <point x="216" y="58" type="curve" smooth="yes"/>
      <point x="201" y="58"/>
      <point x="182" y="59"/>
      <point x="159" y="64" type="curve"/>
      <point x="159" y="364" type="line"/>
      <point x="226" y="364" type="line" smooth="yes"/>
      <point x="330" y="364"/>
      <point x="370" y="313"/>
      <point x="370" y="213" type="curve" smooth="yes"/>
      <point x="370" y="107"/>
      <point x="326" y="58"/>
    </contour>
  </outline>
</glyph>
<glyph name="uni0183" format="2">
  <advance width="452"/>
  <unicode hex="0183"/>
  <outline>
    <contour>
      <point x="211" y="-10" type="curve" smooth="yes"/>
      <point x="348" y="-10"/>
      <point x="401" y="96"/>
      <point x="401" y="263" type="curve" smooth="yes"/>
      <point x="401" y="456"/>
      <point x="327" y="532"/>
      <point x="226" y="532" type="curve" smooth="yes"/>
      <point x="191" y="532"/>
      <point x="159" y="521"/>
      <point x="140" y="508" type="curve"/>
      <point x="140" y="722" type="line"/>
      <point x="338" y="722" type="line"/>
      <point x="338" y="774" type="line"/>
      <point x="80" y="774" type="line"/>
      <point x="80" y="16" type="line"/>
      <point x="124" y="-1"/>
      <point x="162" y="-10"/>
    </contour>
    <contour>
      <point x="210" y="43" type="curve" smooth="yes"/>
      <point x="182" y="43"/>
      <point x="157" y="49"/>
      <point x="140" y="57" type="curve"/>
      <point x="140" y="455" type="line"/>
      <point x="157" y="469"/>
      <point x="187" y="479"/>
      <point x="219" y="479" type="curve" smooth="yes"/>
      <point x="272" y="479"/>
      <point x="339" y="448"/>
      <point x="339" y="263" type="curve" smooth="yes"/>
      <point x="339" y="93"/>
      <point x="291" y="43"/>
    </contour>
  </outline>
</glyph>
